<svg xmlns="http://www.w3.org/2000/svg" viewBox="0 0 1000 610"><defs><style>.cls-1{fill:#fff;}.cls-2{fill:#cfd4d8;}.cls-3{fill:#00aed4;}.cls-4{fill:#bac2b9;}.cls-5{fill:#bdc3c7;}.cls-6{fill:#008bc9;}.cls-7{fill:#dadbdb;}.cls-8{fill:#ebebec;}.cls-9{fill:#d9dfe3;}.cls-10{fill:#cfd0d1;}.cls-11{fill:#0e88ca;}.cls-12{fill:#bccaba;}.cls-13{fill:#586063;}.cls-14{fill:#495156;}.cls-15{fill:#f1f5f8;}.cls-16{fill:#e9edf0;}.cls-17{fill:#5a6164;}.cls-18{fill:#62626f;}.cls-19{fill:#73747d;}.cls-20{fill:#596063;}.cls-21{fill:#dadfe4;}.cls-22{fill:#4f5658;}.cls-23{fill:#9a9d9e;}.cls-24{fill:#eaeff3;}.cls-25{fill:#eff3f4;}.cls-26{fill:#52595d;}.cls-27{fill:#a1a5a8;}.cls-28{fill:#c9ced3;}.cls-29{fill:#d6dce1;}.cls-30{fill:#545c60;}.cls-31{fill:#585f63;}.cls-32{fill:#4c5356;}.cls-33{fill:#3e454b;}.cls-34{fill:#3c444a;}.cls-35{fill:#525a5e;}.cls-36{fill:#fbfdfe;}.cls-37{fill:#575966;}.cls-38{fill:#545c61;}.cls-39{fill:#4f5659;}.cls-40{fill:#3e464b;}.cls-41{fill:#3c4348;}.cls-42{fill:#474e51;}.cls-43{fill:#4b4b59;}.cls-44{fill:#41474c;}.cls-45{fill:#5b6265;}.cls-46{fill:#d8dce2;}.cls-47{fill:#f0f4f7;}.cls-48{fill:#e7eaee;}.cls-49{fill:#e9eef4;}.cls-50{fill:#383f45;}.cls-51{fill:#4e555a;}.cls-52{fill:#41494f;}.cls-53{fill:#d3d3de;}.cls-54{fill:#c6ccd3;}.cls-55{fill:#d2d7dc;}.cls-56{fill:#d2d2de;}.cls-57{fill:#495054;}.cls-58{fill:#434a4d;}.cls-59{fill:#c8ccd2;}.cls-60{fill:#f3f6fa;}.cls-61{fill:#dedcec;}.cls-62{fill:#eee6f9;}.cls-63{fill:#e7e5f5;}.cls-64{fill:#d8dde3;}.cls-65{fill:#c9cdd3;}.cls-66{fill:#d2d7dd;}.cls-67{fill:#ecf0f5;}.cls-68{fill:#3fbcdb;}.cls-69{fill:#549b40;}.cls-70{fill:#519a3f;}.cls-71{fill:#006ab4;}</style></defs><g id="Background"><rect class="cls-1" width="1000" height="610"/></g><g id="Layer_6" data-name="Layer 6"><path class="cls-2" d="M536.7,170.12a15.86,15.86,0,0,1,.68,5c-.06,7.93,0,15.85,0,23.78,0,4.05-.69,4.59-4.62,4.75-3,.12-6-.57-8.94-.69-.95-.63-2-.27-3-.31s-1.89-.15-2-1.39a10.4,10.4,0,0,1,1-4.66.86.86,0,0,1,.95-.16c1,1,.56,2.5,1.17,3.64,4,1.65,8.26,1.51,12.47,1.25,1.25-.08,1.34-1.16,1.12-2.21a7.39,7.39,0,0,1-.16-1c0-7.84.65-15.68.13-23.52.39-2-.67-3.18-2.42-2.8-4,.88-7.92-.28-11.84-.06-16.21.92-32.43.47-48.65.55-7.94,0-15.85-.95-23.8-.64-3.66.15-4.07.5-4,4.15q.19,10.78,0,21.59c-.07,3.58.39,4.29,4.07,4,15.77-1.12,31.57-.36,47.36-.61a7,7,0,0,0,2.83-.51,1.25,1.25,0,0,1,1.15.2,2,2,0,0,1,.23,1.19c-.72,1.74-2.25.95-3.39,1-12.05.06-24.09,0-36.14.05-1.16,0-2.37-.3-3.48.31v0c-3.63.85-7.37-.27-11,.63-4.07-.08-4.39-1-4.12-5,.42-6.37.2-12.79.24-19.18,0-1.6,0-3.2,0-4.8a4,4,0,0,1,0-3.24h0c.92-1.62,2.43-2,4.13-1.93,9.1.28,18.21.08,27.32.35,10.69.32,21.49.69,32.15-.2,9.66-.81,19.24.37,28.86-.1A2.88,2.88,0,0,1,536.7,170.12Z" transform="translate(0 -0.5)"/><path class="cls-3" d="M379.18,139.1a2.33,2.33,0,0,1,2.13-.52,39.41,39.41,0,0,0,8.41.21c4.69.18,9.43-.52,14.09.61,7.51,1.93,15.21,1.91,22.88,2,1.3,0,2.59,0,3.89,0,4.26,0,8.58-.37,12.43,2.08a2.38,2.38,0,0,1,.84.67.86.86,0,0,1-.27,1,1.72,1.72,0,0,1-1,.18c-4.13-.78-8.12-2.27-12.38-2.32h-2.55L416,143a44,44,0,0,1-6.48-.6c-14.41-1.75-33.51-2.23-33.49-2.9C376,139.39,376.56,139.24,379.18,139.1Z" transform="translate(0 -0.5)"/><path class="cls-4" d="M454.79,257.82c1.18.13,1.9-.26,1.73-1.59-1.22-9.84-.28-19.71-.52-29.56-.13-5.58.05-11.16-.09-16.74-.07-2.72.8-3.85,3.68-3.82,13.42.12,26.84.08,40.26.09a172.9,172.9,0,0,1,22.07,0,3.71,3.71,0,0,1,2.61,4q-.1,22.25-.15,44.5c-.29,2.79-1.2,5.69,1.5,7.92a1.39,1.39,0,0,1-1.27,1c-1.63,0-2.16-1.06-2.29-2.43s-.07-2.72-.09-4.08c-.12-15-.22-30.06,0-45.08,0-2.54-.84-3.4-3.31-3.44-11.81-.19-23.63,0-35.44-.08q-11,0-21.92,0c-1.43,0-3.2-.39-3.39,1.91.21,15.66-.29,31.32.27,47a3.42,3.42,0,0,1-1.66,3.26c-2.86.42-3.94-1-3.72-3.66C454.48,255.58,454.12,257.7,454.79,257.82Z" transform="translate(0 -0.5)"/><path class="cls-5" d="M471.44,130.7c0-.2,0-.4.06-.61,1-3.15,3.71-3.29,6.25-3.45,3.75-.25,7.52-.06,11.28-.09,3.33,0,6.66.06,10,0,1.76,0,3.53,0,5.3,0,1.1.11,2.32,0,2.82,1.35-2.6,2-5.54.85-8.35.88-.41,0-.8-.3-1.24-.33.3.25.64.48.5,1-1,1.08-2.61.57-3.77,1.28-.67.72-.48,1.6-.52,2.45-.46,10.09.87,20.18,0,30.28a1.63,1.63,0,0,0,.29.89c3.65,2,6.11,1.36,7.16-2a2,2,0,0,1,.54-.8.86.86,0,0,1,.92.16c.72,1,.58,2.18.82,3.27.84,1.94,3.52.17,4.33,2.16a1,1,0,0,1-.66.79c-5.45.48-10.91-.13-16.36.34-4.67-.38-9.34-.07-14-.17-1.38,0-2.78.13-4-.62a2.11,2.11,0,0,1-1.32-1.93c-.61-4.14-.26-8.32-.23-12.47C471.26,145.66,470.84,138.17,471.44,130.7Z" transform="translate(0 -0.5)"/><path class="cls-6" d="M261.05,104.85c-.26-.58-.51-1.15-.76-1.73-.6-1.79-1.93-3.4-1.52-5.46.27-1.38.14-3.14,2.37-3,.75,1.47-.36,2.92,0,4.43,1.08,4.62,3.91,7.37,8.39,8.85a57.5,57.5,0,0,0,20.34,2.55,17.12,17.12,0,0,1,3.84.36c14.77,2.85,29.72,2.11,44.63,2.19a2.39,2.39,0,0,0,1.76-.59c-1.68-1.73-4-2.42-6-3.21-5.57-2.21-11.07-4.62-16.9-6.16-3.19-.85-6.21-2.33-9.49-3a2.71,2.71,0,0,1-2.28-2,1.55,1.55,0,0,1,1.33-.75,108.46,108.46,0,0,1,14.3,4.43h0c5.41,2.05,11.18,3.22,16.07,6.55l2,1.09c.87.15,2.87,2.15,4.25,4.16-.3,1.2-1.36,1.52-2.47,1.7a74.93,74.93,0,0,1-19.08.77c-3.37-.31-6.76-.56-10.14-.9-8.71.09-17.37-.89-26.05-1.53a98.52,98.52,0,0,1-13.58-1.8C267.89,110.84,263.35,109.3,261.05,104.85Z" transform="translate(0 -0.5)"/><path class="cls-7" d="M507,128.13c-.69-.91-1.7-.54-2.59-.63a8.76,8.76,0,0,0-5.17,0c-6.87,0-13.74-.1-20.6.07-2.55.07-5.42-.13-7.16,2.52-.31-1.12.68-2,.73-3.2-3.15,0-6.24,0-9.32,0s-4.65-2-4.06-5a26.2,26.2,0,0,0,.09-8.92c-.29-2,0-3.55,1.54-4.83a1.58,1.58,0,0,1,.48,1,3.3,3.3,0,0,1-.09,1.08c.13,4.79-.82,9.62.56,14.36.83.79,1.78.41,2.74.38,10.75-.25,21.51-.52,32.25.14a23.73,23.73,0,0,0,8.65-.06,6,6,0,0,1,2.28,0c2.91.64,5.86.17,8.79.33,1.33.07,2.77-.25,3.83.92-2.86,1.34-5.88.4-8.82.58-1.65.11-2.52.63-2.11,2.3,1.06,4.34.43,8.74.5,13.11.12,7,0,13.92,0,20.89a6.71,6.71,0,0,1-.66,3.74c-.34.39-.58,1-1.31.63v-.68C507.55,153.92,508.09,141,507,128.13Z" transform="translate(0 -0.5)"/><path class="cls-8" d="M507.62,167.5l1.31-.63c-.14,2.23,1.46,1.93,2.85,1.93,7.09,0,14.18,0,21.28,0,1.34,0,2.88-.41,3.64,1.3-8.28.34-16.55-1.15-24.78-.54-11.39.85-22.76.36-34.14.51-10.29.13-20.58,0-30.86-.05a6.23,6.23,0,0,0-4.48,1.35c.28-2.09,1.92-2.58,3.53-2.53,9.1.25,18.19-.16,27.31.4,11,.67,22,.16,33-.45-9.2,0-18.41,0-27.61,0-1.76,0-3.65.67-5.28-.6a115.9,115.9,0,0,1,17.48-.11c4.27-1.13,8.61-.27,12.91-.51C505.09,167.48,506.36,167.51,507.62,167.5Z" transform="translate(0 -0.5)"/><path class="cls-9" d="M519.28,201.07c.65,2.64,3.43.3,4.51,1.93h-66.5c1-1,2.23-.6,3.36-.6,12.05,0,24.1,0,36.15-.05,1.15,0,2.73.65,3.13-1.31a3.49,3.49,0,0,0,1.25-3.42c-.59-5.89-.23-11.8-.22-17.69,0-1.22-.6-3.13,1.75-3.25,1,1.44.59,3.09.68,4.66.27,4.86-.53,9.76.47,14.59,3.19,2,6.6.66,9.88.54,1.51-.06,1.39-1.9,1.42-3.17.08-4.48.18-9,.22-13.42,0-1.13-.22-2.38.73-3.34a.84.84,0,0,1,1,.19,4.08,4.08,0,0,1,1.1,2.93c-.09,7.11.93,14.29-1.41,21.25-1,1.1-2.22.44-3.33.44a75.3,75.3,0,0,0-10.93.44,74,74,0,0,1,12.36-.25c.78,0,1.5.12,2-.68A1.86,1.86,0,0,1,519.28,201.07Z" transform="translate(0 -0.5)"/><path class="cls-6" d="M390.18,106.12c19.8,10.29,28.56,15.11,32.63,17.53,2.84,1.69,13.34,7.47,14.71,8.36.76.5,1.91.64,1.83,1.93a1.78,1.78,0,0,1-.81.51c-1.72.19-3.06-.69-4.46-1.52-10-5.94-20.32-11.47-30.51-17.15-5.42-3-10.95-5.81-16.35-8.86-4.09-2.31-8.4-4.22-12.51-6.52-1.2-.6-2.21-1.59-3.62-1.74-2.65-.36-4.53-2.33-6.9-3.28a5.94,5.94,0,0,0-2-1.48c-.51-.22-1-.5-1.51-.75-1.49-.55-3-1-4.48-1.64a3.17,3.17,0,0,1-1.82-1.41,1.71,1.71,0,0,1,0-.95,1.08,1.08,0,0,1,.43-.4,1.62,1.62,0,0,1,1.3.1c7.84,3.44,9.41,4.58,9.41,4.58,2.18,1.13,5.56,2.85,9.8,4.94l4,1.95C381.89,101.61,385.61,103.53,390.18,106.12Z" transform="translate(0 -0.5)"/><path class="cls-3" d="M373.28,139.17c-8-.51-16-.72-23.68-3.73a27.85,27.85,0,0,1-6.13-3.44c-2.78-2-4.34-4.71-3-8.33a12.86,12.86,0,0,1,3.92-3.3,24.83,24.83,0,0,1,5-1.25,45.18,45.18,0,0,1,9.39.08l.7.07s.72.09,1.48.23a83.32,83.32,0,0,1,9.09,3.1c-2.11,1.78-4.26,1.22-6.62.43-6.49-2.16-13-2.57-19.29.75-2.36,1.25-2.61,2.84-1,5A12.59,12.59,0,0,0,349.5,133c4.86,1.56,9.71,3.56,15,3.28a46.1,46.1,0,0,1,12.72,1.43c.88.19,2.28,0,1.72,1.73A18,18,0,0,1,373.28,139.17Z" transform="translate(0 -0.5)"/><path class="cls-6" d="M441.33,135.92C435,131.4,428,128,421.2,124.2c-7.11-4-14.42-7.65-21.25-12.13,3.47.2,6.09,2.46,8.94,4,9.09,4.82,18.14,9.77,27,15.07,5.89,3.54,12,6.78,17.51,10.95a3.12,3.12,0,0,1,1.37,1.72c-1.42.79-2.29-.5-3.39-.89-2.95-1.67-5.47-4-8.62-5.37A2,2,0,0,1,441.33,135.92Z" transform="translate(0 -0.5)"/><path class="cls-6" d="M307.93,98.1l-1.44.07c-1.71.9-3.53.42-5.05-.16-7.08-2.68-14.61-4-21.85-6.18a19.25,19.25,0,0,0-14.31,1c-1.45.71-2.71,1.69-4.23,2.28-2.11,1.48-2.47,3.32-1.3,5.45a3.65,3.65,0,0,1,.58,2.54c-3.83-4.41-2.3-9.09,4-12.25,3.43-2.15,15.92-1.29,17.17-.63,2.4.58,25.59,6.46,26.35,7.12A.73.73,0,0,1,307.93,98.1Z" transform="translate(0 -0.5)"/><path class="cls-10" d="M460.49,108.73c0-.21,0-.41,0-.62h0a4,4,0,0,1,2.2-.27h55.06a4,4,0,0,1,2.2.28c1.58,1.26,1.82,2.86,1.54,4.8a24.49,24.49,0,0,0,.1,8.87,3.94,3.94,0,0,1-1.63,4.45c-3.31,0-6.63,0-10,0-1,0-2.18.35-3-.65,2.67-1.73,5.64-.72,8.47-.86,3.93-.19,4.14-.27,4.17-4.25,0-2.15,0-4.29,0-6.44,0-3.7-.6-4.28-4.32-4.29-15.79,0-31.57,0-47.36,0C465.48,109.66,462.8,110.5,460.49,108.73Z" transform="translate(0 -0.5)"/><path class="cls-6" d="M335.26,100.36c-5-4.21-5.66-9.32-1.45-12.25s9.18-3.21,14.05-1.64c1.82.59,3.62,1.24,5.48,1.69.52.41,1.19.78.49,1.58-1.9,1-3.81.52-5.61-.18a17.17,17.17,0,0,0-12.84.26,9.23,9.23,0,0,0-1.51,1c-2.1,2.2.19,4.12.39,6.16.14.25.27.5.41.74C335.09,98.53,336.09,99.25,335.26,100.36Z" transform="translate(0 -0.5)"/><path class="cls-11" d="M335.26,100.36c.16-1.13-1-1.62-1.27-2.54,1.14-.73,1.82.06,2.44.8,4.68,5.59,11.14,8.38,17.4,11.68,3.1,1.64,6.62,1.52,9.48,3.44.44.72.86,1.45.31,2.31a74,74,0,0,1-13.3-4.08c-1.42-.63-2.62-1.65-4.07-2.25a42.79,42.79,0,0,1-9.69-7.4Z" transform="translate(0 -0.5)"/><path class="cls-7" d="M520,108.13H460.5c.86-.94,2-.61,3-.61q26.7,0,53.4,0C518,107.51,519.1,107.19,520,108.13Z" transform="translate(0 -0.5)"/><path class="cls-6" d="M430.16,143c4.49-.79,8.58,1.09,12.82,1.95,3.16-.12,6,1.26,9,1.8a7.41,7.41,0,0,1,.84.24,4.26,4.26,0,0,0,3.14.1,10.58,10.58,0,0,0,1.25-.85c.81.25,1.36.76,1,1.64s-1.13.86-1.89.92c-3.15.28-6.08-.58-9.07-1.43C441.63,145.79,435.88,144.47,430.16,143Z" transform="translate(0 -0.5)"/><path class="cls-7" d="M471.44,130.7q0,17.46,0,34.91c-.74-.66-.59-1.55-.59-2.39V133.11C470.87,132.26,470.73,131.38,471.44,130.7Z" transform="translate(0 -0.5)"/><path class="cls-12" d="M521.92,206.2H499.85c3.19-1.18,6.51-.5,9.75-.47C513.71,205.76,517.86,205,521.92,206.2Z" transform="translate(0 -0.5)"/><path class="cls-6" d="M353.13,89.23l-.79-1.07c4.88-.14,8.8,2,12.19,5.27-3.53-1.66-7-3.56-10.92-4.1C353.38,89.63,353.22,89.58,353.13,89.23Z" transform="translate(0 -0.5)"/><path class="cls-7" d="M490.91,168.06l-17.48.11-.66-.63c5.13,0,10.26,0,15.4,0C489.11,167.52,490.12,167.29,490.91,168.06Z" transform="translate(0 -0.5)"/><path class="cls-12" d="M527.08,257.91c.12,1.67,0,3.26-1.38,4.47-3.67-2-1.63-5-1.32-7.72v6C526.25,260.3,525.78,258.3,527.08,257.91Z" transform="translate(0 -0.5)"/><path class="cls-6" d="M457.25,146.27a1.29,1.29,0,0,1-.6,1.25.6.6,0,0,1-.79.09c-1.24-3.06-5-3.61-6.49-6.39a1,1,0,0,1,.18-.84l3.18,1.41C454,143.53,456.33,144.18,457.25,146.27Z" transform="translate(0 -0.5)"/><path class="cls-8" d="M446.31,203.65c3.6-1.31,7.33-.32,11-.63C453.7,204.41,450,203.34,446.31,203.65Z" transform="translate(0 -0.5)"/><path class="cls-8" d="M442.44,171.39l0,3.24A2.24,2.24,0,0,1,442.44,171.39Z" transform="translate(0 -0.5)"/><path class="cls-13" d="M520.48,196.71a2.34,2.34,0,0,0-.49-.27,2.67,2.67,0,0,1-.93-2.07c.13-5.41-.49-10.84.52-16.23a6.63,6.63,0,0,0-.32-4.07c-.28-.33-.58-.77-1-.71-5.2.77-10.33-.84-15.53-.45-1,.08-1.91.11-2.37,1.19-.46,7.36-.05,14.72-.19,22.07,0,1.48.21,3-.93,4.26-.32,1.72-1.64,1.34-2.78,1.34-10.43,0-20.86-.08-31.29,0-6,0-12,.25-18,.56-2.75.14-3.49-.93-3.43-3.58q.23-12.09,0-24.17c-.06-2.86.9-3.76,3.71-3.73,18.26.17,36.51.92,54.77.61q15.29-.27,30.56-.59c3.41-.08,3.91.4,3.47,3.85l-.41-.11c-.88-1.15-1.85-2.12-3.51-1.61a13.06,13.06,0,0,1-6.65.25c-2.42-.66-3.52.35-3.41,2.68.25,5.55-.65,11-.72,16.59C521.5,194,521.78,195.55,520.48,196.71Z" transform="translate(0 -0.5)"/><path class="cls-14" d="M520.48,196.71c-.07-7.37,1.12-14.69.69-22.06-.13-2.23.94-3.08,2.84-2.54,3.21.91,6.33.36,9.48-.05,1.12,2,2.22,4,2.24,6.36.77,5.87-.12,11.74,0,17.61,0,1-.38,2.14.38,3.09l0,0c.49,2.47-.84,3.12-3,2.93a8.08,8.08,0,0,1-2.7-.64c-1-1.73.86-2.91.89-4.5.07-3.08.48-6.14.15-9.25a40.21,40.21,0,0,1,.14-9.3c.33-2.53-.73-3.93-2.83-4.09-2.8-.21-4.16.83-4.1,3.51.14,5.43-.11,10.85-.12,16.27,0,2.43.77,4.91,3.74,5.74.71.2,2.35.47.71,1.8a57.33,57.33,0,0,1-8.49-.48C520.51,199.62,520.5,198.16,520.48,196.71Z" transform="translate(0 -0.5)"/><path class="cls-15" d="M516.69,176.56l-.63,0h-.51a45.36,45.36,0,0,0-13.06,0,1.86,1.86,0,0,0-.64,1.72c.43,6.87-.9,13.78.74,20.63.46,1.87-1.18,2.16-2.66,2.14l0-.61c-.68-4.78-.21-9.57-.29-14.36-.07-4.38-.08-8.76,0-13.14,3.18-1.15,6.41,0,9.61-.12,2,0,4,.16,6,.2,1.84.34,2,1.83,2.26,3.27A.51.51,0,0,1,516.69,176.56Z" transform="translate(0 -0.5)"/><path class="cls-16" d="M516.69,176.56h.65a1.83,1.83,0,0,1,2.43,1.1c-.26,4.64-.2,9.28-.16,13.92,0,1-.38,2.12.38,3.05v1.82c-.31,1.53.19,3.19-.71,4.63h-2.59a4,4,0,0,1-.41-3.06C518.25,190.91,517.5,183.73,516.69,176.56Z" transform="translate(0 -0.5)"/><path class="cls-13" d="M536.13,199.12c-1.14-.91-.68-2.18-.69-3.3-.05-6.21,0-12.43,0-18.65-.28-1-.93-2,.52-2.63l.29.18C536.59,182.85,536.44,191,536.13,199.12Z" transform="translate(0 -0.5)"/><path class="cls-8" d="M499.94,172.79q0,13.82,0,27.64h-.66l.09-27.73C499.58,172.41,499.79,172.45,499.94,172.79Z" transform="translate(0 -0.5)"/><path class="cls-13" d="M520.53,201.08l9.06,0a.39.39,0,0,1,.67,0c2.15-.07,5.16,2.4,5.85-2,.81,2.33,0,3.45-2.48,3.3C529.24,202.12,524.8,202.46,520.53,201.08Z" transform="translate(0 -0.5)"/><path class="cls-17" d="M457.26,210.11c-.71-2.19.49-2.62,2.33-2.62,18.72,0,37.43,0,56.15,0,7.44,0,7.44.09,7.44,7.43q0,21.12,0,42.25a.65.65,0,0,1-.92-.14c-.77-1.39-.35-3.16-2.51-4.19-1.86-.88-2-3.55-2-5.79.09-8.14-.29-16.29.66-24.4.37-3.21-.75-6.34-.33-9.6.26-2-1.16-3.36-3.38-3.49a6.32,6.32,0,0,1-1-.25c-2.48-.61-5-.18-7.5-.27q-3.09,0-6.18,0c-2.49-.16-4.87.91-7.37.66-10.37.09-20.74.14-31.11,0a7,7,0,0,0-3.14.49A1.16,1.16,0,0,1,457.26,210.11Z" transform="translate(0 -0.5)"/><path class="cls-18" d="M457.26,210.11h.68a2.54,2.54,0,0,1,.82,1.65c.21,10.07,0,20.15.12,30.22a34.61,34.61,0,0,1,0,5.76,24.71,24.71,0,0,0,1.83,10.9,13.3,13.3,0,0,1-2.78,6.37c-1.09-1.28-1.05-3-1.79-4.44a3.59,3.59,0,0,0,1.57-3C456.61,241.76,457.62,225.93,457.26,210.11Z" transform="translate(0 -0.5)"/><path class="cls-19" d="M522.54,257.26c.21,0,.41,0,.62-.05.66,2-1.59,4.87,1.78,6.08-.45.89-.77,1.86-1.76,2.34-3.11-1.87-2.75-4.44-1.47-7.2A2.14,2.14,0,0,1,522.54,257.26Z" transform="translate(0 -0.5)"/><path class="cls-20" d="M492.17,147.84c0,5-.09,10.1,0,15.15.06,2.3-.56,3.36-3.06,3.27-4.62-.14-9.25-.1-13.87,0-2.29,0-2.81-.79-2.76-3.1q.35-14.49.16-29c-.05-4.6.43-5.51,5.18-5.09a43.44,43.44,0,0,0,11.22-.15c2.46-.42,3.21.86,3.18,3.14-.07,5.27,0,10.53,0,15.8Z" transform="translate(0 -0.5)"/><path class="cls-21" d="M501.92,161.64l-.17.73c-3.45-.65-5.84,1.42-8.33,3.25-1.74-2.8-.19-5.79-.35-8.68-.44-8.14-.21-16.32-.2-24.48,0-1-.42-2.16.59-3,.58.9.81,1.85,2.4,1.91s3.4.5,4.22,1.86c.72,1.19,2.33-1,2.39,1,.44,8.14.24,16.29.26,24.44A4.05,4.05,0,0,1,501.92,161.64Z" transform="translate(0 -0.5)"/><path class="cls-22" d="M502.51,165.55l-.06-3.82c-.59-2.21-.21-4.47-.26-6.7-.17-7.59.25-15.19-.33-22.78-.16-2,.73-3.27,2.92-3.42s3.22.87,3.45,2.9c.18,1.62-.34,3.18-.28,4.8.29,8.86-.1,17.72.31,26.57C508.42,166.63,506.87,167.27,502.51,165.55Z" transform="translate(0 -0.5)"/><path class="cls-23" d="M502.51,165.55c5.14.53,5.11.53,5.11-4.64,0-9.34,0-18.68,0-28,0-1.64.18-3.32-2.25-3.44s-2.82,1.42-2.83,3.3q-.07,14.49-.13,29a2.35,2.35,0,0,1-.53-.09l-.12-28.32a7,7,0,0,0-3.79-3.93c-.63-.83-1.73-.45-2.49-1.26H507c1.62,1.79,1.92,3.77,1.61,6.2a42.3,42.3,0,0,0-.15,9.93c.72,6.47-.77,13,.39,19.4.24,1.3-.51,2.24-1.26,3.16C505.93,166.34,503.65,168.22,502.51,165.55Z" transform="translate(0 -0.5)"/><path class="cls-24" d="M493.42,165.62c1-3.07,5.81-4.94,8.33-3.25.57,3.1-.8,4.3-3.81,3.86C496.44,166,494.79,166.81,493.42,165.62Z" transform="translate(0 -0.5)"/><path class="cls-25" d="M498,129.39c2.72-.09,4.7.53,3.79,3.93-.74,0-.6,1.85-1.22,1.1-1.57-1.92-3.93-2-5.88-2.69-1.68-.57-1.05-1.42-1.24-2.27Z" transform="translate(0 -0.5)"/><path class="cls-10" d="M499.26,127.5a5,5,0,0,1,5.17,0Z" transform="translate(0 -0.5)"/><path class="cls-26" d="M522.54,257.26l0,1.24c-1.42,1.24-2.43,2.64-1.93,4.7.12.49-.07,1.09.66,1.24,2.54.52,1.55,2.25,1.29,3.74l-2.6,9.68a.65.65,0,0,1-.83,0c-1.43-2.53-.27-5.54-1.51-8.11a5.52,5.52,0,0,1-.29-1c-.2-1.25-.16-2.51-.27-3.77-.09-12.68.18-25.36,0-38-.08-4.49.55-9-.19-13.46a3,3,0,0,0-2.18-1.93c-.78-.62-1.91-.66-2.56-1.51.14-1.34,1.18-1.14,2.06-1.22,4.19.06,5.17,1.44,4.71,5.77-.21,2,.55,4,.43,6-.52,8.31-.64,16.63-.65,25,0,2.93.12,5.65,2.46,7.75.47-.77-.2-1.95,1-2.77C523,252.79,522.24,255.08,522.54,257.26Z" transform="translate(0 -0.5)"/><path class="cls-17" d="M522.51,268.18c-.11-1.84.62-4.67-3.26-2.31,2-2.28-2.15-6.73,3.24-7.37-1.5,2.54-.93,4.88.69,7.13C523.09,266.51,523.41,267.5,522.51,268.18Z" transform="translate(0 -0.5)"/><path class="cls-6" d="M261,94.6c2.26-3.54,5.84-4.75,9.69-5a25.16,25.16,0,0,1,12.21,1.87,59.62,59.62,0,0,0,9.78,2.74c4.37,1,8.34,3.34,12.87,3.68a9.42,9.42,0,0,0,4.28,2,99,99,0,0,1,13.77,4.53,83.89,83.89,0,0,0,8.35,3c3.1.93,5.52,3.14,8.66,3.86a1.61,1.61,0,0,1,1.29,2c-.23.86-1.16.78-1.92.79-13,.07-26.09.93-38.89-1-8.19-1.22-16.47-.63-24.51-2.34-4.16-.89-8.59-1.26-12.11-4.36C260.46,102.72,259.38,99.67,261,94.6Z" transform="translate(0 -0.5)"/><path class="cls-27" d="M460.49,108.73l56,0c4,0,4.14.12,4.12,4.16,0,3.21-.05,6.43,0,9.64.05,2.15-.75,3.17-3,3.09-3.54-.11-7.08-.06-10.62-.09h-1.94a23.89,23.89,0,0,1-8.39,0c-10.1,0-20.2.1-30.29,0-2,0-4.22,1.85-6-.51l.37-.45a17.86,17.86,0,0,1,7.55-1.3c8.06.07,16.13-.14,24.2.11.84,0,1.74.23,2.37-.59.45-3.35.08-6.71.22-10,0-1.63-.59-2.22-2.37-2.06-8.79.76-17.62.23-26.43.31a21.82,21.82,0,0,1-5.06-.94,1.9,1.9,0,0,1-.85-.76C460.41,109.13,460.45,108.93,460.49,108.73Z" transform="translate(0 -0.5)"/><path class="cls-27" d="M460.38,125.05a44.87,44.87,0,0,1,0-15.72l.26.23a3.07,3.07,0,0,1,.59,1,73.3,73.3,0,0,1,0,13.25,3,3,0,0,1-.59,1Z" transform="translate(0 -0.5)"/><path class="cls-10" d="M496.68,125.59l8.39,0A11.62,11.62,0,0,1,496.68,125.59Z" transform="translate(0 -0.5)"/><path class="cls-28" d="M516.06,176.54c0,6.33,0,12.66,0,19a1.67,1.67,0,0,1-1.75,1.87c-3.72,0-7.47,1.16-11.16-.2-.71-6.27-.15-12.57-.31-18.85a2,2,0,0,1,2.11-2.33c3.71,0,7.46-.74,11.11.53Z" transform="translate(0 -0.5)"/><path class="cls-29" d="M516.05,176.55c-3.31,0-6.63.08-9.94,0-2.23-.07-3,.85-3,3,.08,5.88,0,11.75,0,17.63-1.06-.95-.62-2.2-.63-3.33,0-5.77,0-11.54,0-17.32C505.37,174.68,513.77,174.68,516.05,176.55Z" transform="translate(0 -0.5)"/><path class="cls-2" d="M516.69,201.08c.59,1.47-.45,1.28-1.31,1.28H501.24c5-2.67,10.2-2.27,15.45-1.28Z" transform="translate(0 -0.5)"/><path class="cls-6" d="M363,114a5.52,5.52,0,0,0-3.4-.64,5.19,5.19,0,0,1-4.33-1.51c-1.7-1.66-4.24-2.15-6.31-3.06-4.64-2-8.43-5-12.21-8.17-1-.82-1-2.72-2.78-2.76h0c-.17-2.52-1.72-4.94-.63-7.56l1.24-.83c6.78-2.74,13.38.19,20.06.65l1.92.69c1,1.93,3,1.32,4.56,1.89l1.24.68c.51.63,1.34.79,1.94,1.28,2.64.48,4.22,3.3,7.11,3.23a10,10,0,0,0,3.22,1.93c4.53,2.27,9.07,4.52,13.57,6.84,3.93,2,7.85,4.07,11.72,6.2,5.65,3.1,11.25,6.28,16.88,9.42,5.16,2.88,10.31,5.77,15.49,8.61,2,1.12,3.73,2.89,6.19,3.17,1.45,1.19,3.47,1.55,4.63,3.16.47,1.24,1.53,2,2.27,3.05,1.44,2,.72,3.71-1.67,4.08h0c-2.34-1.08-4.6-2.37-7.26-2.52-1.06-2.06-2.85-2.57-5-3.35-4-1.48-8.58-1-12.31-3.72-2.3-1.68-5.38-2.1-8.14-3-4.39-1.44-8.52-3.49-12.74-5.31-2.87-1.23-5.91-1.94-8.83-3-6.77-2.41-13.41-5.08-19.94-8.06C367.45,114.4,365,115.52,363,114Z" transform="translate(0 -0.5)"/><path class="cls-6" d="M354.65,90.07c-4.66.93-9-1.52-13.6-1.36-2.2.07-4.16,2-6.46.71a15.82,15.82,0,0,1,12.94-.93,11.58,11.58,0,0,0,6.6.74l.48.1C354.62,89.58,354.64,89.82,354.65,90.07Z" transform="translate(0 -0.5)"/><path class="cls-6" d="M442.46,137.15c-1.19-1.21-3.18-1.42-4-3.14l.84-.09a51.83,51.83,0,0,1,10.22,6.46v.69c-1.91,1.31-2.79-.56-4-1.31A7.62,7.62,0,0,1,442.46,137.15Z" transform="translate(0 -0.5)"/><path class="cls-6" d="M361.13,92.65c-1.66-.3-4,1-4.56-1.89Z" transform="translate(0 -0.5)"/><path class="cls-11" d="M374.64,99.77a3.08,3.08,0,0,1-3.22-1.93C372.8,98,373.67,99,374.64,99.77Z" transform="translate(0 -0.5)"/><path class="cls-6" d="M364.31,94.61c-.93,0-1.86,0-1.94-1.28A1.89,1.89,0,0,1,364.31,94.61Z" transform="translate(0 -0.5)"/><path class="cls-3" d="M403.73,140.36c-4.7-1.1-9.48-.36-14.22-.61-2.76-.88-5.66.25-8.41-.61l-1.92,0c-3.64-.51-7.09-2-10.86-1.95a42.37,42.37,0,0,1-15-2.14c-3.91-1.4-7.69-2.49-10.66-5.45-2.64-2.65-1.93-4.79,1.21-6.67,5.93-3.56,12.26-2.59,18.29-1.49,4.22.76,6.4.57,8.09.88,12.93,2.4,13.26,7.56,24.73,9.9,1.79.37,5.78,2.36,14.3,4.55a4.89,4.89,0,0,1,1.7.9c1,.73,2,1.57,1.46,2.9-.66,1.58-2,.74-3.07.47C407.49,140.51,405.68,139.87,403.73,140.36Z" transform="translate(0 -0.5)"/><path class="cls-3" d="M370.78,122.41a7.47,7.47,0,0,0,3.77.29,17.34,17.34,0,0,1,2.43-.65c1-.07,1.69.17,3.59.89s2.92,1.17,3.43,1.35c6.51,2.17,12.91,4.62,19.3,7.11,5.24,2.69,11.05,4,16.28,6.69,2.49,1.27,5.38,1.85,7.3,4.12a88.67,88.67,0,0,1-23.15-1.85,6.42,6.42,0,0,1,5.82.07c.76.32,1.7,1.09,2.27.08s-.49-1.6-1.27-2.19c-2.3-1.72-5.27-2.11-7.75-2.54-3.92-.69-7-3.15-10.89-3.76-4.15-.65-8-2.69-11.76-4.5a5,5,0,0,1-1.84-1.21,5,5,0,0,0-4.76-2C372.21,124.4,371.41,123.47,370.78,122.41Z" transform="translate(0 -0.5)"/><path class="cls-6" d="M442.46,137.15c2.69.71,4.25,3.46,7.08,3.92,1.56,1.1,3.1,2.23,4.69,3.29,1.13.76,2,1.59,1.7,3.11a3.38,3.38,0,0,1-3.15,0h0c-2.95-1-6-1.71-8.94-2.67a3.45,3.45,0,0,1-.11-.54c1.92-1.25,2.64-2.67.41-4.28A3.65,3.65,0,0,1,442.46,137.15Z" transform="translate(0 -0.5)"/><path class="cls-6" d="M426.88,142.21,403.06,132a2.33,2.33,0,0,1,2.71-.26c8.23,3.29,17,5.24,24.82,9.53a.69.69,0,0,1,.23.89Z" transform="translate(0 -0.5)"/><path class="cls-6" d="M426.82,142.19v-.48c1.93-1.39,9.18-1.21,9.18-1.21a23.41,23.41,0,0,1,6,2c2.93,1.68,4.56,4.06,4,4C436,145.5,427.6,142.16,426.82,142.19Z" transform="translate(0 -0.5)"/><path class="cls-6" d="M443.83,144.84a18.49,18.49,0,0,1,8.94,2.67A34.21,34.21,0,0,1,443,145Z" transform="translate(0 -0.5)"/><path class="cls-3" d="M381.1,139.14c2.79.31,5.69-.72,8.41.61C386.71,139.47,383.82,140.45,381.1,139.14Z" transform="translate(0 -0.5)"/><path class="cls-6" d="M333.35,90.25a27.4,27.4,0,0,1,.63,7.56C333.49,95.31,330.37,93,333.35,90.25Z" transform="translate(0 -0.5)"/><path class="cls-6" d="M436.63,141.7h-5.81c-4.64-1.68-9.24-3.46-13.92-5s-8.94-4-13.84-4.68l-26.3-9.66c-1.36.16-2.34-.68-3.39-1.32l-3.16-1.94c-1.84-1.76-4.34-2.16-6.55-3.15-.21-.66-.43-1.33-.64-2,5.88-1.06,10.53,2.51,15.56,4.37,6.24,2.3,12.42,4.7,18.77,6.74,5.23,1.68,10.07,4.58,15.34,6.3,3.52,1.15,7.14,2.07,10.14,4.42.08.06.22.15.29.12,3.56-1.55,6.05,2.19,9.32,1.91C435.36,137.56,436.58,139,436.63,141.7Z" transform="translate(0 -0.5)"/><path class="cls-6" d="M452.78,147.51l3.15,0,.72.05A2.85,2.85,0,0,1,452.78,147.51Z" transform="translate(0 -0.5)"/><path class="cls-30" d="M480.59,201l-30,0a18.66,18.66,0,0,0-2.9.11c-1,.16-2.08,1-2.91-.23-.63-.93.14-1.87.35-2.76.34-1.48,1.74-1,2.7-.95,6.75.56,13.51.63,20.27.58,7.36-.06,14.73-.37,22.09-.53,2,0,2.32-1.45,2.58-2.92.7-4-.23-8.19.44-12.14.49-2.88-.64-5-1.37-7.41a.54.54,0,0,0-1-.2,1.37,1.37,0,0,1-2.15.48,1.49,1.49,0,0,1-.43-2.41h6.46c1.11,1.25,1,2.79,1,4.29-.08,5.9,0,11.81-.06,17.72-.06,4.93-1.11,5.89-6.12,6.05C486.58,200.84,483.57,200.4,480.59,201Z" transform="translate(0 -0.5)"/><path class="cls-31" d="M488.29,172.69c0,1.83.71,2.63,2.58,1.93-.33,2.55-2.62,2.43-3.95,2a11.89,11.89,0,0,0-8.72.44,6.36,6.36,0,0,1-3.19,0,69.9,69.9,0,0,0-16.23-.19A39.52,39.52,0,0,1,446,175.51c-1.43-.35-1.27-1.4-1.34-2.14-.1-1.05.92-1.32,1.83-1.32,7,0,14-.52,20.93.15S481.34,172.35,488.29,172.69Z" transform="translate(0 -0.5)"/><path class="cls-32" d="M480.59,201c2.53-1.27,5.23-.48,7.84-.56,5.49-.18,6.31-.89,6.31-6.29q0-10.74,0-21.49h2.58c1,2.93.4,5.9.33,8.87-.11,5.22,0,10.45,0,15.68,0,2-.34,3.66-2.82,3.77Z" transform="translate(0 -0.5)"/><path class="cls-33" d="M494.81,201a3.26,3.26,0,0,0,1.93-3.22c.14-6.83-.7-13.69.56-20.48.29-1.53-1.24-3.08,0-4.62,1.43.17,1.22,1.28,1.22,2.21,0,7.95-.09,15.9,0,23.84C498.62,202,496.41,200.84,494.81,201Z" transform="translate(0 -0.5)"/><path class="cls-29" d="M499.94,172.79a6,6,0,0,0-.61-.09c2.81-1.51,5.8-.53,8.69-.51,3.3,0,6.59.63,9.91,0a1.68,1.68,0,0,1,2.09,1c-.11.12-.21.24-.31.37a2.91,2.91,0,0,1-.9.35,3.28,3.28,0,0,1-2.74-.6C510.69,173.25,505.3,173.6,499.94,172.79Z" transform="translate(0 -0.5)"/><path class="cls-2" d="M520,194.62c-1.36-1.47-.62-3.27-.66-4.91-.13-4.17-.06-8.35-.06-12.52a1.13,1.13,0,0,1-.31-.8,6.26,6.26,0,0,1,.78-3l.28-.16C520.57,180.39,520,187.5,520,194.62Z" transform="translate(0 -0.5)"/><path class="cls-34" d="M535.92,174.54c-.7.78-.46,1.73-.52,2.63-.57-1.73-2.75-2.86-1.91-5.12C535.62,171.6,535.69,173.15,535.92,174.54Z" transform="translate(0 -0.5)"/><path class="cls-35" d="M530.26,201.06h-.67c-5.42-1.95-5.43-3.23-5.67-9.78-.17-4.62.56-9.22,0-13.85-.42-3.23,1.13-4.25,5-4.1a3.72,3.72,0,0,1,3.75,4.52c-1.08,5,.18,9.94-.17,14.89C532.27,195.61,532.84,198.78,530.26,201.06Z" transform="translate(0 -0.5)"/><path class="cls-36" d="M519.29,176.56c0,.21,0,.42,0,.63l-1.93-.64c-.55-1-1.57-1.82-1.27-3.16h3.15A3.4,3.4,0,0,1,519.29,176.56Z" transform="translate(0 -0.5)"/><path class="cls-37" d="M457.91,265c-.53-2.35,1.84-3.73,2-5.87,1.38-.73,1.81.32,2,1.25,1,6.21,4.16,11.77,5.37,17.86,1.24,6.27,3,12.42,4,18.77.59,3.87,1.7,7.63,2,11.62.38,5.05.44,10.07.52,15.11.07,4.54,1.27,5.85,5.78,6.56,2.23.35,4.51,0,6.74.46a6.35,6.35,0,0,1,1.53.49c1.88.86,1.88,1.79.15,2.92-2.54,1.65-5.31,1.49-8.09,1.11-1.19-.16-2.31-.45-3.35.39a3.5,3.5,0,0,1-2.66,0c-4.1-.86-4.5-3.69-4.67-7.37a242.27,242.27,0,0,0-5.53-41.15,142,142,0,0,0-3.77-15.11C459,269.78,458,267.52,457.91,265Z" transform="translate(0 -0.5)"/><path class="cls-38" d="M459.84,272.06c2.25,3.63,2.82,7.81,3.61,11.85,2.38,12.13,4.91,24.24,5.53,36.65.19,3.92,1.43,7.77,1.24,11.76-.05,1,.4,1.65,1.49,1.65a2.29,2.29,0,0,1,2.37,1.31,1.86,1.86,0,0,1-2.62,0c-2.47.28-3.17-1.14-3.17-3.27,0-4.15,0-8.31-.05-12.46,0-1,.31-2.16-.6-3a217,217,0,0,0-4.83-31.46C461.88,280.73,460.83,276.4,459.84,272.06Z" transform="translate(0 -0.5)"/><path class="cls-13" d="M486.35,331.41c-3-.12-6,.08-9-.52s-4.59-2.33-4.5-5c.24-7.51-.87-15-.75-22.44,0-2.05-1.84-3.16-1.9-5-.11-4.06-2-7.9-2.31-11.67-.78-8.26-4.27-15.53-6.55-23.23-.44-1.46,1-3.65-1.49-4.42-2.82-5.34-1.82-11.13-1.92-16.78.7-3.17.09-6.39.32-9.57.07-1-.5-3.13,1.76-1.31,0,0,.19.28.08.05-.62-1.35.39-2.5.38-3.77.13-.41-.48-.12-.05-.09.09,0,.07.11,0,.32-.2.7-.17,1.61-1.17,1.67s-1-.64-1-1.31c0-5,0-10,0-14.9,2-.34,1.57,2.39,3.31,1.78-1.1-1.38-2.42-2.55-3.61-3.83l0-1.29c0-1,0-1.94,1.52-1.78,11.1,1.11,22.23.18,33.35.49-1.8,3.55-1.7,7.37-1.71,11.22,0,13.52.21,27.05-.1,40.58-.23,7.13-.79,14.24-.6,21.39.27,9.75,0,19.49,0,29.24,0,4.28.2,8.56-.17,12.83C490,327.06,489,329.69,486.35,331.41Z" transform="translate(0 -0.5)"/><path class="cls-39" d="M490.22,261.08q0-22.89,0-45.77c0-2.54.25-4.92,2.6-6.49l7.12-.6c-.05,1.42-1.37,1.67-2.21,2.36-1.27.5-2.76.29-3.91,1.22-1.39,1.36-1.24,3.16-1.25,4.84-.05,19.22-.55,38.46.12,57.66s.15,38.19-.17,57.28a7,7,0,0,1-.61,3.45,1.28,1.28,0,0,1-1.54.48c-1.23-2.14-1.05-4.52-.85-6.79.82-9.26.56-18.52.52-27.78,0-11-.66-22,.42-33A43.67,43.67,0,0,0,490.22,261.08Z" transform="translate(0 -0.5)"/><path class="cls-40" d="M498,210.05c-.11-1.39,1.44-1.05,1.92-1.84h6.4c2.54.84,5.24-.26,7.78.62h0l-2,1.25a3.19,3.19,0,0,1-3,.88C505.45,210.59,501.72,210.45,498,210.05Z" transform="translate(0 -0.5)"/><path class="cls-30" d="M514.11,208.82c-2.59-.33-5.27.63-7.78-.62C508.91,208.47,511.6,207.48,514.11,208.82Z" transform="translate(0 -0.5)"/><path class="cls-17" d="M458,211.4c1.16,1.87,3.16-.7,4.35.77.45,1.37-1.91.82-1.37,2.07.29.67,1.15.14,1.82.15-2,3.05-2,3.05-3.93-.55v15.48c1.53-.86.7-2.15,1.68-3.86a29.32,29.32,0,0,1-.25,9.47c-1.33-1.48.46-3-1.4-3.69-1,3.65.6,7.55-.91,11.12Q458,226.88,458,211.4Z" transform="translate(0 -0.5)"/><path class="cls-41" d="M491.48,148.09c0,4.82,0,9.64,0,14.46,0,.9.32,2.16-1.1,2.27-1.7.12-1.43-1.26-1.43-2.27q0-14.62,0-29.25c0-1-.16-2.29,1.55-2.18s1,1.42,1,2.19c.07,4.92,0,9.85,0,14.78Z" transform="translate(0 -0.5)"/><path class="cls-30" d="M495.47,335.91H471.53c0-.2,0-.4-.07-.6l2.62,0h2.58c2.77-1.1,5.62.07,8.43-.28,1.71-.21,3.51-1.28,5.14.29h1.3a2.65,2.65,0,0,1,1.77-.72,3.62,3.62,0,0,1,1.45.23A1,1,0,0,1,495.47,335.91Z" transform="translate(0 -0.5)"/><path class="cls-30" d="M514.73,304.91c0,.65,0,1.29,0,1.94l-.58.07c-1.21-1.08-.87-2.54-.95-3.9-.19-3.4.39-6.83-.4-10.21a18.68,18.68,0,0,1-.26-3.66c.94-24,.61-48.1.63-72.16,0-1.48.3-3-.57-4.39a2.33,2.33,0,0,0-1.62-.89c-4.45-.1-8.89-.11-13.33,0a2,2,0,0,0-1.62.88c-.64,1.56-.37,3.19-.37,4.78q0,48.6,0,97.2c0,1.69.34,3.45-.63,5a.76.76,0,0,1-1.13.07c-1.46-2.5-.8-5.27-.79-7.89.13-31.7-.19-63.41,0-95.11,0-2-.41-4.13,1-5.9,1.13-1.21,2.63-.42,3.93-.71a12.61,12.61,0,0,1,7.49-.3c2.23.47,4.43.17,6.64.32,1,.14,2.42-.39,2.65,1.35,1.2,1.23.9,2.78.9,4.26,0,19.19-.09,38.37,0,57.55,0,7.37.64,14.77-1,22.07Z" transform="translate(0 -0.5)"/><path class="cls-42" d="M516.7,212c1.66.79,1.27,2.32,1.27,3.67,0,5.34,0,10.68,0,16V265.6a5,5,0,0,0,0,3.87h0c0,1.95-.48,3.36-2.88,2.12-.13-16.39.23-32.78.46-49.17C515.62,218.89,515.28,215.39,516.7,212Z" transform="translate(0 -0.5)"/><path class="cls-43" d="M515.4,272.05a4.1,4.1,0,0,0,2.59-2.58c2,2.55.82,5.6,1.28,8.39-1.56,5.8-2.24,11.83-4.51,17.45l0-22C515.21,273,514.94,272.34,515.4,272.05Z" transform="translate(0 -0.5)"/><path class="cls-44" d="M515.4,272.05a1.26,1.26,0,0,1-.61,1.25V211.43c.89-.61,1.52-.38,1.91.61a6.06,6.06,0,0,1-.12,3.89c-1.23,2.95-.4,6.26-.41,9.37C516.11,240.89,515,256.46,515.4,272.05Z" transform="translate(0 -0.5)"/><path class="cls-43" d="M518,269.47a2.93,2.93,0,0,1,0-3.87C518,266.89,518,268.18,518,269.47Z" transform="translate(0 -0.5)"/><path class="cls-45" d="M460.65,110.12a2.62,2.62,0,0,1,0-.56c9.37.85,18.76.34,28.14.45a17.24,17.24,0,0,0,4.13-.31c2.76-.66,3.56.43,3,3-.77.18-1.15-.87-1.93-.61a14.06,14.06,0,0,0-.18,10.68c.68.43,1.52.45,2.2.87,0,.61-.19,1.14-.84,1.09a280,280,0,0,0-34.52.09,1.69,1.69,0,0,1,0-.55,5,5,0,0,0,2.22-5,42,42,0,0,1,0-5.14C463,112.29,461.84,111.22,460.65,110.12Z" transform="translate(0 -0.5)"/><path class="cls-39" d="M512.11,112.56c0-4.47,3.64-2.47,5.69-2.92s2.33,1.39,2.13,3c-.47,3.89.77,7.86-.6,11.7-1.08.54-2,0-2.81-.56-1-2.58-.56-5.29-.68-8a13,13,0,0,0-.12-2.25c-.13-.64-.34-1.35-1.13-1.34s-.87.82-.89,1.44a19.6,19.6,0,0,0,.67,6.36c.44,1.45,1,3.2-1.14,4-1.1-.09-1.4-.78-1.36-1.74C512,119.07,511.56,115.8,512.11,112.56Z" transform="translate(0 -0.5)"/><path class="cls-46" d="M511,113.38q0,3.84-.11,7.68a5.7,5.7,0,0,0-5.44.45c-2.28,1.48-4,.76-5.42-1.34-2.06-3.26-1.68-5.44,1.19-7.8a3.11,3.11,0,0,1,3.6-.21,9.77,9.77,0,0,0,4.64,1.08c.27-.08.55-.14.83-.2A.75.75,0,0,1,511,113.38Z" transform="translate(0 -0.5)"/><path class="cls-47" d="M497.28,123.68c-1.26-4.27-.34-8.62-.49-12.93,1.65-.61,3.3-.3,5.2-.21a6.06,6.06,0,0,1-1.8,3.42c-1.91,2-2,3.88,0,5.82.57,1.31,2.45,2.35.83,4.11C499.77,123.9,498.5,124.2,497.28,123.68Z" transform="translate(0 -0.5)"/><path class="cls-48" d="M499.9,119.77c-2.43-1.54-1.87-3.47-.65-5.42.66-1.06,1.46-2,2.61-3.6h-5.07c4.32-1.54,8.76-.35,13.13-.52,1.52-.06.43,2,1.5,2.44.22.11.32.25.28.4s-.1.26-.16.26a3.66,3.66,0,0,0-.57,0l-.74-.07c-.58-.64-.54-1.86-2-1.86,1.09.31,1.46,1.14,2,1.86-1.36,1.79-3.23.84-4.36.19-2.31-1.33-3.76-1.46-5.54.88-1.61,2.11-1.09,3.65.22,5.39C500.34,120,500.12,120.05,499.9,119.77Z" transform="translate(0 -0.5)"/><path class="cls-49" d="M499.9,119.77h.65c1.4,2,2.74,2.49,5,.73,1.49-1.16,3.8-1.91,5.33.56a3.17,3.17,0,0,1-.65,2.57,7.24,7.24,0,0,1-4.51,0h0a3.32,3.32,0,0,0-3.22,0h0a.88.88,0,0,1-1.32-.07C501.37,122.11,500.44,121,499.9,119.77Z" transform="translate(0 -0.5)"/><path class="cls-50" d="M494.11,110.76c1.43-.13,1.12,1.36,1.81,1.93l.09,10.94a1.7,1.7,0,0,1-1.93,0C492.4,119.35,492.77,115.05,494.11,110.76Z" transform="translate(0 -0.5)"/><path class="cls-45" d="M511.54,113.33l-.12-.66.69-.11c0,3,.1,6,.06,8.92,0,1.4.33,2.3,2,2.15a2.64,2.64,0,0,1,2.57,0l2.64.68c-2,1.12-4.17.48-6.26.42-1.47,0-1.4-1.33-1.42-2.42C511.62,119.32,511.58,116.33,511.54,113.33Z" transform="translate(0 -0.5)"/><path class="cls-46" d="M501.18,123.58l1.32.07a5.38,5.38,0,0,1-5.22,0Z" transform="translate(0 -0.5)"/><path class="cls-46" d="M505.7,123.66l4.51,0A4,4,0,0,1,505.7,123.66Z" transform="translate(0 -0.5)"/><path class="cls-46" d="M502.49,123.66a2.12,2.12,0,0,1,3.22,0Z" transform="translate(0 -0.5)"/><path class="cls-51" d="M460.65,110.12c2.28-.06,3.26,1,3.13,3.32a72.49,72.49,0,0,0,0,7.66c.11,2.32-.71,3.46-3.13,3.16A115,115,0,0,1,460.65,110.12Z" transform="translate(0 -0.5)"/><path class="cls-16" d="M519.29,176.56c0-1.05,0-2.11-.07-3.16a1.18,1.18,0,0,1,.53,0C519.83,174.51,520.2,175.63,519.29,176.56Z" transform="translate(0 -0.5)"/><path class="cls-13" d="M526.24,190.49c0-4.59-.06-9.18,0-13.77,0-1-.24-2.59,1.8-2.27,1.61.25,2.89.58,2.83,2.66-.14,5.47.63,10.95,0,16.42-.19,1.63-.4,3.38-2.45,3.59-2.27.22-2-1.84-2.34-3.15a23.25,23.25,0,0,1-.49-3.46Z" transform="translate(0 -0.5)"/><path class="cls-38" d="M490.23,335.28H476.66c-.53-2.29,1.3-1.28,1.91-1.12,3.53.93,6.86.87,10-1.34-.26-1.23-1.84-.39-2.21-1.4,3.09-4,3.25-8.77,3.24-13.57,0-11.42.25-22.85-.11-34.26-.23-7.37.75-14.69.33-22,0-.14.27-.31.41-.46,1.54,4.4.14,8.85.15,13.27,0,9.8-.46,19.61.2,29.41.43,6.51.05,13-.12,19.53C490.34,327.29,490.3,331.28,490.23,335.28Z" transform="translate(0 -0.5)"/><path class="cls-52" d="M494.08,210.77v109c1.9,3.73.55,7.72.88,11.58.13,1.47.1,3-1.52,3.9h-1.91c.18-18.21,1.33-36.44.51-54.63-1-21.58-.15-43.15-.51-64.71C491.5,213.83,491.15,211.46,494.08,210.77Z" transform="translate(0 -0.5)"/><path class="cls-53" d="M494.67,319.8c.05-11.5.14-23,.14-34.49q0-36,0-71.9c0-.73-.2-1.53.57-2,.91.81.84,1.92.91,3,.12,2,.14,4.08.14,6.13q0,40.78,0,81.57c0,9.13-.11,18.27.65,27.36a10.5,10.5,0,0,0,.42,1,2,2,0,0,1,.09.94c-.27.9-1.38,1.92.32,2.59,1.3.44,2.58,0,3.87-.09a52,52,0,0,1,5.44,0c1.61.32,3.25.45,4.88.65a.46.46,0,0,1,.07.8,5.29,5.29,0,0,1,0,.56l-16.64.1-.67-.65A79.07,79.07,0,0,1,494.67,319.8Z" transform="translate(0 -0.5)"/><path class="cls-54" d="M512.16,335.25l-.1-.68a3.16,3.16,0,0,1-.77-2.24c.16-5-.44-9.94.14-14.91.94-3.6.32-7.28.46-10.92a35,35,0,0,1,.11-4.58,6.25,6.25,0,0,1,.21-1.13c.58-1.64.27-3.35.37-5,.07-1.14-.11-2.36,1-3.2.92,4.76.1,9.59.61,14.37-.43,8.34-.85,16.68-1.32,25C512.78,333.05,513.24,334.32,512.16,335.25Z" transform="translate(0 -0.5)"/><path class="cls-38" d="M494.67,319.8q.06,7.72.13,15.46l-1.36,0c1.34-3.93.34-8,.63-12,.09-1.16,0-2.34,0-3.5Z" transform="translate(0 -0.5)"/><path class="cls-55" d="M497.31,330.77c-.92-.12-1.48-.32-1.51-1.56-.94-39.28-.16-78.57-.42-117.85a70.53,70.53,0,0,1,18.13-.05.56.56,0,0,1-.06.88c-4.56.28-9.11,1.3-13.71.35-.8-.16-2.14-.36-2.15.67,0,1.45,1.38.86,2.23.8,3.08-.24,6.17-.77,9.2.35.67.87,3.1,1.09,1.1,3-.61.34-1.16.93-2,.54a8.36,8.36,0,0,0-2.87-1.41c-2.63-.45-3.88.35-4.25,3a30,30,0,0,0-.08,6.42c1.1,14.47.32,28.95.43,43.42.07,8.36,0,16.71,0,25.07,0,5.88-.28,11.76-.21,17.64.05,4.39.37,8.78.52,13.17a10.53,10.53,0,0,1-.46,4.43,2.53,2.53,0,0,1-1,1.17c-2.35.13-1.36-1.78-1.83-2.61C498.18,328.91,498.25,330.05,497.31,330.77Z" transform="translate(0 -0.5)"/><path class="cls-54" d="M513.45,212.06l.06-.75c.89.58.67,1.49.66,2.32,0,18.75,0,37.5-.16,56.25,0,6.53-.34,13.06-.52,19.58a.74.74,0,0,1-1-.3c-1.38-4.64-.72-9.41-.48-14.06.93-17.59.38-35.18.5-52.77,0-2.26-.07-4.51.07-6.76C512.54,214.32,512.41,213,513.45,212.06Z" transform="translate(0 -0.5)"/><path class="cls-56" d="M512.84,289.46h.65l.06,3.09c-.58,2.82.69,5.79-.73,8.54A15.94,15.94,0,0,1,512.84,289.46Z" transform="translate(0 -0.5)"/><path class="cls-57" d="M494.11,110.76l0,12.89c-.73-.06-1.78,0-1.79-.92-.08-3.92-.76-7.9.94-11.67C493.32,110.87,493.81,110.85,494.11,110.76Z" transform="translate(0 -0.5)"/><path class="cls-58" d="M516.69,123.64a2.1,2.1,0,0,1-2.57,0c-.33-3.55-1.77-6.95-1.36-10.64.14-1.26.31-2,1.69-2,1.21,0,2.18.47,2.2,1.8C516.72,116.37,516.68,120,516.69,123.64Z" transform="translate(0 -0.5)"/><path class="cls-59" d="M507.86,118.19c-2.38.56-4.79,3.09-6.86.06a2.5,2.5,0,0,1,1.39-3.43C505.2,113.82,506.76,115.5,507.86,118.19Z" transform="translate(0 -0.5)"/><path class="cls-60" d="M510.23,113.31c-1.12-1-2.64-1.24-4.14-1.81,3.2-1.37,3.77-1.1,4.14,1.81Z" transform="translate(0 -0.5)"/><path class="cls-61" d="M507.65,334.64h-6.46a4.72,4.72,0,0,1-1.46-3.09,1.3,1.3,0,0,1,.67-.53c2.37-.14,4.86,1.13,7.1-.58.17-.26.32-.51.47-.78.25-1.47.91-2.81,1.09-4.29a1.46,1.46,0,0,1,1.76-1.4c.95.14,1,.89,1,1.67,0,1.59,0,3.17,0,4.75C510.79,332.15,508.68,332.86,507.65,334.64Z" transform="translate(0 -0.5)"/><path class="cls-62" d="M507.65,334.64c-.06-2.65,1.78-3.39,3.88-3.87.59.55.07,1.41.57,2,0,.6,0,1.2,0,1.81C510.61,335.81,509.12,334.87,507.65,334.64Z" transform="translate(0 -0.5)"/><path class="cls-63" d="M499.9,331.42c.59,1,1.57,1.86,1.29,3.21a5.9,5.9,0,0,1-3.87,0c-1.37-1.08-1.36-2.15,0-3.23h0A1.92,1.92,0,0,1,499.9,331.42Z" transform="translate(0 -0.5)"/><path class="cls-61" d="M499.9,331.42h-2.58c0-.21,0-.43,0-.64a11.62,11.62,0,0,1,1.39-5.56c1.26,1.9-.28,4.05,1.21,5.56a.38.38,0,0,1,.16.42c-.05.15-.11.22-.16.22Z" transform="translate(0 -0.5)"/><path class="cls-61" d="M497.32,331.41a2.67,2.67,0,0,0,0,3.23C495.26,333.56,495.27,332.49,497.32,331.41Z" transform="translate(0 -0.5)"/><path class="cls-64" d="M512.84,289.46c0,3.87,0,7.75,0,11.63v.63c-2.93-1.23-1.83-4-2.29-6.12-2-11.63-.29-23.26-.15-34.89.16-13.06.69-26.13-.34-39.19-.13-1.66-1.46-3.21-.44-5,.33-.14,0-.74-.63-1.31,1.47-1.16,2.94-.67,4.42,0,0,17.07.24,34.15,0,51.23C513.21,274.12,512.79,281.78,512.84,289.46Z" transform="translate(0 -0.5)"/><path class="cls-53" d="M511.52,295.92c0,2-.13,4.09,1.29,5.8v4.53c-.91,3.62.25,7.36-.63,11q0,7.75-.08,15.53c-.63-.54-.56-1.28-.57-2,0-1.69,0-3.37,0-5,0-.67-.21-1.3-1.07-1.23-.68.06-.84.64-.7,1.16.55,2-1.1,3.37-1.43,5.12-1.95-1.47-.89-3.47-.93-5.27a13.74,13.74,0,0,1,.31-3.44c.77-4.92.18-9.86.35-14.78.11-2.9-.19-5.8.2-8.69C508.84,297.1,509.58,295.77,511.52,295.92Z" transform="translate(0 -0.5)"/><path class="cls-56" d="M512.18,317.23c.34-3.66-.76-7.39.63-11C512.49,309.9,513.54,313.63,512.18,317.23Z" transform="translate(0 -0.5)"/><path class="cls-65" d="M508.3,322.38c.37,2.79-.74,5.59,0,8.39h0c-2.65.62-5.34,1.69-7.75-.65.13-5.31-.36-10.63-.35-15.89,0-3.85-.29-7.77,0-11.69a104.58,104.58,0,0,0,0-11.34c-.17-4.18.31-8.52.32-12.79.05-14.22-.08-28.44.07-42.66.06-5.26-1.05-10.43-.72-15.7.29-4.39,3.56-6.4,7.5-4.52,1,.49.67,1.81,1.56,2.32a6.7,6.7,0,0,1,1,4c0,5.89.39,11.77-.45,17.64-.52,3.64.51,7.24.56,10.88.16,11.57-.49,23.11-.79,34.66-.14,11.84-1,23.66-.63,35.51A2.81,2.81,0,0,1,508.3,322.38Z" transform="translate(0 -0.5)"/><path class="cls-66" d="M508.3,285c1.16-22.36.32-44.74.64-67.11a1.35,1.35,0,0,1,.65-1.29c3.31,8.46,1.53,17.3,1.92,26,.55,12.1-.34,24.19-.88,36.26-.26,5.84.58,11.42.89,17.12l-2.58,1.94c-.68-3.14-.11-6.32-.32-9.48C508.55,287.24,508.93,286.05,508.3,285Z" transform="translate(0 -0.5)"/><path class="cls-67" d="M513.38,215.23c-1.47.72-2.95-.32-4.42,0-3-1.22-6.07-.7-9.11-.26-1.25.18-2.61.81-3.56-.4a2.22,2.22,0,0,1,0-2.47c.8-1.19,2.2-.8,3.26-.58a23.79,23.79,0,0,0,9.87,0,5.33,5.33,0,0,1,4.06.54C513.43,213.11,513.4,214.17,513.38,215.23Z" transform="translate(0 -0.5)"/><path class="cls-53" d="M500.55,330.12c2.49,1.35,5.18.31,7.75.65-2.62,2.6-5.55,1-8.39.64v-.64Z" transform="translate(0 -0.5)"/><path class="cls-56" d="M508.3,285c1.46,4.24.25,8.61.64,12.9,0,7.06,0,14.13,0,21.19,0,1.12.42,2.38-.63,3.33Z" transform="translate(0 -0.5)"/><path class="cls-68" d="M423.61,139.91" transform="translate(0 -0.5)"/><path class="cls-3" d="M602.39,138.84a2.29,2.29,0,0,0-2.09-.53,37.22,37.22,0,0,1-8.24.22c-4.61.18-9.26-.53-13.82.61-7.37,1.92-14.92,1.9-22.45,2l-3.81,0c-4.17,0-8.42-.37-12.19,2.08a2.13,2.13,0,0,0-.82.67.84.84,0,0,0,.26,1,1.64,1.64,0,0,0,1,.18c4-.77,8-2.27,12.14-2.31h2.5l11.41,0a44.88,44.88,0,0,0,6.36-.6c14.14-1.75,32.87-2.23,32.85-2.9C605.51,139.12,605,139,602.39,138.84Z" transform="translate(0 -0.5)"/><path class="cls-6" d="M718.25,104.59l.75-1.73c.59-1.8,1.89-3.41,1.49-5.46-.27-1.38-.14-3.15-2.33-3-.74,1.47.35,2.91,0,4.43-1,4.62-3.83,7.36-8.22,8.84a55.15,55.15,0,0,1-20,2.56,15.91,15.91,0,0,0-3.77.36c-14.49,2.85-29.15,2.1-43.78,2.18a2.29,2.29,0,0,1-1.72-.58c1.65-1.73,3.93-2.43,5.89-3.22,5.46-2.21,10.85-4.61,16.57-6.16,3.13-.84,6.09-2.33,9.31-3a2.68,2.68,0,0,0,2.23-2,1.49,1.49,0,0,0-1.3-.74,106.19,106.19,0,0,0-14,4.42h0c-5.3,2-11,3.23-15.76,6.55l-2,1.09c-.86.16-2.82,2.16-4.17,4.16.29,1.21,1.33,1.52,2.41,1.71a72.15,72.15,0,0,0,18.72.76c3.3-.3,6.63-.55,9.94-.89,8.55.09,17-.89,25.55-1.54a93.37,93.37,0,0,0,13.32-1.79C711.54,110.58,716,109,718.25,104.59Z" transform="translate(0 -0.5)"/><path class="cls-6" d="M591.61,105.86c-19.42,10.28-28,15.11-32,17.53-2.79,1.68-13.09,7.46-14.43,8.35-.75.5-1.87.65-1.79,1.94a1.7,1.7,0,0,0,.79.5c1.69.19,3-.68,4.38-1.51,9.85-5.95,19.93-11.47,29.92-17.15,5.31-3,10.74-5.82,16-8.86,4-2.31,8.24-4.23,12.27-6.53,1.17-.59,2.16-1.58,3.54-1.74,2.6-.35,4.45-2.32,6.77-3.27a5.85,5.85,0,0,1,2-1.48c.51-.23,1-.5,1.48-.75,1.47-.55,3-1,4.4-1.64a3.14,3.14,0,0,0,1.78-1.42,1.77,1.77,0,0,0,0-.94,1.06,1.06,0,0,0-.42-.4,1.54,1.54,0,0,0-1.28.1c-7.69,3.44-9.23,4.57-9.23,4.57-2.14,1.13-5.45,2.86-9.61,5-1.9,1-2.61,1.29-3.9,2C599.74,101.35,596.08,103.27,591.61,105.86Z" transform="translate(0 -0.5)"/><path class="cls-3" d="M608.18,138.9c7.85-.5,15.74-.71,23.22-3.72a27.35,27.35,0,0,0,6-3.45c2.72-2,4.25-4.71,2.91-8.32a13,13,0,0,0-3.84-3.31,24.64,24.64,0,0,0-4.92-1.24,43.75,43.75,0,0,0-9.21.07l-.69.07s-.7.09-1.45.24a78.9,78.9,0,0,0-8.91,3.1c2.07,1.78,4.17,1.21,6.49.42,6.36-2.16,12.75-2.56,18.92.75,2.31,1.25,2.56,2.84,1,5a12.26,12.26,0,0,1-6.23,4.22c-4.76,1.57-9.52,3.57-14.68,3.29a44.11,44.11,0,0,0-12.48,1.42c-.85.2-2.23,0-1.69,1.73A17.11,17.11,0,0,0,608.18,138.9Z" transform="translate(0 -0.5)"/><path class="cls-6" d="M541.44,135.65c6.23-4.51,13.11-7.9,19.74-11.72,7-4,14.14-7.65,20.84-12.13-3.4.21-6,2.46-8.77,4-8.92,4.83-17.79,9.77-26.44,15.08-5.78,3.54-11.77,6.77-17.17,10.95a3,3,0,0,0-1.34,1.72c1.39.78,2.24-.5,3.32-.9,2.89-1.66,5.36-4,8.46-5.37A2,2,0,0,0,541.44,135.65Z" transform="translate(0 -0.5)"/><path class="cls-6" d="M672.27,97.83l1.41.07c1.68.91,3.47.43,5-.15,6.94-2.69,14.32-4,21.42-6.18a18.59,18.59,0,0,1,14,1c1.42.71,2.66,1.7,4.15,2.29a3.78,3.78,0,0,1,1.28,5.44,3.67,3.67,0,0,0-.57,2.55c3.76-4.42,2.26-9.09-3.94-12.25-3.36-2.16-15.61-1.29-16.84-.64-2.35.58-25.09,6.46-25.84,7.13A.71.71,0,0,0,672.27,97.83Z" transform="translate(0 -0.5)"/><path class="cls-6" d="M645.47,100.1c4.91-4.22,5.55-9.32,1.42-12.25s-9-3.22-13.78-1.64c-1.78.58-3.55,1.23-5.37,1.69-.52.41-1.18.77-.49,1.57,1.87,1,3.74.52,5.51-.17a16.49,16.49,0,0,1,12.59.25,9.73,9.73,0,0,1,1.48,1c2.06,2.19-.19,4.11-.38,6.16-.14.24-.27.49-.41.74C645.64,98.27,644.66,99,645.47,100.1Z" transform="translate(0 -0.5)"/><path class="cls-11" d="M645.47,100.1c-.16-1.14,1-1.63,1.24-2.54-1.12-.73-1.78.06-2.39.8-4.59,5.59-10.93,8.37-17.06,11.67-3,1.64-6.5,1.52-9.3,3.44-.44.73-.85,1.45-.31,2.31a71.92,71.92,0,0,0,13-4.07c1.4-.63,2.58-1.66,4-2.25a42.25,42.25,0,0,0,9.5-7.4Z" transform="translate(0 -0.5)"/><path class="cls-6" d="M552.39,142.77c-4.4-.8-8.41,1.08-12.57,1.94-3.1-.11-5.9,1.27-8.87,1.81a7.71,7.71,0,0,0-.82.24,4.06,4.06,0,0,1-3.08.09,8.68,8.68,0,0,1-1.23-.85c-.79.26-1.34.76-1,1.64s1.11.86,1.86.93c3.09.27,6-.59,8.89-1.44C541.14,145.52,546.79,144.21,552.39,142.77Z" transform="translate(0 -0.5)"/><path class="cls-6" d="M627.94,89l.78-1.07c-4.79-.15-8.63,1.95-12,5.26,3.46-1.65,6.84-3.55,10.71-4.09C627.7,89.37,627.85,89.32,627.94,89Z" transform="translate(0 -0.5)"/><path class="cls-6" d="M525.82,146a1.31,1.31,0,0,0,.59,1.26.58.58,0,0,0,.77.09c1.22-3.07,4.88-3.61,6.37-6.4a1,1,0,0,0-.18-.84l-3.11,1.42C529,143.27,526.72,143.91,525.82,146Z" transform="translate(0 -0.5)"/><path class="cls-6" d="M718.3,94.33c-2.21-3.54-5.73-4.75-9.5-5a24.27,24.27,0,0,0-12,1.88,58.25,58.25,0,0,1-9.6,2.74c-4.27,1-8.17,3.34-12.62,3.67a9,9,0,0,1-4.19,2,94.84,94.84,0,0,0-13.51,4.53,84.38,84.38,0,0,1-8.18,3c-3.05.93-5.42,3.13-8.5,3.85a1.6,1.6,0,0,0-1.26,1.95c.22.87,1.13.79,1.88.79,12.73.07,25.59.93,38.14-1,8-1.23,16.15-.63,24-2.34,4.08-.89,8.43-1.26,11.88-4.37C718.83,102.45,719.89,99.4,718.3,94.33Z" transform="translate(0 -0.5)"/><path class="cls-6" d="M618.24,113.7a5.33,5.33,0,0,1,3.34-.64,5,5,0,0,0,4.24-1.52c1.67-1.65,4.17-2.14,6.19-3.05,4.56-2,8.26-5,12-8.18,1-.81.94-2.71,2.72-2.75h0c.17-2.53,1.69-4.94.62-7.57l-1.21-.82c-6.66-2.74-13.13.18-19.68.64l-1.88.69c-1,1.94-3,1.32-4.47,1.89l-1.23.68c-.49.64-1.3.8-1.9,1.28-2.59.49-4.13,3.31-7,3.24a9.58,9.58,0,0,1-3.16,1.92c-4.44,2.28-8.89,4.53-13.31,6.84-3.85,2-7.69,4.08-11.49,6.2-5.54,3.1-11,6.28-16.55,9.42-5.06,2.88-10.12,5.77-15.2,8.62-2,1.11-3.66,2.89-6.07,3.17-1.42,1.18-3.4,1.54-4.54,3.16-.46,1.23-1.5,2-2.22,3.05-1.42,2-.71,3.71,1.64,4.08h0c2.3-1.07,4.52-2.36,7.12-2.52,1-2.05,2.8-2.56,4.89-3.35,4-1.47,8.41-1,12.07-3.72,2.25-1.68,5.28-2.1,8-3,4.31-1.45,8.36-3.5,12.5-5.32,2.81-1.23,5.79-1.94,8.66-3q10-3.62,19.55-8.07C613.9,114.13,616.34,115.25,618.24,113.7Z" transform="translate(0 -0.5)"/><path class="cls-6" d="M626.45,89.8c4.57.93,8.8-1.51,13.33-1.36,2.16.08,4.09,2,6.35.72a15.29,15.29,0,0,0-12.69-.94A11.27,11.27,0,0,1,627,89l-.47.1C626.48,89.31,626.46,89.56,626.45,89.8Z" transform="translate(0 -0.5)"/><path class="cls-6" d="M540.33,136.88c1.17-1.21,3.12-1.42,3.89-3.13l-.82-.1a51.68,51.68,0,0,0-10,6.46l0,.7c1.87,1.31,2.73-.57,3.93-1.32A7.44,7.44,0,0,0,540.33,136.88Z" transform="translate(0 -0.5)"/><path class="cls-6" d="M620.1,92.38c1.62-.3,3.92,1.06,4.47-1.89Z" transform="translate(0 -0.5)"/><path class="cls-11" d="M606.84,99.5A3,3,0,0,0,610,97.58C608.65,97.71,607.8,98.69,606.84,99.5Z" transform="translate(0 -0.5)"/><path class="cls-6" d="M617,94.34c.92,0,1.83,0,1.9-1.28A1.87,1.87,0,0,0,617,94.34Z" transform="translate(0 -0.5)"/><path class="cls-3" d="M578.31,140.09c4.61-1.1,9.3-.35,14-.61,2.7-.87,5.55.26,8.25-.6l1.88,0c3.57-.52,7-2,10.66-2a40.55,40.55,0,0,0,14.74-2.15c3.84-1.39,7.55-2.48,10.45-5.45,2.6-2.64,1.9-4.79-1.18-6.67-5.81-3.55-12-2.58-17.94-1.49-4.13.77-6.28.58-7.93.89-12.68,2.39-13,7.55-24.26,9.9-1.75.36-5.67,2.35-14,4.54a4.65,4.65,0,0,0-1.66.91c-1,.72-2,1.57-1.44,2.89.65,1.58,2,.75,3,.47C574.63,140.24,576.4,139.6,578.31,140.09Z" transform="translate(0 -0.5)"/><path class="cls-3" d="M610.63,122.15a7.43,7.43,0,0,1-3.7.29,18.34,18.34,0,0,0-2.38-.66c-.95-.06-1.66.17-3.52.89s-2.86,1.18-3.37,1.35c-6.38,2.17-12.66,4.63-18.93,7.11-5.13,2.7-10.83,4-16,6.7-2.43,1.26-5.27,1.84-7.15,4.11a84.47,84.47,0,0,0,22.7-1.85,6.22,6.22,0,0,0-5.71.08c-.74.31-1.66,1.09-2.22.08s.48-1.6,1.25-2.19c2.25-1.73,5.16-2.11,7.6-2.55,3.84-.68,6.87-3.14,10.68-3.75,4.07-.65,7.79-2.69,11.53-4.51a4.71,4.71,0,0,0,1.8-1.2,4.91,4.91,0,0,1,4.67-2.06C609.23,124.14,610,123.21,610.63,122.15Z" transform="translate(0 -0.5)"/><path class="cls-6" d="M540.33,136.88c-2.64.71-4.17,3.47-6.94,3.93-1.54,1.1-3,2.22-4.6,3.28-1.11.76-2,1.59-1.67,3.12a3.26,3.26,0,0,0,3.09,0h0c2.89-1,5.86-1.72,8.77-2.67,0-.18.08-.36.11-.54-1.89-1.26-2.6-2.68-.41-4.29A3.68,3.68,0,0,0,540.33,136.88Z" transform="translate(0 -0.5)"/><path class="cls-6" d="M555.61,141.94,579,131.76a2.27,2.27,0,0,0-2.65-.26c-8.08,3.29-16.65,5.25-24.35,9.54a.69.69,0,0,0-.23.88Z" transform="translate(0 -0.5)"/><path class="cls-6" d="M555.67,141.92v-.47c-1.9-1.4-9-1.21-9-1.21a22.56,22.56,0,0,0-5.88,2c-2.88,1.67-4.47,4-3.92,4C546.66,145.24,554.9,141.89,555.67,141.92Z" transform="translate(0 -0.5)"/><path class="cls-6" d="M539,144.58a17.73,17.73,0,0,0-8.77,2.67,33.26,33.26,0,0,0,9.59-2.54Z" transform="translate(0 -0.5)"/><path class="cls-3" d="M600.51,138.88c-2.74.31-5.58-.72-8.25.61C595,139.21,597.84,140.19,600.51,138.88Z" transform="translate(0 -0.5)"/><path class="cls-6" d="M647.34,90a27.89,27.89,0,0,0-.62,7.57C647.2,95.05,650.27,92.77,647.34,90Z" transform="translate(0 -0.5)"/><path class="cls-6" d="M546.05,141.44h5.7c4.54-1.68,9.06-3.47,13.65-5s8.77-4,13.57-4.69l25.79-9.65c1.34.15,2.3-.68,3.33-1.33l3.1-1.93c1.81-1.76,4.25-2.16,6.42-3.15l.63-2c-5.76-1.06-10.32,2.51-15.26,4.36-6.12,2.3-12.18,4.71-18.41,6.75-5.13,1.67-9.87,4.57-15.05,6.29-3.45,1.15-7,2.07-9.94,4.42-.08.07-.22.16-.28.13-3.5-1.55-5.94,2.19-9.14,1.9C547.29,137.29,546.09,138.68,546.05,141.44Z" transform="translate(0 -0.5)"/><path class="cls-6" d="M530.21,147.25l-3.09,0-.71,0A2.76,2.76,0,0,0,530.21,147.25Z" transform="translate(0 -0.5)"/><path class="cls-68" d="M558.82,139.65" transform="translate(0 -0.5)"/></g><g id="Layer_5" data-name="Layer 5"><path class="cls-69" d="M376.94,173.32a3.63,3.63,0,0,1,1.11-.24,14.74,14.74,0,0,1,2.28.51,49.88,49.88,0,0,1,8.41,3.66c4.61,2.58,9.21,5.16,13.7,7.93a129.53,129.53,0,0,1,25.18,20.63,123.75,123.75,0,0,1,16.62,21.66c1,1.67,2,3.35,3.05,5a112.14,112.14,0,0,1,7.17,14.75c1.09,2.52,2.2,5,3.41,7.48a44.28,44.28,0,0,1,2.62,6.53A217.53,217.53,0,0,1,466.76,288c1,5.77,2,11.55,2.45,17.4.27,3.31.32,6.63.47,9.95.05,1.1.53,8.27,1.32,9.14s31,0,39,0c1,0,1.34-2.94,1.3-3.7-.3-5.3,3.37-18.37,4.7-29.3a162.5,162.5,0,0,1,5.09-24.75,71.14,71.14,0,0,1,4.15-10.94c.89-1.81,1.54-3.74,2.31-5.6,1-2.47,2-5,3.12-7.38A154.07,154.07,0,0,1,549,213.38a123.56,123.56,0,0,1,22.3-21.53,187.65,187.65,0,0,1,21.42-13.62,64.67,64.67,0,0,1,10-4.49,19.36,19.36,0,0,1,2.83-.65.73.73,0,0,1,.62.33.74.74,0,0,1-.14.69c-.86.88-1.73,1.77-2.66,2.57-3.56,3.06-7.2,6-10.72,9.12a177.37,177.37,0,0,0-30,33.82A162.31,162.31,0,0,0,546.89,249c-2.1,5.13-3.91,10.35-5.52,15.66s-2.87,10.43-4,15.71c-1,4.43-1.68,8.92-2.3,13.41-.52,3.81-1,7.63-1.15,11.47-.12,2.36-.49,4.7-.67,7.05-.13,1.66-.2,3.32-.28,5a12.69,12.69,0,0,0,0,1.51,5.87,5.87,0,0,0,4.38,5.33,16.43,16.43,0,0,0,8.88.07,5.56,5.56,0,0,0,4-3.65,17.3,17.3,0,0,0,.82-3.41c.75-5.66,1.43-11.33,2.16-17a22.27,22.27,0,0,1,.48-2.54c1.11-4.55,2.16-9.13,3.44-13.64a96.58,96.58,0,0,1,5.08-13.52,111.38,111.38,0,0,1,13.47-22.61,116.33,116.33,0,0,1,25.6-24.22A132.73,132.73,0,0,1,641.53,205c.66-.18,1.33-.33,2-.45a6.56,6.56,0,0,1,3.38,0c-.09.33-.07.71-.25.88a25.58,25.58,0,0,1-2.54,2.13c-3.22,2.22-6.49,4.36-9.7,6.59a201.65,201.65,0,0,0-16.94,12.9,180.62,180.62,0,0,0-15.85,15.08,118.5,118.5,0,0,0-23.78,38.27A131.88,131.88,0,0,0,572.27,300c-.39,1.9-.67,3.82-.89,5.74-.42,3.76-.8,7.53-1,11.3a12.93,12.93,0,0,0,.16,2.91c.36,2.4,2,3.84,4.44,4.57a10.31,10.31,0,0,0,2.71.38c1.06,0,2.13,0,3.19,0h162c2.28,0,4.56,0,6.84,0a12.1,12.1,0,0,1,2.32.31,2.71,2.71,0,0,1,2.23,2.42,26.19,26.19,0,0,1,0,7,2.8,2.8,0,0,1-2.43,2.48,21.43,21.43,0,0,1-3.1.32c-1.43.05-2.87,0-4.3,0H264.38q-14.08,0-28.15,0c-1.5,0-3-.09-4.49-.22a3.33,3.33,0,0,1-3.42-3.52,49,49,0,0,1,0-5.28,3.09,3.09,0,0,1,2.92-3.31,12.94,12.94,0,0,1,2.33-.2c3.26,0,6.51,0,9.77,0H390.72c4.24,0,8.47,0,12.71-.05a18.39,18.39,0,0,0,3.39-.35,6.55,6.55,0,0,0,5.17-5.87,20.44,20.44,0,0,0,0-3.13c-.17-2.27-.45-4.53-.61-6.81a87.84,87.84,0,0,0-2.93-16.32,116.68,116.68,0,0,0-27.41-50A194,194,0,0,0,359,221.88q-8.71-6.8-18-12.8c-1.09-.71-2.14-1.48-3.17-2.27a5.69,5.69,0,0,1-1.05-1.14.71.71,0,0,1,.42-1.09,4.45,4.45,0,0,1,1.36-.05,19.53,19.53,0,0,1,2.48.52,132.19,132.19,0,0,1,38.44,17.47A115.76,115.76,0,0,1,405.22,246a113.44,113.44,0,0,1,15.48,25.7,129.82,129.82,0,0,1,7.54,23.95,91.25,91.25,0,0,1,1.54,9.43c.24,2,.61,4,.85,6.06.28,2.32.46,4.66.72,7a10.76,10.76,0,0,0,.48,2.11,5.85,5.85,0,0,0,3.91,3.88,18.73,18.73,0,0,0,9.8.17A6.12,6.12,0,0,0,450,320a11.69,11.69,0,0,0,.39-2.63c0-1.76,0-3.52-.1-5.28-.15-2.53-.45-5.06-.57-7.59-.18-3.59-.91-7.11-1.36-10.66-.65-5.1-1.6-10.16-2.64-15.19-.59-2.87-1.38-5.7-2.11-8.53a160.81,160.81,0,0,0-13.41-34.74A167.4,167.4,0,0,0,406,200.68a228.26,228.26,0,0,0-25-23.19c-.6-.48-1.16-1-1.73-1.52A8,8,0,0,1,376.94,173.32Z" transform="translate(0 -0.5)"/><path class="cls-70" d="M245.85,495.3c-1.95-.06-3.91-.1-5.86-.17a13.84,13.84,0,0,1-5.8-1.58c-2-1-2.64-2.31-2.11-4.47a12.67,12.67,0,0,1,1-2.73,19.39,19.39,0,0,0,2.22-9.41c0-1.36.15-2.73.25-4.09a16.42,16.42,0,0,0-.4-6,13.66,13.66,0,0,0-1.25-3.06,4.3,4.3,0,0,0-6.86-.95,7,7,0,0,0-2.37,4.37,35.11,35.11,0,0,0-.37,4.09c-.07,2.41-.05,4.82,0,7.23a15.66,15.66,0,0,0,1.06,5.53c.42,1.1.71,2.23,1,3.36a6.29,6.29,0,0,1,.2,1.15,4.13,4.13,0,0,1-2.5,4.62,17,17,0,0,1-5.2,1.65,25.73,25.73,0,0,1-2.92.22c-1.89,0-3.78,0-5.67,0a20.26,20.26,0,0,1-8-1.67,2.28,2.28,0,0,1-.36-.15c-2.69-1.23-3.39-3.27-2-5.91a14.24,14.24,0,0,1,1.5-2.28,13.25,13.25,0,0,0,2.85-8c.11-3.71.07-7.43.08-11.14a6.8,6.8,0,0,0-1.92-4.78c-.35-.38-.71-.76-1-1.17-1.43-1.85-1.29-3.43.54-4.92a9.5,9.5,0,0,1,2.5-1.5,59.33,59.33,0,0,1,8.3-2.85c1.84-.43,3.65-1,5.47-1.49a11.21,11.21,0,0,1,3.45-.54,3.24,3.24,0,0,1,3.22,2.37c.21.62.35,1.26.58,1.87.73,1.95,2.22,2.54,4,1.57a17.83,17.83,0,0,0,1.91-1.35c.95-.68,1.87-1.42,2.85-2.05,4-2.62,8.49-3.18,13.14-2.65a12.07,12.07,0,0,1,7.14,3.72c.56.55,1,1.18,1.61,1.7a3,3,0,0,0,3.93.49,9.41,9.41,0,0,0,1.76-1.23,20.56,20.56,0,0,1,8.66-4.34,17.47,17.47,0,0,1,10.22.35,11.6,11.6,0,0,1,8.05,9.47,26,26,0,0,1,.19,7.21c-.4,4.16-.26,8.33-.28,12.5a10.11,10.11,0,0,0,2.09,6.18,7.21,7.21,0,0,0,.47.62,5,5,0,0,1,1.07,4.21,5.33,5.33,0,0,1-2.95,4.33,12.29,12.29,0,0,1-5.41,1.52c-3.58.06-7.16.06-10.74,0a13.56,13.56,0,0,1-6.3-1.92,6.31,6.31,0,0,1-1.66-1.34,3.64,3.64,0,0,1-.87-3.45,15.47,15.47,0,0,1,.83-2.4,27.65,27.65,0,0,0,2.41-12.16,38.9,38.9,0,0,0-.36-6.82,9.73,9.73,0,0,0-1.23-3.27,4.3,4.3,0,0,0-7.56,0,9.85,9.85,0,0,0-1,2.51,8,8,0,0,0-.28,2.12,90.78,90.78,0,0,0,.25,10.94,19.28,19.28,0,0,0,1.4,5.27c.37.9.77,1.8,1.06,2.72.95,3-.06,5.28-2.95,6.53a15,15,0,0,1-6.06,1.39h-5.08Z" transform="translate(0 -0.5)"/><path class="cls-71" d="M244.52,349.31c2.34,0,4.69-.05,7,0a7.77,7.77,0,0,1,2.66.52,4.19,4.19,0,0,1,1.1,7.28c-.37.26-.73.56-1.12.79a8.63,8.63,0,0,0-4.08,6.14,38.18,38.18,0,0,0-.65,7.39q0,13.77,0,27.55a41.47,41.47,0,0,1-.58,7.79A16.23,16.23,0,0,1,248,410a3.14,3.14,0,0,1-3.44,2,7.14,7.14,0,0,1-2.95-.93,28.66,28.66,0,0,1-4.57-3.32q-4.89-4.22-9.79-8.4c-4.86-4.15-9.7-8.3-14.57-12.43-1.29-1.09-2.65-2.12-4-3.12a10.42,10.42,0,0,0-2-1.17,3.94,3.94,0,0,0-5.2,1.73,8.32,8.32,0,0,0-.93,2.55,29.75,29.75,0,0,0,.07,10.31,9.66,9.66,0,0,0,3.76,6.2,12.81,12.81,0,0,1,1.19,1,4.14,4.14,0,0,1,1.28,2.56,3.43,3.43,0,0,1-2.48,4.11,16.51,16.51,0,0,1-6.1,1.18c-2.61,0-5.21,0-7.82,0a15.09,15.09,0,0,1-5.9-1.15,8,8,0,0,1-1.55-.83,3.28,3.28,0,0,1-.82-4.66,9,9,0,0,1,1.88-2,9.78,9.78,0,0,0,3.93-7.54c.21-2.27.29-4.55.42-6.83.08-1.36.15-2.73.24-4.09a46.51,46.51,0,0,0-.09-8.59,16.44,16.44,0,0,1-.13-2.53,43.73,43.73,0,0,0-.86-9.13,15.24,15.24,0,0,0-.79-2.81,8.16,8.16,0,0,0-3.59-4.24c-.45-.26-.93-.49-1.35-.79a8.92,8.92,0,0,1-1.49-1.24,3.06,3.06,0,0,1,.61-4.88,9.7,9.7,0,0,1,4.14-1.64,28.38,28.38,0,0,1,3.31-.26c3.06,0,6.12,0,9.18,0,.59,0,1.18,0,1.76.08a6.28,6.28,0,0,1,3.77,1.43c3.38,2.75,7,5.23,10.2,8.19,2.58,2.38,5.4,4.5,8.11,6.75s5.28,4.44,7.93,6.66a13.2,13.2,0,0,0,1.7,1.3,12.91,12.91,0,0,0,2.31,1,3.45,3.45,0,0,0,3.72-1.09,4.84,4.84,0,0,0,1.34-3,21.58,21.58,0,0,0-.35-7,8.62,8.62,0,0,0-3.54-5.43,15.18,15.18,0,0,1-2-1.82c-1.5-1.46-1.07-4.76,1.11-5.88a8.56,8.56,0,0,1,3.92-1.07h7Z" transform="translate(0 -0.5)"/><path class="cls-70" d="M164.68,495.05c-1.11,0-2.22.06-3.32,0a19.88,19.88,0,0,1-3.87-.47,50.93,50.93,0,0,0-6.11-1.26,28.42,28.42,0,0,1-7.6-2.41,7.81,7.81,0,0,1-3.13-2.59c-.23-.32-.47-.63-.66-1a24.92,24.92,0,0,1-3.59-13,7.45,7.45,0,0,1,.4-2.29,3,3,0,0,1,4.59-1.56,8.34,8.34,0,0,1,2,1.88,45.52,45.52,0,0,1,2.9,4.16,18.08,18.08,0,0,0,8,7.18,13.85,13.85,0,0,0,4.09,1.26,25.44,25.44,0,0,0,5.85.1,8,8,0,0,0,4.29-1.73,3.8,3.8,0,0,0,.42-6,9.5,9.5,0,0,0-4.1-2.55c-2.79-.91-5.56-1.85-8.34-2.75a30,30,0,0,1-14.31-9.77,16.16,16.16,0,0,1-3.77-9.24,17.14,17.14,0,0,1,4-12.7,24,24,0,0,1,12.42-8.05c1.31-.37,2.63-.76,4-1.06a16.92,16.92,0,0,1,3.07-.49,30.09,30.09,0,0,1,10.26.91c1,.32,2.17.42,3.26.65a22.94,22.94,0,0,0,6,.36c.52,0,1-.05,1.56-.11a6.43,6.43,0,0,1,5.51,1.95A19.4,19.4,0,0,1,194,444.64a5.72,5.72,0,0,1-1.53,5.41,4.46,4.46,0,0,1-5.37,1,14.07,14.07,0,0,1-2.56-1.77c-1-.88-2-1.86-3-2.8a26.84,26.84,0,0,0-7.4-5,11.63,11.63,0,0,0-5.9-1,6.42,6.42,0,0,0-3,1,4.94,4.94,0,0,0-1.26,7.45,9.42,9.42,0,0,0,1.88,1.68,18.52,18.52,0,0,0,5.5,2.45,88.19,88.19,0,0,1,12.93,4.37,21.12,21.12,0,0,1,7.46,5.86,14.5,14.5,0,0,1,3.18,7.84,17.84,17.84,0,0,1-6.6,16.49,25.74,25.74,0,0,1-11.75,5.87,27.45,27.45,0,0,0-3.22.78,19,19,0,0,1-6.16.86h-2.54Z" transform="translate(0 -0.5)"/><path class="cls-71" d="M585,367.43c1.89,0,3.78,0,5.67,0a13.7,13.7,0,0,1,5.5,1.19,3.47,3.47,0,0,1,2,5c-.29.66-.64,1.28-.94,1.93a5.74,5.74,0,0,0-.18,4.56,18.52,18.52,0,0,0,2.9,5.28,3.84,3.84,0,0,0,2.2,1.52,3.45,3.45,0,0,0,3.26-.89,14.34,14.34,0,0,0,3.9-6,6,6,0,0,0-.15-4.21c-.22-.54-.46-1.08-.68-1.62a9.82,9.82,0,0,1-.47-1.28,3.31,3.31,0,0,1,2.18-4.38,12.71,12.71,0,0,1,5.12-1.08c2.22,0,4.43,0,6.65,0a13.4,13.4,0,0,1,3.09.38,4.18,4.18,0,0,1,3.28,3.26,2.56,2.56,0,0,1-.94,2.79,15.55,15.55,0,0,1-2.47,1.56,16.14,16.14,0,0,0-7.56,7.61c-1.36,2.66-2.88,5.25-4.32,7.88s-2.68,5.06-4.15,7.52c-2.11,3.51-3.84,7.26-6.37,10.51a11.71,11.71,0,0,1-2.16,2.23,4.07,4.07,0,0,1-5.38-.17,24.74,24.74,0,0,1-4.71-5.19c-2.19-3.16-4.37-6.32-6.58-9.46a10.81,10.81,0,0,0-1.53-1.77,3.76,3.76,0,0,0-5.59,0,22.59,22.59,0,0,0-3.92,5.09c-1.63,2.66-3.18,5.38-4.74,8.09a12.1,12.1,0,0,1-2.43,3,4.44,4.44,0,0,1-6.6-.18,22.19,22.19,0,0,1-2.15-2.76c-1-1.39-1.88-2.82-2.81-4.23-1.52-2.35-3-4.71-4.56-7.06q-4.71-7.29-9.46-14.58c-.67-1-1.45-2-2.18-3a8.56,8.56,0,0,0-3.3-2.69,14.51,14.51,0,0,1-2.23-1.2,2.68,2.68,0,0,1-.64-4.21,5.27,5.27,0,0,1,1.79-1.46,14.38,14.38,0,0,1,3.31-1.13,36.42,36.42,0,0,1,8.72-.88c2.34.08,4.69,0,7,0a15.44,15.44,0,0,1,7.18,1.62c.4.22.8.44,1.17.69a3.05,3.05,0,0,1,1.41,3,15,15,0,0,1-.51,2.28,6.14,6.14,0,0,0,.42,4.55,25,25,0,0,0,3.6,5.56,3.66,3.66,0,0,0,5.9-.09,14,14,0,0,0,1.65-2.63,4.55,4.55,0,0,0-.58-5.13c-.68-.86-1.5-1.62-2.26-2.43a13.07,13.07,0,0,1-1.19-1.28,2.51,2.51,0,0,1,.64-3.75,12.32,12.32,0,0,1,4.15-1.67,37,37,0,0,1,9.51-.77Z" transform="translate(0 -0.5)"/><path class="cls-71" d="M491.62,359.54c-.11,2.4-.23,4.81-.31,7.22,0,1.1,0,2.21,0,3.32a5.46,5.46,0,0,0,.82,2.77,3.15,3.15,0,0,0,4.4,1.19,7.76,7.76,0,0,0,2.33-2.05,13.4,13.4,0,0,1,5.36-3.81,8.42,8.42,0,0,1,2.44-.66,31.1,31.1,0,0,1,7.59.16,13.25,13.25,0,0,1,6.43,3.1,9.19,9.19,0,0,1,3.1,5.51,46.22,46.22,0,0,1,.81,8.14c0,4,.21,7.94.32,11.91a9.59,9.59,0,0,0,1.32,4.65c.56.95,1.24,1.83,1.83,2.77a14.59,14.59,0,0,1,1.36,2.36,3.42,3.42,0,0,1-1.59,4.51,9.4,9.4,0,0,1-2.16.87,20.73,20.73,0,0,1-5.6.77c-3.12,0-6.25,0-9.37,0a17.15,17.15,0,0,1-6.1-1.23,3.51,3.51,0,0,1-2.52-4.1,7.3,7.3,0,0,1,.94-3.16,19.71,19.71,0,0,0,2.47-10.13c0-1.63,0-3.25,0-4.88a15.48,15.48,0,0,0-1.3-5.88,8.26,8.26,0,0,0-2.22-3.16,6.05,6.05,0,0,0-9.18,1.29,8.91,8.91,0,0,0-1.5,4.79c0,3.45,0,6.9.08,10.35a14.64,14.64,0,0,0,1.8,6.54,15.31,15.31,0,0,1,1.46,4.22,3.1,3.1,0,0,1-1.18,3.29,8.9,8.9,0,0,1-2.39,1.28,14.1,14.1,0,0,1-4.61.75c-3.38,0-6.77,0-10.16,0a23.41,23.41,0,0,1-6.68-1.3,7,7,0,0,1-1.9-1,3,3,0,0,1-1-4,6.87,6.87,0,0,1,1-1.42,17,17,0,0,0,4.38-10.83c.17-2.27.31-4.55.33-6.83,0-6.25,0-12.5,0-18.75,0-1.37-.13-2.73-.2-4.1a6.89,6.89,0,0,0-3.34-5.85,8.46,8.46,0,0,1-1.51-1.23,2.59,2.59,0,0,1-.14-3.69,6.16,6.16,0,0,1,1.49-1.25A13.63,13.63,0,0,1,471,351a85.06,85.06,0,0,1,14.1-3.87A24,24,0,0,1,490,347c1.07,0,1.49.52,1.62,1.59a15.82,15.82,0,0,1,.07,1.95c0,3-.08,6-.12,9Z" transform="translate(0 -0.5)"/><path class="cls-71" d="M738.05,372.18c0,6.84,0,13.68,0,20.52a39.39,39.39,0,0,0,.35,4.47,7.51,7.51,0,0,0,2.13,4.51,20,20,0,0,1,1.59,1.73c1.35,1.71,1.25,3.2-.42,4.61a12,12,0,0,1-3,1.87,27.42,27.42,0,0,1-4.28,1.29,35.61,35.61,0,0,1-5,.88c-2.13.18-4.29.16-6.43.15a2.24,2.24,0,0,1-2.24-1.58c0-.12-.11-.23-.16-.35-.75-1.77-2.53-2.77-4.89-1.7a12.82,12.82,0,0,0-1.53.87,18,18,0,0,1-10.17,2.87,18.44,18.44,0,0,1-13.42-5.78,26.88,26.88,0,0,1-5.17-7.06,21.67,21.67,0,0,1-2.05-12.34,19.59,19.59,0,0,1,2.24-7.44c3-5.3,7.05-9.28,12.93-11.26a25.29,25.29,0,0,1,12-.67,17.76,17.76,0,0,1,2.61.79c.55.18,1.09.43,1.66.56a3.4,3.4,0,0,0,4.25-2.47,6.17,6.17,0,0,0-1-5.73,10.62,10.62,0,0,0-2.78-2.44c-.44-.28-.9-.53-1.31-.85a2.62,2.62,0,0,1-.76-3.48,5.35,5.35,0,0,1,1.24-1.48,8.72,8.72,0,0,1,2.16-1.31,34.28,34.28,0,0,1,6.88-2.13,19.91,19.91,0,0,0,3.38-.93,21.22,21.22,0,0,1,8.23-1.35,11.54,11.54,0,0,1,1.17.1,1.75,1.75,0,0,1,1.58,1.5,15.23,15.23,0,0,1,.19,2.53c0,3.9,0,7.81,0,11.72v9.38Zm-33.6,18.64-.2,0c.17,1.68.27,3.37.53,5a10,10,0,0,0,3.6,6.08,5.6,5.6,0,0,0,3.16,1.4,5.7,5.7,0,0,0,6-3.21,13.81,13.81,0,0,0,1.71-5.75c.06-.78.1-1.56.23-2.33a27.31,27.31,0,0,0-.54-10.07,8,8,0,0,0-2.08-3.91,5.52,5.52,0,0,0-7.74-.41,11.15,11.15,0,0,0-1.91,2.2,15.3,15.3,0,0,0-2.71,8.22C704.43,389,704.45,389.91,704.45,390.82Z" transform="translate(0 -0.5)"/><path class="cls-70" d="M342.7,469.24c0,2.48,0,4.57,0,6.65A12.75,12.75,0,0,0,343,478a6,6,0,0,0,2.31,3.74,18,18,0,0,1,1.52,1.22,2.88,2.88,0,0,1,.81,3.22,10,10,0,0,1-.8,1.76,15.42,15.42,0,0,1-8.78,6.79,13.36,13.36,0,0,1-7.34.1,7.56,7.56,0,0,1-2.78-1.38c-.58-.42-1.14-.87-1.73-1.26a4.32,4.32,0,0,0-4.63-.3c-.58.29-1.16.6-1.72.92a17.23,17.23,0,0,1-9.53,2.43,10.29,10.29,0,0,0-1.36,0,15.25,15.25,0,0,1-8.21-2.15,9.24,9.24,0,0,1-2.88-2.31c-.82-1-1.58-2.07-2.35-3.12a5.48,5.48,0,0,1-.94-3.7,13,13,0,0,1,5.74-10.58,17.68,17.68,0,0,1,4.64-2.46l3.16-1a21.61,21.61,0,0,1,6.73-1.05,26.9,26.9,0,0,0,3.7-.19c2.43-.34,3.59-1.64,3.67-4a9.49,9.49,0,0,0-1.43-5.41,4.1,4.1,0,0,0-6.07-1.35,13.1,13.1,0,0,0-1.95,1.62c-.85.81-1.64,1.68-2.47,2.5a15.69,15.69,0,0,1-3.94,2.87,7,7,0,0,1-4.55.71,4.59,4.59,0,0,1-3.78-5.46,7.17,7.17,0,0,1,1.35-3,14.64,14.64,0,0,1,4.88-4.14,49.69,49.69,0,0,1,9.28-3.57c4.32-1.36,8.76-1.25,13.18-.95a22.26,22.26,0,0,1,8.68,2.8A14.27,14.27,0,0,1,339.8,455a10.94,10.94,0,0,1,2.61,6.41C342.55,464.17,342.61,466.9,342.7,469.24Zm-20.19,10.09c0-.24,0-.56-.08-.88a3.56,3.56,0,0,0-5.52-2.5,5.3,5.3,0,0,0-2.38,3.22,4.08,4.08,0,0,0,1.13,4.12,3.58,3.58,0,0,0,4.95.25A5.26,5.26,0,0,0,322.51,479.33Z" transform="translate(0 -0.5)"/><path class="cls-70" d="M413.11,472.11c0-2.74,0-5.47,0-8.21a8.71,8.71,0,0,0-.35-2.49,2.54,2.54,0,0,0-2.63-1.9,19,19,0,0,1-2.51-.23,3.71,3.71,0,0,1-3-4,4.85,4.85,0,0,1,1.61-3.42,14.31,14.31,0,0,1,1.84-1.45q7.88-5.26,15.78-10.48c1-.69,2.11-1.31,3.19-1.91a8.37,8.37,0,0,1,5.9-.56,2.88,2.88,0,0,1,2.42,2.72c.1.9.05,1.82.12,2.73a17.51,17.51,0,0,0,.27,2.51,3.44,3.44,0,0,0,2.91,2.8,19.39,19.39,0,0,0,2.52.26c1.3.08,2.61.1,3.91.17a14.46,14.46,0,0,1,1.74.19,2.75,2.75,0,0,1,2.41,2.46,12.81,12.81,0,0,1-.1,4.86,2.9,2.9,0,0,1-2.14,2.31,8.89,8.89,0,0,1-1.91.33c-1.24.07-2.48.05-3.71.1a20,20,0,0,0-2.33.2,3.53,3.53,0,0,0-3.33,3.28,12.61,12.61,0,0,0-.18,1.94c0,3.52-.07,7-.05,10.55a14,14,0,0,0,.36,3.1,5.85,5.85,0,0,0,7.69,4.29c.68-.21,1.32-.53,2-.77,2.36-.83,3.68.82,3.69,2.65a5.1,5.1,0,0,1-.93,2.93,15.33,15.33,0,0,1-5.82,5.37,20.89,20.89,0,0,1-9.17,2.43c-2.35,0-4.69,0-7-.08a13.59,13.59,0,0,1-8.05-3.16,12.09,12.09,0,0,1-4.51-7.1,23.2,23.2,0,0,1-.58-4.84v-7.62Z" transform="translate(0 -0.5)"/><path class="cls-70" d="M369.15,495.25c-2.28,0-4.55,0-6.83,0a21.3,21.3,0,0,1-6.15-1,9.55,9.55,0,0,1-2.48-1.11,4.19,4.19,0,0,1-1.37-6,14.29,14.29,0,0,1,1.29-1.72c.45-.55.95-1.07,1.44-1.59a8.09,8.09,0,0,0,2.16-5.31c.13-3.51.24-7,.34-10.54a14.14,14.14,0,0,0-.08-1.95,6.09,6.09,0,0,0-2.63-4.59,11.12,11.12,0,0,1-1.78-1.51,3,3,0,0,1-.46-3.78,8.45,8.45,0,0,1,1.75-2.07,8,8,0,0,1,2.16-1.3,69.79,69.79,0,0,1,14.55-4.34,15.47,15.47,0,0,1,3.12-.14,4,4,0,0,1,4,2.87,12.82,12.82,0,0,0,.57,1.45c.94,1.93,2.41,2.25,4.11.88.5-.41.91-.93,1.41-1.35.94-.8,1.88-1.6,2.87-2.33A9.84,9.84,0,0,1,399.21,451a10.24,10.24,0,0,1,3.21,8.61c-.32,4.29-2.54,7.24-6,9.49-2.29,1.48-7.36,1.79-10-.28-.73-.56-1.44-1.12-2.19-1.64a9.77,9.77,0,0,0-1.83-1.1,2.36,2.36,0,0,0-3.06,1,6.11,6.11,0,0,0-.91,3,24.55,24.55,0,0,0-.09,3.32c.09,2,.24,4,.44,6a6.09,6.09,0,0,0,3.55,5.24,12,12,0,0,1,2,1.21,4.82,4.82,0,0,1,2,3.23,3.88,3.88,0,0,1-1.55,4,7.77,7.77,0,0,1-2.42,1.22,20.27,20.27,0,0,1-6.14,1c-2.34,0-4.68,0-7,0Z" transform="translate(0 -0.5)"/><path class="cls-71" d="M674.31,386.2c0,1.95-.09,3.91,0,5.86a34.35,34.35,0,0,0,.7,4.82,6.12,6.12,0,0,0,2.75,3.88l.5.32c1.49.93,2,1.41,1,3.57a12.15,12.15,0,0,1-5,5.55,15,15,0,0,1-9,2.06,7.17,7.17,0,0,1-4.78-1.93,13.11,13.11,0,0,0-1.33-1.14,4.39,4.39,0,0,0-5.13-.27c-.39.22-.74.52-1.13.76a15.25,15.25,0,0,1-8.27,2.59c-1.57,0-3.14.1-4.69,0a12.48,12.48,0,0,1-10.16-5.69,10.12,10.12,0,0,1-1.17-8.09,9,9,0,0,1,2.21-4.06,20,20,0,0,1,11-5.91,29.27,29.27,0,0,1,5.83-.52,30.83,30.83,0,0,0,4.08-.26,4.44,4.44,0,0,0,4.15-4.63,11.3,11.3,0,0,0-1.87-6.86,4.7,4.7,0,0,0-7.26-1.14c-1.15,1-2.14,2.09-3.23,3.13s-2,1.9-3,2.77a7.56,7.56,0,0,1-5.68,1.58,3.52,3.52,0,0,1-3.35-4.64,6.83,6.83,0,0,1,1-2.1,12.9,12.9,0,0,1,4.66-4.08,20,20,0,0,1,2.3-1.07,58.32,58.32,0,0,1,9.31-2.89,7.84,7.84,0,0,1,1.35-.19c3.38,0,6.78-.2,10.15-.05a18.88,18.88,0,0,1,6.91,2,14.21,14.21,0,0,1,5.1,4.17,8,8,0,0,1,1.67,3.7,24.45,24.45,0,0,1,.34,3.3c0,1.82,0,3.64,0,5.47Zm-18.13,10.86a13.65,13.65,0,0,0-.37-1.85,3.87,3.87,0,0,0-3-2.73,4.6,4.6,0,0,0-4.33,1.13,9.8,9.8,0,0,0-1.47,1.8,4.83,4.83,0,0,0,.49,6.26,4.53,4.53,0,0,0,6.85.22A7,7,0,0,0,656.18,397.06Z" transform="translate(0 -0.5)"/><path class="cls-71" d="M307.08,385.52c.15,2.93.26,5.85.47,8.77a13.42,13.42,0,0,0,.61,2.85,6.23,6.23,0,0,0,2.76,3.66c.22.14.43.3.66.42,1.75.9,1.63,2.57,1.28,3.89a3.14,3.14,0,0,1-.9,1.24,32.25,32.25,0,0,1-2.44,2.23c-2.7,2.17-5.64,3.74-9.23,3.68-1,0-2,0-2.92-.11a5.82,5.82,0,0,1-3.51-1.56l-1.16-1a4.57,4.57,0,0,0-6.08-.33,17.38,17.38,0,0,1-3.94,2.11,11.17,11.17,0,0,1-4.17.91c-1.89,0-3.78,0-5.67,0a8.37,8.37,0,0,1-3.23-.66c-.66-.28-1.33-.52-2-.83a10.06,10.06,0,0,1-5.93-7c-.84-3.72-.19-7.09,2.7-9.85a18.83,18.83,0,0,1,8-4.71,28.89,28.89,0,0,1,8.46-1.2,24.05,24.05,0,0,0,3.89-.24c2.76-.43,4.08-2,4.18-4.78a11.82,11.82,0,0,0-1.59-6.35,5,5,0,0,0-7.95-1.21c-1.06,1.06-2.08,2.16-3.16,3.2a36,36,0,0,1-2.75,2.48,7.71,7.71,0,0,1-5.91,1.46,3.33,3.33,0,0,1-3.13-3.75,5.36,5.36,0,0,1,.84-2.57,11.7,11.7,0,0,1,5-4.51,53.93,53.93,0,0,1,5.06-2,29.85,29.85,0,0,1,5.79-1.71c.58-.08,1.15-.24,1.73-.31a59.41,59.41,0,0,1,10.33-.11,20.17,20.17,0,0,1,7.09,2.07,13.76,13.76,0,0,1,5,4,8.69,8.69,0,0,1,1.93,5.23c.06,2.21,0,4.42,0,6.64Zm-17.87,11.42a10.26,10.26,0,0,0-.26-1.51,4,4,0,0,0-3.82-3.05,4.6,4.6,0,0,0-3.85,1.47,10.3,10.3,0,0,0-1.19,1.53,4.82,4.82,0,0,0,.44,6.25,4.51,4.51,0,0,0,7,.14A6.59,6.59,0,0,0,289.21,396.94Z" transform="translate(0 -0.5)"/><path class="cls-71" d="M332.58,412.29c-2.21,0-4.43,0-6.64,0a24.29,24.29,0,0,1-6.36-.89,8.2,8.2,0,0,1-1.29-.45,3.85,3.85,0,0,1-1.64-6.13,5.53,5.53,0,0,1,1.27-1.19,8.74,8.74,0,0,0,3.6-5.83,26.68,26.68,0,0,0,.45-3.87c.09-2.87.1-5.73.08-8.6a12.92,12.92,0,0,0-.31-2.7,5.73,5.73,0,0,0-2.79-3.83,11.37,11.37,0,0,1-1.48-1,2.62,2.62,0,0,1-.62-3.65,4.82,4.82,0,0,1,1.81-1.75,17.37,17.37,0,0,1,3-1.42c3.28-1,6.59-2,9.9-3a20.53,20.53,0,0,1,6.58-.6,6.26,6.26,0,0,1,1,.11,2,2,0,0,1,1.68,1.45c.15.5.25,1,.43,1.5a9.47,9.47,0,0,0,.86,1.95,2.57,2.57,0,0,0,3.9.66,9.6,9.6,0,0,0,1.66-1.65,13.28,13.28,0,0,1,3.26-2.76,7.76,7.76,0,0,1,3.86-1.24,20.73,20.73,0,0,1,2.73,0,7.08,7.08,0,0,1,5.93,3.57,12.05,12.05,0,0,1,1.58,3.55,10.75,10.75,0,0,1-6,12,4.62,4.62,0,0,1-1.1.38,14.18,14.18,0,0,1-4.86.2,5.69,5.69,0,0,1-2.72-1c-.74-.52-1.45-1.1-2.18-1.65a19.37,19.37,0,0,0-1.87-1.4,2.89,2.89,0,0,0-4.43,1.24,6.6,6.6,0,0,0-.68,2,23.92,23.92,0,0,0-.24,6.81c.12,1,.12,2,.22,2.92a20.16,20.16,0,0,0,.37,2.7,6.16,6.16,0,0,0,3.67,4.52,14.06,14.06,0,0,1,2.24,1.18,3.72,3.72,0,0,1,1.72,3.87,3,3,0,0,1-1.58,2.34,6.31,6.31,0,0,1-1.61.67,24.82,24.82,0,0,1-6.36.93c-2.34,0-4.68,0-7,0Z" transform="translate(0 -0.5)"/><path class="cls-71" d="M401.88,389.46c-2.67,0-5.34,0-8,0a25.63,25.63,0,0,0-3.51.15,3,3,0,0,0-2.81,3.37,7.58,7.58,0,0,0,1.5,4.36,16.32,16.32,0,0,0,6,5.17,9.46,9.46,0,0,0,8.11.52c2.05-.84,4.06-1.76,6.09-2.63a12.76,12.76,0,0,1,2-.77,2.09,2.09,0,0,1,2.6,1.48,3.82,3.82,0,0,1-.26,3.2,6.38,6.38,0,0,1-2,2.33,28.64,28.64,0,0,1-9.58,4.7,29.24,29.24,0,0,1-8.11.92,17.22,17.22,0,0,0-1.76,0,21.9,21.9,0,0,1-8.06-1.16,20.93,20.93,0,0,1-7.43-4.18c-.34-.3-.67-.62-1-.93-5-4.5-6.87-10.27-6.84-16.81a19.75,19.75,0,0,1,5.74-13.71,24.84,24.84,0,0,1,15.51-7.9,30.67,30.67,0,0,1,11.83.56,21.33,21.33,0,0,1,8.59,4.48,19.37,19.37,0,0,1,5.68,8.5,8.32,8.32,0,0,1,.18,5,10.69,10.69,0,0,1-.64,1.62,2.63,2.63,0,0,1-2.28,1.6c-.85.06-1.69.16-2.53.17-3,0-6,0-9,0Zm-8.23-6.5V383c.9,0,1.81-.07,2.72-.14a4.45,4.45,0,0,0,.94-.23,3.39,3.39,0,0,0,2.37-4.87,5.79,5.79,0,0,0-3.88-3.55,6.45,6.45,0,0,0-7.27,2.4,4.56,4.56,0,0,0-.9,3.49,2.92,2.92,0,0,0,1.8,2.37,6.71,6.71,0,0,0,1.88.45A22.81,22.81,0,0,0,393.65,383Z" transform="translate(0 -0.5)"/><path class="cls-71" d="M438.19,412.29H430c-.65,0-1.31,0-2-.07a3.36,3.36,0,0,1-2.49-1.36,19.51,19.51,0,0,1-4-10,6.72,6.72,0,0,1,.08-1.55,2.43,2.43,0,0,1,3.5-1.94,6,6,0,0,1,1.59,1.1c.91.84,1.76,1.74,2.62,2.62a22.48,22.48,0,0,0,4.38,3.58,6.22,6.22,0,0,0,3.88,1.07,4.1,4.1,0,0,0,3.74-2.69,3.62,3.62,0,0,0-.92-4.12,11.74,11.74,0,0,0-2.33-1.75c-1.28-.77-2.64-1.41-3.95-2.13a37.2,37.2,0,0,1-6.39-4.47c-4.34-3.7-5-9-3.54-13.88a8.46,8.46,0,0,1,1.11-2.28c3-4.4,7.14-6.92,12.61-6.95a40.17,40.17,0,0,1,8.75.63,11.28,11.28,0,0,0,4.66-.11,23.28,23.28,0,0,1,2.5-.42,4.35,4.35,0,0,1,4,1.57,17.19,17.19,0,0,1,4,7.94,10.33,10.33,0,0,1,.12,2.72,2.91,2.91,0,0,1-2.88,2.88,4.08,4.08,0,0,1-3.57-1.16c-.78-.78-1.56-1.57-2.35-2.34-1.26-1.23-2.51-2.46-3.79-3.67a4.77,4.77,0,0,0-2.21-1.19,3.92,3.92,0,0,0-4.37,5.84,6.81,6.81,0,0,0,3,2.7c1.44.74,2.9,1.46,4.35,2.2a53.33,53.33,0,0,1,7.88,5.06c5.22,3.9,5.66,12.18,1.45,16.7a16.7,16.7,0,0,1-9.42,5.14,17.8,17.8,0,0,1-3.1.31c-2.93,0-5.86,0-8.79,0Z" transform="translate(0 -0.5)"/><path d="M631.38,511.1c-1.24-.06-2.48-.09-3.71-.2a11.24,11.24,0,0,1-2.3-.43c-1.86-.58-3.71-1.23-5.55-1.86a8.57,8.57,0,0,1-3.13-1.95,5.7,5.7,0,0,1-1.63-6.07,9.54,9.54,0,0,1,1.05-2.3,3.56,3.56,0,0,0,.22-3.36c-.3-.73-.61-1.44-1-2.15a5.45,5.45,0,0,1,.67-6c.51-.67,1.06-1.32,1.63-2a3.71,3.71,0,0,0,.47-4.68c-.5-.91-1-1.82-1.54-2.72-2.72-4.61-1.48-8.75,2-12.17A13.12,13.12,0,0,1,624,462c.44-.13.87-.27,1.29-.44a18.77,18.77,0,0,1,8.83-1.18,18.33,18.33,0,0,1,3.44.66,19.6,19.6,0,0,0,4.22.77,12,12,0,0,0,5.89-1.09,21.27,21.27,0,0,1,2-.83,4.79,4.79,0,0,1,1.33-.28,1.71,1.71,0,0,1,1.82,1.44,3.88,3.88,0,0,1,0,1.73,12.75,12.75,0,0,1-1.1,2.91,12.64,12.64,0,0,0-1.64,5.37,11.47,11.47,0,0,1-1.92,5.47,12.29,12.29,0,0,1-6.39,4.9,53.42,53.42,0,0,1-5.26,1.5,32.15,32.15,0,0,1-3.68.45c-1.29.15-2.59.26-3.88.44a5.57,5.57,0,0,0-1.49.45,2.14,2.14,0,0,0-1.25,2.88,3,3,0,0,0,2.19,2.05,11.32,11.32,0,0,0,2.7.41,21.5,21.5,0,0,0,8.61-1.4,11,11,0,0,1,6.34-.64,9.14,9.14,0,0,1,7.66,6.91,6.63,6.63,0,0,1,0,3.48,14.2,14.2,0,0,1-5,7.94,15,15,0,0,1-6.61,3.2,11.93,11.93,0,0,0-2.45.64A20.54,20.54,0,0,1,631.38,511.1Zm6.27-38.62c-.06-.94-.08-1.85-.19-2.75a8.31,8.31,0,0,0-2.52-5.15,3.6,3.6,0,0,0-5.37.08,6.93,6.93,0,0,0-1.9,3.56,16.75,16.75,0,0,0,.26,7.15,7.94,7.94,0,0,0,2.25,3.81,3.6,3.6,0,0,0,5.37-.05,6.53,6.53,0,0,0,1.93-4C637.58,474.27,637.59,473.36,637.65,472.48Zm-6,25v0c-1.23,0-2.47,0-3.7,0a13.92,13.92,0,0,0-2.31.3c-2.21.47-2.44,2.13-1.79,3.7a4.35,4.35,0,0,0,.48.84,7.62,7.62,0,0,0,4.78,3.11,18.84,18.84,0,0,0,6.4,0,5.65,5.65,0,0,0,3.35-1.83,4,4,0,0,0,1-3.23,2.64,2.64,0,0,0-2.06-2.53,10.78,10.78,0,0,0-2.11-.33C634.34,497.41,633,497.44,631.61,497.44Z" transform="translate(0 -0.5)"/><path d="M837.44,495.2c-1.59-.11-3.15-.18-4.71-.33a7.3,7.3,0,0,1-3.58-1.44,3.73,3.73,0,0,1-1.59-4.1,10.23,10.23,0,0,1,.65-1.83,24.13,24.13,0,0,0,1.81-8.74,14,14,0,0,0-.89-5.17,5.08,5.08,0,0,0-9.39-.47,7.92,7.92,0,0,0-.71,2.82c-.1,2.07-.09,4.16,0,6.24a10.48,10.48,0,0,0,1,3.94,13.83,13.83,0,0,1,.94,2.76,4.15,4.15,0,0,1-2.12,4.81,8,8,0,0,1-3.27,1.19,31.42,31.42,0,0,1-8,0,9,9,0,0,1-4-1.56,3.59,3.59,0,0,1-1.61-4.07,5.77,5.77,0,0,1,.67-1.82,13.74,13.74,0,0,0,1.76-6.73c.09-2.14,0-4.3,0-6.44a8.37,8.37,0,0,0-1.28-4.45,8.28,8.28,0,0,1-.82-1.76,2.56,2.56,0,0,1,.91-3,6.38,6.38,0,0,1,1.66-1c1.51-.61,3-1.19,4.57-1.71s2.87-.84,4.31-1.25a8.8,8.8,0,0,1,1.33-.3,3.13,3.13,0,0,1,3.18,1.48c.38.6.67,1.27,1,1.89a2.31,2.31,0,0,0,3.3,1.1,11,11,0,0,0,1.92-1.3c.94-.71,1.82-1.48,2.76-2.17,2.64-1.92,5.56-2.05,8.58-1.22a11.52,11.52,0,0,1,4.59,2.53,8.88,8.88,0,0,1,3,5.33,39.41,39.41,0,0,1,.34,4.07c.13,2.8.21,5.6.31,8.4a11,11,0,0,0,1.15,4.5c.43.88.86,1.76,1.22,2.67a8.65,8.65,0,0,1,.52,1.87,3.37,3.37,0,0,1-1.07,3,6.4,6.4,0,0,1-3.77,1.89C840.66,495,839,495.09,837.44,495.2Z" transform="translate(0 -0.5)"/><path class="cls-71" d="M774.32,383.4c0,3.71,0,7.43,0,11.14,0,.71,0,1.43,0,2.15a8.77,8.77,0,0,0,2.48,5.79c.68.7,1.36,1.41,2,2.15a4.42,4.42,0,0,1,1.1,3.06,2.79,2.79,0,0,1-1.33,2.46,7.43,7.43,0,0,1-1.73.88,23.45,23.45,0,0,1-6.7,1.22c-3.9,0-7.81,0-11.72,0a21.55,21.55,0,0,1-6.7-1.17,3.59,3.59,0,0,1-2.32-1.95,3.37,3.37,0,0,1,0-3.19,14.93,14.93,0,0,1,1.36-1.9c.45-.55,1-1,1.48-1.56a7.28,7.28,0,0,0,2-3.72,35.51,35.51,0,0,0,.8-5.59c.08-2.79-.12-5.59-.21-8.39a6.87,6.87,0,0,0-3.57-6.11,7.2,7.2,0,0,1-1-.66,2.71,2.71,0,0,1-.1-4.5,7.89,7.89,0,0,1,2.13-1.34,43,43,0,0,1,7.6-2.48,23,23,0,0,0,2.81-.78,29.34,29.34,0,0,1,8-1.53,8.12,8.12,0,0,1,1.56.06c1.25.17,1.72.64,1.87,1.86a14.72,14.72,0,0,1,.06,1.76q0,6.15,0,12.3Z" transform="translate(0 -0.5)"/><path d="M758.19,478.55c0-.81.09-1.59.12-2.37A13,13,0,0,1,762,467.6a21.11,21.11,0,0,1,5.51-4.31A22.94,22.94,0,0,1,770.8,462c1-.38,2.09-.71,3.14-1.07A16.4,16.4,0,0,1,785,461c1.05.37,2.06.81,3.09,1.22a15.25,15.25,0,0,1,8.12,7.23,16.77,16.77,0,0,1,2.13,8.4,13.44,13.44,0,0,1-3.56,9,20,20,0,0,1-9.69,6.28c-.94.26-1.86.61-2.78.93a17.32,17.32,0,0,1-11.48.08c-1.11-.37-2.23-.74-3.33-1.12a14.27,14.27,0,0,1-9.22-12C758.24,480.21,758.23,479.36,758.19,478.55Zm25.69,2.82c-.14-1.43-.25-2.53-.34-3.63a15.83,15.83,0,0,0-2.36-6.74,6.32,6.32,0,0,0-2.12-2.24,4,4,0,0,0-5.72,1.4,6.28,6.28,0,0,0-.82,4.5c.29,1.53.61,3,.91,4.58a16.21,16.21,0,0,0,2.38,5.51,5.57,5.57,0,0,0,1.31,1.43,4,4,0,0,0,6.38-2.06A15.87,15.87,0,0,0,783.88,481.37Z" transform="translate(0 -0.5)"/><path d="M491.37,495.08c-1.23,0-2.47,0-3.7,0a15.28,15.28,0,0,1-6.74-1.78,8.76,8.76,0,0,1-.85-.47,2.83,2.83,0,0,1-1.08-3.76,12.49,12.49,0,0,1,1.61-2.43A8,8,0,0,0,482.4,482a157.25,157.25,0,0,0,.1-20.48,10.57,10.57,0,0,0-2.82-6.87,9.32,9.32,0,0,1-1.47-2.06,3,3,0,0,1,1.35-4.31,5.64,5.64,0,0,1,1.06-.48,26.38,26.38,0,0,1,6.42-1.6,42.28,42.28,0,0,1,9.93.11,24.78,24.78,0,0,1,4,1,6.73,6.73,0,0,1,2,1.1,3,3,0,0,1,.92,3.84,8.28,8.28,0,0,1-1.43,2.08c-2.28,2.37-3.18,5.33-3.71,8.44a47,47,0,0,0-.37,11.49c.13,1.62.19,3.25.32,4.87a23.34,23.34,0,0,0,.39,2.89,9,9,0,0,0,2.76,5.05,8.49,8.49,0,0,1,1.31,1.44,3,3,0,0,1-1,4.65,14.78,14.78,0,0,1-7.25,2c-1.17,0-2.34,0-3.52,0Z" transform="translate(0 -0.5)"/><path d="M657.9,486.54c0-3.76,1.64-6.29,4.64-7.68,3.18-1.47,6.47-2.78,10.1-2.71a8.28,8.28,0,0,0,2.32-.28,4,4,0,0,0,3.13-4.54,7,7,0,0,0-2.2-4.47,3.73,3.73,0,0,0-4.69-.36c-1,.64-1.81,1.48-2.72,2.21s-1.82,1.48-2.78,2.14a5,5,0,0,1-1.61.67,2.8,2.8,0,0,1-3.52-3,4.64,4.64,0,0,1,1.57-3.05,11.35,11.35,0,0,1,4.26-2.69c2.22-.76,4.43-1.57,6.7-2.13a14.91,14.91,0,0,1,10.31.71c.7.34,1.44.59,2.17.88a9.77,9.77,0,0,1,3.67,2.52,6.94,6.94,0,0,1,1.86,3.8,35.31,35.31,0,0,1,.31,3.69q.09,3.62,0,7.23a10.55,10.55,0,0,0,2.39,7.26,3.33,3.33,0,0,1,.34.47,3.22,3.22,0,0,1-.28,4.29l-.13.15a12.13,12.13,0,0,1-6.93,3.27,6.51,6.51,0,0,1-3.94-.91l-2.19-1.29a4.46,4.46,0,0,0-4.12-.34c-1.39.55-2.76,1.16-4.13,1.76a10.85,10.85,0,0,1-5.92.81,12.42,12.42,0,0,1-6.15-2.79A7,7,0,0,1,657.9,486.54ZM671,483c0,3.19,2.64,4.85,5,3.55a4.18,4.18,0,0,0,1.87-4.88,3.29,3.29,0,0,0-4.63-1.86A3.9,3.9,0,0,0,671,483Z" transform="translate(0 -0.5)"/><path d="M703.71,479c0-1.89,0-3.78,0-5.67a15.44,15.44,0,0,0-.33-2.7,3.25,3.25,0,0,0-2.08-2.42c-.54-.22-1.11-.39-1.64-.62-2.26-1-2.75-3-1.08-4.88a17.9,17.9,0,0,1,2.8-2.41c2.1-1.54,4.26-3,6.39-4.51,1-.72,2-1.5,3-2.2a21.94,21.94,0,0,1,2.49-1.54,5.68,5.68,0,0,1,1.84-.6,2.7,2.7,0,0,1,3.06,1.87,10.6,10.6,0,0,1,.37,1.71c.14.77.23,1.55.41,2.31a2.83,2.83,0,0,0,2.2,2.25c.94.22,1.92.3,2.89.43a21.91,21.91,0,0,1,2.7.36,3.47,3.47,0,0,1,2.65,3.45,3.35,3.35,0,0,1-2.42,3.41,18.22,18.22,0,0,1-2.88.48c-.9.14-1.81.19-2.7.37a3.12,3.12,0,0,0-2.54,2.65l0,.19a30.83,30.83,0,0,0,.08,9.73,4.93,4.93,0,0,0,5.36,4.11c.78,0,1.55-.14,2.33-.18a2.22,2.22,0,0,1,2.21,3.3,9.53,9.53,0,0,1-1.65,2.39c-2.24,2.47-9.21,5.55-13.65,4.57A14.35,14.35,0,0,1,706,491a7,7,0,0,1-2.05-4.54c-.11-2.14-.12-4.29-.18-6.44v-1Z" transform="translate(0 -0.5)"/><path d="M521.65,495.07c-1.44,0-2.87,0-4.3,0a10.43,10.43,0,0,1-4.36-.94,10.86,10.86,0,0,1-1.52-.87,3.42,3.42,0,0,1-1.24-4.32,9.48,9.48,0,0,1,1.2-2,13.12,13.12,0,0,0,2.5-7.09c.09-1.68.06-3.38,0-5.07a7.54,7.54,0,0,0-1.67-4.7,10.34,10.34,0,0,1-1-1.44,3,3,0,0,1,.89-4.28,11.08,11.08,0,0,1,4-1.94,30.56,30.56,0,0,0,5.58-1.74,6.32,6.32,0,0,1,1.89-.41,3.68,3.68,0,0,1,3.28,1.38c.34.4.62.85.94,1.25,1.39,1.69,2.83,1.91,4.6.69.37-.26.71-.57,1.09-.82a27.41,27.41,0,0,1,2.82-1.74,6.54,6.54,0,0,1,8.94,7.69,8,8,0,0,1-4.69,5.18,5.7,5.7,0,0,1-5.1-.24c-.87-.43-1.71-.94-2.56-1.42-3-1.71-4.82.27-5.27,2.45a13.56,13.56,0,0,0-.3,2.91,41,41,0,0,0,.23,4.29,7.23,7.23,0,0,0,2.88,5.13,11.77,11.77,0,0,1,1.76,1.54,3,3,0,0,1-.62,4.84,7.89,7.89,0,0,1-4,1.52c-2,.14-4,.2-6,.29Z" transform="translate(0 -0.5)"/><path d="M560.46,495.08c-1.37,0-2.74,0-4.1,0a11.63,11.63,0,0,1-4.21-.77,10.14,10.14,0,0,1-1.73-.9,3.51,3.51,0,0,1-1.28-4.93,10,10,0,0,1,1-1.47,12.52,12.52,0,0,0,2.56-7.06c.1-1.75.06-3.51,0-5.27a7.38,7.38,0,0,0-1.58-4.53,16.42,16.42,0,0,1-1.24-1.76,2.49,2.49,0,0,1,.7-3.75,24.36,24.36,0,0,1,3.39-1.9,11.39,11.39,0,0,1,1.69-.49l4.48-1.35a12.86,12.86,0,0,1,1.5-.43,4.17,4.17,0,0,1,4.33,1.6,13.24,13.24,0,0,0,1.13,1.35,2.83,2.83,0,0,0,3.74.42c.45-.26.83-.62,1.27-.91,1-.64,1.93-1.33,3-1.87,4.14-2.17,8.74,1.17,9,5,.32,4-1.63,6.54-5,8a5.58,5.58,0,0,1-4.56-.21c-.54-.24-1-.55-1.55-.83s-1.24-.72-1.9-1a2.94,2.94,0,0,0-4.13,1.39,6.67,6.67,0,0,0-.64,2,22.27,22.27,0,0,0,.13,7,7,7,0,0,0,2.73,4.59,12.16,12.16,0,0,1,1.9,1.68,3,3,0,0,1-.62,4.71,7.89,7.89,0,0,1-4,1.55c-2,.14-4,.21-6,.31Z" transform="translate(0 -0.5)"/><path d="M751.17,473c0,2.34,0,4.68,0,7a10.81,10.81,0,0,0,1.91,6.24c.39.6.83,1.18,1.16,1.81,1.15,2.21.61,4-1.53,5.31a10.2,10.2,0,0,1-5.14,1.64c-2.41.05-4.82.05-7.22,0a9.79,9.79,0,0,1-4.81-1.45A3.75,3.75,0,0,1,734,488.2a11.93,11.93,0,0,1,.92-1.49,12.58,12.58,0,0,0,2.39-8.08c0-.91,0-1.82-.1-2.73a11.78,11.78,0,0,0-2-5.83,10.85,10.85,0,0,1-.92-1.49,2.83,2.83,0,0,1,1-3.93,12.28,12.28,0,0,1,4.57-2.13,51.67,51.67,0,0,0,6.81-1.68,3.44,3.44,0,0,1,1-.15,2.84,2.84,0,0,1,3.28,2.38,12.92,12.92,0,0,1,.28,2.71c0,2.4,0,4.81,0,7.22Z" transform="translate(0 -0.5)"/><path d="M607.54,472.67c0,2.15.05,4.3,0,6.44a12.55,12.55,0,0,0,2.52,8,9.41,9.41,0,0,1,.84,1.31,3.16,3.16,0,0,1-1,4.33,9.87,9.87,0,0,1-4.38,2,10.44,10.44,0,0,1-1.55.2c-2.41,0-4.82,0-7.22,0a9.81,9.81,0,0,1-4.81-1.46,3.71,3.71,0,0,1-1.62-5.18,6,6,0,0,1,.68-1.18c2.73-3.48,3.09-7.48,2.58-11.68a11.63,11.63,0,0,0-2.11-5.6,7.91,7.91,0,0,1-.8-1.34,2.9,2.9,0,0,1,1-3.94,12.79,12.79,0,0,1,4.78-2.16,48,48,0,0,0,6.44-1.58,4.3,4.3,0,0,1,1.34-.19,2.77,2.77,0,0,1,3,2.24,11.66,11.66,0,0,1,.28,2.71c0,2.34,0,4.68,0,7Z" transform="translate(0 -0.5)"/><path class="cls-71" d="M765.41,347c1.11,0,2.22,0,3.32,0a5.82,5.82,0,0,1,3.28,1.13,4.33,4.33,0,0,1,1.67,4.83,6.88,6.88,0,0,1-4,4.52,22.63,22.63,0,0,1-9.39,2.36c-1.63,0-3.26,0-4.88,0a6.12,6.12,0,0,1-3.93-1.5,4.5,4.5,0,0,1-.48-6.59,8.69,8.69,0,0,1,3.47-2.47,66.47,66.47,0,0,1,6.69-2.11,24.25,24.25,0,0,1,4.28-.29Z" transform="translate(0 -0.5)"/><path d="M739.46,456.33c-.65-.07-1.31-.09-1.94-.22a5.94,5.94,0,0,1-1.64-.58,3.45,3.45,0,0,1-.41-6.08,2.63,2.63,0,0,1,.49-.33c2.43-1.09,4.82-2.3,7.53-2.61a9.65,9.65,0,0,1,3.3.2,4.56,4.56,0,0,1,2.47,1.48,3.35,3.35,0,0,1-.18,4.75,7,7,0,0,1-2,1.24c-1.18.54-2.41,1-3.63,1.44a9.9,9.9,0,0,1-1.7.45C741,456.2,740.24,456.25,739.46,456.33Z" transform="translate(0 -0.5)"/><path d="M595.52,456.29c-.28,0-.87-.06-1.44-.15a5.81,5.81,0,0,1-1.31-.38,3.72,3.72,0,0,1-2.48-3,3.6,3.6,0,0,1,1.81-3.44l.17-.11c2.59-1.23,5.16-2.52,8.09-2.7a11.19,11.19,0,0,1,2.71.21,4.92,4.92,0,0,1,1.78.76c2.31,1.58,2.41,4.61,0,6A18.25,18.25,0,0,1,595.52,456.29Z" transform="translate(0 -0.5)"/></g></svg>