<?xml version="1.0" encoding="iso-8859-1"?>
<!-- Generator: Adobe Illustrator 19.0.0, SVG Export Plug-In . SVG Version: 6.00 Build 0)  -->
<svg version="1.1" id="Layer_1" xmlns="http://www.w3.org/2000/svg" xmlns:xlink="http://www.w3.org/1999/xlink" x="0px" y="0px"
	 viewBox="0 0 500 500" style="enable-background:new 0 0 500 500;" xml:space="preserve">
<g>
	<g>
		<path d="M386.668,0H27.428c-2.212,0-4,1.788-4,4v492c0,2.212,1.788,4,4,4h359.24c2.212,0,4-1.788,4-4V4
			C390.668,1.788,388.88,0,386.668,0z M382.668,492H31.428V8h351.24V492z"/>
	</g>
</g>
<g>
	<g>
		<path d="M386.668,0H27.428c-2.212,0-4,1.788-4,4v70.284c0,2.212,1.788,4,4,4h359.24c2.212,0,4-1.788,4-4V4
			C390.668,1.788,388.88,0,386.668,0z M382.668,70.284H31.428V8h351.24V70.284z"/>
	</g>
</g>
<g>
	<g>
		<path d="M343.716,144.476H70.384c-2.212,0-4,1.788-4,4c0,2.212,1.788,4,4,4h273.332c2.208,0,4-1.788,4-4
			C347.716,146.264,345.928,144.476,343.716,144.476z"/>
	</g>
</g>
<g>
	<g>
		<path d="M125.048,183.524H70.384c-2.212,0-4,1.788-4,4c0,2.212,1.788,4,4,4h54.664c2.208,0,4-1.788,4-4
			C129.048,185.312,127.26,183.524,125.048,183.524z"/>
	</g>
</g>
<g>
	<g>
		<path d="M343.716,183.524H160.192c-2.212,0-4,1.788-4,4c0,2.212,1.788,4,4,4h183.524c2.208,0,4-1.788,4-4
			C347.716,185.312,345.928,183.524,343.716,183.524z"/>
	</g>
</g>
<g>
	<g>
		<path d="M343.716,222.572h-31.24c-2.212,0-4,1.788-4,4c0,2.212,1.788,4,4,4h31.24c2.208,0,4-1.788,4-4
			C347.716,224.36,345.928,222.572,343.716,222.572z"/>
	</g>
</g>
<g>
	<g>
		<path d="M277.332,222.572H70.384c-2.212,0-4,1.788-4,4c0,2.212,1.788,4,4,4h206.948c2.212,0,4-1.788,4-4
			C281.332,224.36,279.544,222.572,277.332,222.572z"/>
	</g>
</g>
<g>
	<g>
		<path d="M343.716,261.616H70.384c-2.212,0-4,1.788-4,4c0,2.212,1.788,4,4,4h273.332c2.208,0,4-1.788,4-4
			C347.716,263.404,345.928,261.616,343.716,261.616z"/>
	</g>
</g>
<g>
	<g>
		<path d="M343.716,378.76H70.384c-2.212,0-4,1.788-4,4c0,2.212,1.788,4,4,4h273.332c2.208,0,4-1.788,4-4
			C347.716,380.548,345.928,378.76,343.716,378.76z"/>
	</g>
</g>
<g>
	<g>
		<path d="M125.048,300.668H70.384c-2.212,0-4,1.788-4,4c0,2.212,1.788,4,4,4h54.664c2.208,0,4-1.788,4-4
			C129.048,302.456,127.26,300.668,125.048,300.668z"/>
	</g>
</g>
<g>
	<g>
		<path d="M343.716,300.668H160.192c-2.212,0-4,1.788-4,4c0,2.212,1.788,4,4,4h183.524c2.208,0,4-1.788,4-4
			C347.716,302.456,345.928,300.668,343.716,300.668z"/>
	</g>
</g>
<g>
	<g>
		<path d="M343.716,339.716h-31.24c-2.212,0-4,1.788-4,4c0,2.212,1.788,4,4,4h31.24c2.208,0,4-1.788,4-4
			C347.716,341.504,345.928,339.716,343.716,339.716z"/>
	</g>
</g>
<g>
	<g>
		<path d="M277.332,339.716H70.384c-2.212,0-4,1.788-4,4c0,2.212,1.788,4,4,4h206.948c2.212,0,4-1.788,4-4
			C281.332,341.504,279.544,339.716,277.332,339.716z"/>
	</g>
</g>
<g>
	<g>
		<path d="M125.048,417.808H70.384c-2.212,0-4,1.788-4,4c0,2.212,1.788,4,4,4h54.664c2.208,0,4-1.788,4-4
			C129.048,419.596,127.26,417.808,125.048,417.808z"/>
	</g>
</g>
<g>
	<g>
		<path d="M343.716,417.808H160.192c-2.212,0-4,1.788-4,4c0,2.212,1.788,4,4,4h183.524c2.208,0,4-1.788,4-4
			C347.716,419.596,345.928,417.808,343.716,417.808z"/>
	</g>
</g>
<g>
	<g>
		<path d="M472.568,35.144c-2.212,0-4,1.788-4,4v396.888l-17.476,47.18l-17.476-47.18V39.148c0-2.212-1.788-4-4-4
			c-2.212,0-4,1.788-4,4v397.6c0,0.476,0.084,0.948,0.248,1.392l21.476,57.976c0.584,1.564,2.08,2.608,3.752,2.608
			c1.672,0,3.168-1.044,3.752-2.612l21.476-57.976c0.164-0.448,0.248-0.92,0.248-1.392v-397.6
			C476.568,36.932,474.78,35.144,472.568,35.144z"/>
	</g>
</g>
<g>
	<g>
		<path d="M472.572,433.428H429.62c-2.212,0-4,1.788-4,4c0,2.212,1.788,4,4,4h42.952c2.208,0,4-1.788,4-4
			C476.572,435.216,474.784,433.428,472.572,433.428z"/>
	</g>
</g>
<g>
	<g>
		<path d="M461.288,0H442.96c-8.524,0-17.34,5.368-17.34,14.352v28.696c0,2.212,1.788,4,4,4c2.212,0,4-1.788,4-4V14.352
			c0-3.8,4.828-6.352,9.34-6.352h18.328c4.56,0,7.284,2.376,7.284,6.352v28.696c0,2.212,1.788,4,4,4c2.208,0,4-1.792,4-4V14.352
			C476.572,5.904,470.288,0,461.288,0z"/>
	</g>
</g>
<g>
	<g>
		<path d="M472.572,35.144H429.62c-2.212,0-4,1.788-4,4c0,2.212,1.788,4,4,4h42.952c2.208,0,4-1.788,4-4
			C476.572,36.932,474.784,35.144,472.572,35.144z"/>
	</g>
</g>
<g>
	<g>
		<path d="M472.572,46.856H429.62c-2.212,0-4,1.788-4,4c0,2.212,1.788,4,4,4h42.952c2.208,0,4-1.788,4-4
			C476.572,48.644,474.784,46.856,472.572,46.856z"/>
	</g>
</g>
<g>
	<g>
		<path d="M460.952,421.716h-27.336c-2.212,0-4,1.788-4,4c0,2.212,1.788,4,4,4h27.336c2.212,0,4-1.788,4-4
			C464.952,423.504,463.164,421.716,460.952,421.716z"/>
	</g>
</g>
<g>
</g>
<g>
</g>
<g>
</g>
<g>
</g>
<g>
</g>
<g>
</g>
<g>
</g>
<g>
</g>
<g>
</g>
<g>
</g>
<g>
</g>
<g>
</g>
<g>
</g>
<g>
</g>
<g>
</g>
</svg>
