<svg width="18" height="19" viewBox="0 0 18 19" fill="none" xmlns="http://www.w3.org/2000/svg">
<path d="M14.6568 12.328L13.2428 10.914L14.6568 9.5C15.0282 9.12856 15.3229 8.68759 15.5239 8.20228C15.7249 7.71696 15.8284 7.19681 15.8284 6.6715C15.8284 6.1462 15.7249 5.62605 15.5239 5.14073C15.3229 4.65542 15.0282 4.21445 14.6568 3.843C14.2853 3.47156 13.8444 3.17691 13.359 2.97589C12.8737 2.77487 12.3536 2.6714 11.8283 2.6714C11.303 2.6714 10.7828 2.77487 10.2975 2.97589C9.81218 3.17691 9.37121 3.47156 8.99977 3.843L7.58577 5.257L6.17177 3.843L7.58577 2.429C8.71408 1.31892 10.2353 0.699659 11.8181 0.706104C13.401 0.71255 14.9171 1.34418 16.0364 2.46341C17.1556 3.58265 17.7872 5.0988 17.7937 6.68162C17.8001 8.26444 17.1808 9.78569 16.0708 10.914L14.6568 12.328ZM11.8278 15.157L10.4138 16.571C9.85829 17.1356 9.19652 17.5846 8.46663 17.8922C7.73675 18.1998 6.95319 18.3598 6.16115 18.363C5.36911 18.3662 4.58428 18.2126 3.85191 17.911C3.11954 17.6094 2.45414 17.1658 1.89408 16.6057C1.33402 16.0456 0.890389 15.3802 0.588778 14.6479C0.287167 13.9155 0.133543 13.1307 0.136768 12.3386C0.139994 11.5466 0.300003 10.763 0.607569 10.0331C0.915134 9.30325 1.36417 8.64148 1.92877 8.086L3.34277 6.672L4.75677 8.086L3.34277 9.5C2.97133 9.87145 2.67668 10.3124 2.47566 10.7977C2.27463 11.283 2.17117 11.8032 2.17117 12.3285C2.17117 12.8538 2.27463 13.374 2.47566 13.8593C2.67668 14.3446 2.97133 14.7856 3.34277 15.157C3.71421 15.5284 4.15518 15.8231 4.6405 16.0241C5.12581 16.2251 5.64597 16.3286 6.17127 16.3286C6.69657 16.3286 7.21673 16.2251 7.70204 16.0241C8.18736 15.8231 8.62833 15.5284 8.99977 15.157L10.4138 13.743L11.8278 15.157ZM11.8278 5.257L13.2428 6.672L6.17177 13.742L4.75677 12.328L11.8278 5.258V5.257Z" fill="white"/>
</svg>
