<svg xmlns="http://www.w3.org/2000/svg" width="32" height="32"><path style="line-height:normal;text-indent:0;text-align:start;text-decoration-line:none;text-decoration-style:solid;text-decoration-color:#000;text-transform:none;block-progression:tb;isolation:auto;mix-blend-mode:normal" d="M4.5 2.99c-.84 0-1.5.66-1.5 1.5v.5h3v-.5c0-.84-.66-1.5-1.5-1.5zm1.986 0c.318.42.514.936.514 1.5v.916a.502.502 0 0 1 0 .164v19.92c0 .84.66 1.5 1.5 1.5s1.5-.66 1.5-1.5v-1a.5.5 0 0 1 .5-.5h7.072l3.856-4H19c-.668.035-.718-.967-.05-1a.5.5 0 0 1 .05 0h3.393L25 16.285V4.49c0-.84-.66-1.5-1.5-1.5H6.486zm5.463 2a.5.5 0 0 1 .051 0h8c.676-.01.676 1.01 0 1h-8c-.668.035-.718-.967-.05-1zm-3 3a.5.5 0 0 1 .051 0h14c.676-.01.676 1.01 0 1H9c-.668.035-.718-.967-.05-1zm0 2a.5.5 0 0 1 .051 0h14c.676-.01.676 1.01 0 1H9c-.668.035-.718-.967-.05-1zm0 2a.5.5 0 0 1 .051 0h14c.676-.01.676 1.01 0 1H9c-.668.035-.718-.967-.05-1zm0 2a.5.5 0 0 1 .051 0h8.5c.676-.01.676 1.01 0 1H9c-.668.035-.718-.967-.05-1zm3.365 2.008h.002c.519 0 .957.261 1.286.588.326.326.575.73.777 1.152.394.824.627 1.654.627 2.444 0 .824-.204 1.585-.733 2.097-.493.478-1.187.705-1.957.705h-.002c-.77 0-1.464-.227-1.957-.705-.528-.512-.73-1.273-.73-2.097 0-.79.23-1.62.625-2.444.201-.421.45-.826.777-1.152.329-.327.767-.588 1.285-.588zm15.415.275-1.368.475.912.947.456-1.422zm-2.272.977-6.771 7.027.005.006 1.338 1.387 6.772-7.027-1.344-1.393zM25 21.951l-1.965 2.04H25v-2.04zm-14 3.04v.5c0 .584-.284 1.073-.623 1.5h4.35a1.48 1.48 0 0 1 .189-.243l1.357-1.408.004-.006.01-.01.322-.334H11zm11.07 0-1.927 2H27.5c.84 0 1.5-.661 1.5-1.5v-.5h-6.93zm-4.08.007-.662.688 1.344 1.392.662-.687-.006-.004-1.338-1.389zm-1.355 1.408-.998 1.037a.517.517 0 0 0 0 .713l.68.705c.19.198.446.198.636 0L17.98 27.8l-1.344-1.393z" color="#000" font-family="sans-serif" font-weight="400" overflow="visible"/></svg>