<svg id="Layer_1" data-name="Layer 1" xmlns="http://www.w3.org/2000/svg" viewBox="0 0 1000 611">
    <path fill="white"
        d="M630,262.67c-1.23-29.32-2.3-57.8-3.72-86.26-.37-7.22-1.71-14.42-2.94-21.58a48.3,48.3,0,0,0-3.08-10.06c-.61-1.48-2.35-3.63-3.43-3.54-1.93.14-4.74,1.27-5.48,2.81-9.1,18.75-18.17,37.54-26.68,56.56-8.13,18.19-14.1,37.51-23.73,54.83-12.3,22.12-19.38,46.43-31.57,68.48-5.23,9.46-12.5,16.58-22.61,20.43-6.51,2.48-11.76-1.25-16.25-5.12-7.39-6.37-11.63-15-15.2-23.92q-6.51-16.26-13-32.54c-1-2.45-11.89-26.11-15.89-35.68-4.18-10-7.87-20.13-11.78-30.2-4-10.22-7.83-20.49-12-30.63-3.5-8.54-7.1-17.07-11.21-25.33-2.37-4.77-13.55-19.79-15.32-20.29-.81-.23-3,1.7-3.36,3a193.91,193.91,0,0,0-5.39,20.16c-5.1,26.69-6,53.81-7.14,80.84-1.15,27.47-1,55-1.8,82.48a167.13,167.13,0,0,1-3.06,25c-2,10.88-8.21,18.49-19.52,20.59a65.93,65.93,0,0,1-16.49,1.3c-11.52-.81-16.2-9.7-15.2-19.72.52-5.17,2.22-10.31,4-15.24a190.75,190.75,0,0,0,10.65-55.62c1.93-40.56,4-81.13,4.94-121.72.51-22.9-.94-45.86-2-68.77-.44-9.21-2.48-18.34-3.42-27.54-1.11-10.72,3.66-17,14.35-19.49,16.42-3.86,31.15.15,45.14,9s22.53,22,29.64,36.24c9.28,18.6,17,38.05,27.5,55.94,15.8,27,25.75,56.72,41.09,83.83a144.15,144.15,0,0,0,12.05,17.36c2.12,2.73,4.05,2.67,6-1.3,11.79-24.42,24-48.66,36-73,3-6,21.55-41.78,27.94-53.67,7.14-13.29,13.61-26.95,20.86-40.19,7.65-14,18.64-24.85,33.49-31a114.83,114.83,0,0,1,21.18-6.06c8.92-1.81,17.14.87,24.76,5.63a12.06,12.06,0,0,1,5.87,12.44c-7.4,49.41-2.49,99.05-2.87,148.58-.22,30.06.55,60.13,1.18,90.19a124.12,124.12,0,0,0,8.2,42.61,75.2,75.2,0,0,1,3.62,13.59,17.4,17.4,0,0,1-10.86,19.24c-10,3.89-20.33,4.67-30.58,1.49-11.51-3.58-18-12.6-21.13-23.48A89.23,89.23,0,0,1,628.53,329C628.59,306.58,629.46,284.22,630,262.67Z" />
    <path fill="white"
        d="M243.65,514.56c-1.28-2.73-3-5.24-4.59-7.84-1-1.05-1.63-1.08-1.89.35-.48,4.29-1.15,8.57-1.42,12.87-.76,12.09-1.32,24.18-2,36.27a64.37,64.37,0,0,1-1,8,7.28,7.28,0,0,1-10.46,5.1c-3.5-1.64-2.54-4.68-2-7,5.86-25,5.87-50.22,3.37-75.57-.45-4.51,1-6.29,5.55-6.64,6.71-.52,11.29,3.19,15.36,8.59C255,502.61,260,519.34,269,533.94a30.21,30.21,0,0,0,2.05,2.54c1.57-3.16,2.93-5.85,4.26-8.56,6.29-12.76,12.28-25.68,19-38.24,3.66-6.88,10-10.3,18-9.69,4.6.35,5.59,2,5,6.62a100.16,100.16,0,0,0-.58,12.37c.12,14.82.17,29.64.7,44.44.22,6.36,1.51,12.69,2.43,19,.51,3.52,1.07,6.86-3.26,8.56s-7.32.29-10.67-2.69c-4-3.57-3.65-7.76-3.71-12.15q-.31-22.65-.64-45.29c0-1.1-.17-2.2-.32-4.08-1.19.95-1.9,1.44-2.52,2-10.28,9.71-22.76,45.74-25.7,50.4-2.65,4.19-6.62,3.93-8.78-.46" />
    <path fill="white"
        d="M640.9,507.79c3.92-.38,5.55-1.48,10.25,1.8,2.93,2,5.08,4.94,8.55,6,5.28,1.59,13.34-4.69,17.32-6.7,6.72-3.39,16.55-2.36,21.63,3.45a26.55,26.55,0,0,1,6.6,15.88c.33,4.54.33,9.11.79,13.64.75,7.33,1.78,14.64,2.63,22a5.92,5.92,0,0,1-3.08,6.42c-5.65,3.33-10.09,1-10.7-5.6-1-10.49-2.09-21-3.23-31.42a28.8,28.8,0,0,0-1.22-5.41,9.81,9.81,0,0,0-9.45-7.23c-5.34-.27-7.44,1.33-9.84,6.23-4.64,9.49-2.37,19.56-2.89,29.39-.15,2.84.32,5.7.21,8.53-.2,5.11-1.79,6.83-6.75,7.81-.42.08-.85.11-1.27.15-9.16.9-10.38-.49-10.14-9.57.29-11.38,0-22.77.16-34.15,0-4.73-2.18-8.92-6.27-9.43-3.74-.46-8.43,1.34-11.62,3.64-2.55,1.84-4.4,5.77-5,9.05-1.28,7.55-1.61,15.26-2.26,22.91-.27,3.11-.25,6.26-.57,9.37-.7,6.72-4.87,7.9-10.95,5.15-4.81-2.19-4.24-5.35-4-8.8.27-4.68,1.29-14.59,1.64-14.53s1.7-14,1.7-24.17c0-2.71.16-5.42,0-8.12-.19-3,.94-4,3.94-3.93,6.12.19,5,7.19,5,7.19s4.28-5.13,8.55-6.84A57.85,57.85,0,0,1,640.9,507.79Z" />
    <path fill="white"
        d="M735.79,477.61c8.58.68,11,3.11,14.34,10.63,3.21,7.19,7.72,13.83,11.94,20.52,1.3,2.05,3.93,2.4,5.38.09,5.09-8.14,10.24-16.27,14.7-24.76,2.06-3.92,4.13-6.88,8.76-6.45,3.07.28,7.2.35,8.83,2.25,2.66,3.08-1.67,5.37-3.23,7.83-6.7,10.55-13.59,23.42-20.49,33.84a7.46,7.46,0,0,0,0,8.56c7,11.38,14,20.11,20.88,31.56,1.74,2.92,2.59,6.36,3.85,9.56-3.52.63-7,1.44-10.58,1.84-5.26.6-9.27-2-11.59-7-3.1-6.78-12.15-23-13.5-24.49-2.5-3.13-4.64-3.08-7.89.75-4.74,8.23-9.51,16.5-13.48,25.11-2.15,4.67-5,7.26-9.88,7-2.39-.14-5.33-1-6.82-2.62-.91-1-3.31-4-2.31-5.72,2.09-3.7,21.42-27.94,26.48-36.67,1.1-1.91,1.4-5.44.36-7.23-6.33-10.93-13.16-21.57-19.82-32.31-.3-.48-.72-.9-1-1.4-1.28-2.4-2.52-4.81-3.77-7.22Z" />
    <path fill="white"
        d="M445.89,503.6l.79-.26a7.28,7.28,0,0,0,4.86-5c0-.21.09-.41.13-.62a61.46,61.46,0,0,0,.67-6.13A36.21,36.21,0,0,0,452,483c-.75-4.1.87-6.35,4.53-7.84,5.57-2.27,12.59-1.24,12.58,6.86,0,22.65.16,45.31.45,68a123.82,123.82,0,0,0,1.39,14.86c.7,5.18-.77,7.66-5.9,7.24-2.07-.16-3.66-2.2-4.57-1.79-9.33,4.24-23.14,4.31-23.25,4.31-15.24-.89-20.73-4.06-25.68-16.65a38.85,38.85,0,0,1-2.66-18.23A45.52,45.52,0,0,1,419,515.2c5.26-6.57,11.14-12.5,20-11.6m13.34,34.73c0-4.55.18-9.1,0-13.64a11.43,11.43,0,0,0-9.9-10.39,15.67,15.67,0,0,0-16.62,9.28c-4.6,9.74-4.43,19.93-1.93,30,1.18,4.8,3.84,9.9,8.7,11.44,9.78,3.1,19-4,19.65-14.36" />
    <path fill="white"
        d="M389.25,559.62c3.65,4.72,2.18,9.29-4.51,12.3-10.21,4.6-20.74,5.66-31.44,1.4-10.34-4.1-15.4-12.38-17.21-22.69a49,49,0,0,1,1.61-24c5.37-16.5,25.18-26.28,41.36-20.33,8.53,3.14,16.89,18.23,13.66,26.74a11.69,11.69,0,0,1-7.17,6.3c-8.7,2-17.64,3-26.51,4.3-3.33.48-6.82,1.5-6.75,5.16a15.84,15.84,0,0,0,3.3,9.49c4.93,5.62,12,4.86,18.69,4.44,4.09-.26,8.17-.79,12.23-1.37C387.4,561.21,388.19,560.31,389.25,559.62Zm-13.4-26.74a5.75,5.75,0,0,0,3.56-1.88c2.28-3.21.12-11.35-3.32-13.42-9-5.46-17.45-3-23.48,6.66-1.72,2.76-3.77,5.87-1.45,8.55C352.71,534.59,370.23,533.77,375.85,532.88Z" />
    <path fill="white"
        d="M575.89,508.74c2-2.67,9.65-2.34,11,.76a21.9,21.9,0,0,1,1.75,7.33c.48,10.52.51,21.07,1.08,31.59.28,5.24,1.35,10.44,2.09,15.65.79,5.62-1.26,8.38-6.88,8.1-3-.14-6-1.91-9.06-2.33a17.61,17.61,0,0,0-7.36.56c-7.33,2.25-14.42,4.71-22.43,2.78-7.62-1.84-11.77-6.87-12.79-13.76-1.55-10.52-1.82-21.24-2.69-31.86-.33-4.11-.85-8.2-1.2-12.3-.26-3-2.36-7,2-8.35,6.87-2.06,11.65.49,12.5,6.13.55,3.64.44,7.38.64,11.08.55,10.22.69,20.49,1.82,30.65.8,7.11,7.13,11.21,13.68,10.11,5.77-1,11.67-6.69,12.87-12.54,2.41-11.81,3.12-23.67,1.09-35.62C573.73,515.06,575,509.86,575.89,508.74Z" />
    <path fill="white"
        d="M507.6,550.89c-.13,10,5.67,14.79,5.86,18.57a13.59,13.59,0,0,1-6,4.27c-4,1.35-9.27,1-10.37,1-5.37-.14-7.53-3.51-6.32-8.77,3.14-13.65,2.16-27.47,2-41.25a27.39,27.39,0,0,0-2.08-9c-2.12-5.63-.58-8.46,5.25-8.85.71,0,1.42-.08,2.13-.09,7.69-.11,8.89,1.05,9,8.78.05,3,.05,6,.07,9s0,6,0,9C507.26,533.39,507.18,545.08,507.6,550.89Z" />
    <path fill="white"
        d="M500.6,477.07c5.79,0,9.95,3.08,9.55,7.42-.36,4-3.26,8.48-10.44,8.12-6-.31-7.56-1.85-7.44-8.2C492.36,479.29,494.92,477,500.6,477.07Z" />
</svg>