<svg id="Layer_1" data-name="Layer 1" xmlns="http://www.w3.org/2000/svg" viewBox="0 0 457 280">
  <defs>
    <style>
      .cls-1 {
        fill: #cfd4d8;
      }

      .cls-2 {
        fill: #00aed4;
      }

      .cls-3 {
        fill: #bac2b9;
      }

      .cls-4 {
        fill: #bdc3c7;
      }

      .cls-5 {
        fill: #008bc9;
      }

      .cls-6 {
        fill: #dadbdb;
      }

      .cls-7 {
        fill: #ebebec;
      }

      .cls-8 {
        fill: #d9dfe3;
      }

      .cls-9 {
        fill: #cfd0d1;
      }

      .cls-10 {
        fill: #0e88ca;
      }

      .cls-11 {
        fill: #bccaba;
      }

      .cls-12 {
        fill: #586063;
      }

      .cls-13 {
        fill: #495156;
      }

      .cls-14 {
        fill: #f1f5f8;
      }

      .cls-15 {
        fill: #e9edf0;
      }

      .cls-16 {
        fill: #5a6164;
      }

      .cls-17 {
        fill: #62626f;
      }

      .cls-18 {
        fill: #73747d;
      }

      .cls-19 {
        fill: #596063;
      }

      .cls-20 {
        fill: #dadfe4;
      }

      .cls-21 {
        fill: #4f5658;
      }

      .cls-22 {
        fill: #9a9d9e;
      }

      .cls-23 {
        fill: #eaeff3;
      }

      .cls-24 {
        fill: #eff3f4;
      }

      .cls-25 {
        fill: #52595d;
      }

      .cls-26 {
        fill: #a1a5a8;
      }

      .cls-27 {
        fill: #c9ced3;
      }

      .cls-28 {
        fill: #d6dce1;
      }

      .cls-29 {
        fill: #545c60;
      }

      .cls-30 {
        fill: #585f63;
      }

      .cls-31 {
        fill: #4c5356;
      }

      .cls-32 {
        fill: #3e454b;
      }

      .cls-33 {
        fill: #3c444a;
      }

      .cls-34 {
        fill: #525a5e;
      }

      .cls-35 {
        fill: #fbfdfe;
      }

      .cls-36 {
        fill: #575966;
      }

      .cls-37 {
        fill: #545c61;
      }

      .cls-38 {
        fill: #4f5659;
      }

      .cls-39 {
        fill: #3e464b;
      }

      .cls-40 {
        fill: #3c4348;
      }

      .cls-41 {
        fill: #474e51;
      }

      .cls-42 {
        fill: #4b4b59;
      }

      .cls-43 {
        fill: #41474c;
      }

      .cls-44 {
        fill: #5b6265;
      }

      .cls-45 {
        fill: #d8dce2;
      }

      .cls-46 {
        fill: #f0f4f7;
      }

      .cls-47 {
        fill: #e7eaee;
      }

      .cls-48 {
        fill: #e9eef4;
      }

      .cls-49 {
        fill: #383f45;
      }

      .cls-50 {
        fill: #4e555a;
      }

      .cls-51 {
        fill: #41494f;
      }

      .cls-52 {
        fill: #d3d3de;
      }

      .cls-53 {
        fill: #c6ccd3;
      }

      .cls-54 {
        fill: #d2d7dc;
      }

      .cls-55 {
        fill: #d2d2de;
      }

      .cls-56 {
        fill: #495054;
      }

      .cls-57 {
        fill: #434a4d;
      }

      .cls-58 {
        fill: #c8ccd2;
      }

      .cls-59 {
        fill: #f3f6fa;
      }

      .cls-60 {
        fill: #dedcec;
      }

      .cls-61 {
        fill: #eee6f9;
      }

      .cls-62 {
        fill: #e7e5f5;
      }

      .cls-63 {
        fill: #d8dde3;
      }

      .cls-64 {
        fill: #c9cdd3;
      }

      .cls-65 {
        fill: #d2d7dd;
      }

      .cls-66 {
        fill: #ecf0f5;
      }

      .cls-67 {
        fill: #549b40;
      }

      .cls-68 {
        fill: #519a3f;
      }

      .cls-69 {
        fill: #006ab4;
      }
    </style>
  </defs>
  <path class="cls-1" d="M257.38,55.81a10.6,10.6,0,0,1,.44,3.32c0,5.21,0,10.42,0,15.63,0,2.66-.45,3-3,3.12-1.94.08-3.83-.37-5.75-.45-.61-.42-1.3-.18-2-.2s-1.21-.1-1.3-.92a6.85,6.85,0,0,1,.62-3.06.53.53,0,0,1,.61-.11c.63.67.36,1.64.75,2.39,2.6,1.09,5.31,1,8,.82.81,0,.87-.76.73-1.44a4.13,4.13,0,0,1-.11-.69c0-5.16.42-10.31.09-15.47.25-1.3-.43-2.09-1.56-1.84-2.57.57-5.09-.19-7.61,0-10.43.61-20.85.31-31.28.36-5.11,0-10.19-.63-15.31-.42-2.35.1-2.61.33-2.57,2.73q.13,7.09,0,14.19c0,2.36.26,2.82,2.62,2.65,10.14-.74,20.3-.23,30.45-.4a4.36,4.36,0,0,0,1.82-.33.76.76,0,0,1,.74.13,1.31,1.31,0,0,1,.15.78c-.46,1.14-1.45.63-2.18.63-7.75,0-15.49,0-23.24,0a4.29,4.29,0,0,0-2.24.2h0c-2.33.56-4.74-.18-7.06.42-2.62-.06-2.83-.65-2.66-3.32.27-4.19.13-8.4.16-12.61,0-1,0-2.11,0-3.16a2.61,2.61,0,0,1,0-2.12h0a2.59,2.59,0,0,1,2.65-1.27c5.85.18,11.71,0,17.57.23a178.17,178.17,0,0,0,20.67-.14c6.21-.53,12.37.25,18.55-.06A1.86,1.86,0,0,1,257.38,55.81Z"/>
  <path class="cls-2" d="M156.1,35.42a1.5,1.5,0,0,1,1.37-.35,24.38,24.38,0,0,0,5.4.14c3,.12,6.07-.34,9.06.41,4.84,1.26,9.78,1.25,14.72,1.34h2.5c2.74,0,5.52-.25,8,1.37a1.52,1.52,0,0,1,.54.43.58.58,0,0,1-.17.64,1,1,0,0,1-.67.11c-2.65-.51-5.22-1.49-8-1.52h-1.64l-7.48,0a28.87,28.87,0,0,1-4.17-.39c-9.27-1.15-21.54-1.47-21.53-1.91C154.06,35.6,154.42,35.5,156.1,35.42Z"/>
  <path class="cls-3" d="M204.71,113.47c.76.09,1.23-.17,1.12-1-.79-6.47-.18-13-.33-19.44-.09-3.67,0-7.34-.06-11-.05-1.79.51-2.53,2.36-2.52,8.63.08,17.26,0,25.89.06a110.15,110.15,0,0,1,14.19,0,2.46,2.46,0,0,1,1.68,2.6q-.08,14.64-.1,29.26c-.19,1.84-.77,3.75,1,5.21a.89.89,0,0,1-.81.64c-1.05,0-1.39-.7-1.47-1.6s0-1.78-.06-2.68c-.08-9.88-.15-19.76,0-29.64,0-1.67-.54-2.24-2.13-2.26-7.59-.13-15.19,0-22.79,0q-7,0-14.09,0c-.92,0-2.06-.26-2.18,1.26.13,10.29-.19,20.59.17,30.88A2.24,2.24,0,0,1,206,115.3c-1.83.28-2.53-.63-2.39-2.41C204.51,112,204.29,113.4,204.71,113.47Z"/>
  <path class="cls-4" d="M215.42,29.89c0-.13,0-.26,0-.4.62-2.07,2.39-2.16,4-2.27,2.41-.16,4.83,0,7.25,0,2.14,0,4.28,0,6.43,0h3.4c.71.08,1.49,0,1.82.89-1.67,1.31-3.56.56-5.37.58-.27,0-.52-.19-.8-.22.2.17.41.32.32.64-.67.72-1.68.38-2.43.84-.42.48-.3,1.06-.33,1.62-.29,6.63.56,13.27,0,19.9a1,1,0,0,0,.18.59c2.35,1.34,3.93.9,4.61-1.31a1.26,1.26,0,0,1,.35-.53.56.56,0,0,1,.59.11,5.19,5.19,0,0,1,.52,2.15c.54,1.27,2.27.12,2.79,1.42a.67.67,0,0,1-.43.52c-3.5.31-7-.09-10.52.23-3-.26-6,0-9-.12a5,5,0,0,1-2.6-.4,1.39,1.39,0,0,1-.84-1.27,53.58,53.58,0,0,1-.15-8.21C215.31,39.73,215,34.81,215.42,29.89Z"/>
  <path class="cls-5" d="M80.14,12.9l-.49-1.14c-.38-1.18-1.23-2.24-1-3.59.17-.91.09-2.07,1.52-2,.49,1-.23,1.92,0,2.91a7.53,7.53,0,0,0,5.39,5.82A36.09,36.09,0,0,0,98.67,16.6a10.3,10.3,0,0,1,2.47.24c9.5,1.87,19.11,1.38,28.7,1.43a1.49,1.49,0,0,0,1.12-.38,10.11,10.11,0,0,0-3.85-2.12,97.11,97.11,0,0,0-10.87-4c-2-.55-4-1.53-6.1-2a1.75,1.75,0,0,1-1.46-1.34,1,1,0,0,1,.85-.49,69.18,69.18,0,0,1,9.2,2.91h0c3.47,1.35,7.18,2.12,10.33,4.31l1.29.71c.56.1,1.84,1.42,2.73,2.74-.19.79-.87,1-1.58,1.12a47.28,47.28,0,0,1-12.28.5c-2.16-.2-4.34-.36-6.51-.59-5.61.06-11.18-.58-16.75-1a63.35,63.35,0,0,1-8.74-1.18C84.54,16.84,81.63,15.82,80.14,12.9Z"/>
  <path class="cls-6" d="M238.3,28.2c-.44-.59-1.09-.35-1.67-.41a5.53,5.53,0,0,0-3.32,0c-4.42,0-8.84-.07-13.25.05-1.64,0-3.48-.09-4.6,1.65-.2-.74.44-1.29.47-2.1-2,0-4,0-6,0s-3-1.29-2.61-3.3a17.74,17.74,0,0,0,.06-5.86,3.14,3.14,0,0,1,1-3.18,1,1,0,0,1,.31.62,2.11,2.11,0,0,1-.05.71c.08,3.15-.53,6.33.35,9.45.54.52,1.15.26,1.77.25,6.91-.17,13.83-.35,20.74.09a15,15,0,0,0,5.55,0,3.64,3.64,0,0,1,1.47,0c1.87.41,3.77.1,5.65.21.86.05,1.78-.17,2.47.61-1.84.88-3.78.26-5.67.38-1.07.07-1.63.41-1.36,1.51.68,2.85.27,5.75.32,8.62.08,4.58,0,9.16,0,13.73a4.52,4.52,0,0,1-.42,2.46c-.22.26-.38.67-.84.42v-.45C238.64,45.16,239,36.67,238.3,28.2Z"/>
  <path class="cls-7" d="M238.69,54.09l.84-.42c-.09,1.47.94,1.27,1.83,1.28,4.56,0,9.12,0,13.68,0,.86,0,1.85-.26,2.34.86-5.32.22-10.64-.76-15.93-.35-7.32.55-14.64.23-21.95.33-6.62.09-13.23,0-19.85,0a3.9,3.9,0,0,0-2.87.89C197,55.27,198,55,199.05,55c5.85.16,11.69-.1,17.56.26A177.21,177.21,0,0,0,237.85,55c-5.92,0-11.84,0-17.75,0-1.13,0-2.35.44-3.4-.39a72.72,72.72,0,0,1,11.24-.07c2.74-.74,5.54-.18,8.3-.34C237.06,54.07,237.87,54.1,238.69,54.09Z"/>
  <path class="cls-8" d="M246.18,76.16c.42,1.74,2.21.2,2.9,1.27H206.32c.63-.67,1.44-.4,2.17-.4,7.74,0,15.49,0,23.24,0,.74,0,1.75.43,2-.86a2.31,2.31,0,0,0,.8-2.25c-.37-3.87-.14-7.75-.13-11.63,0-.8-.39-2.06,1.12-2.13.65.94.38,2,.43,3,.18,3.2-.34,6.43.31,9.6,2,1.32,4.24.44,6.35.35,1,0,.9-1.24.91-2.08.05-2.94.12-5.88.14-8.82,0-.75-.14-1.57.47-2.2a.55.55,0,0,1,.65.13,2.71,2.71,0,0,1,.7,1.92c-.06,4.68.6,9.4-.9,14-.63.72-1.43.28-2.14.29a47.14,47.14,0,0,0-7,.28,45.89,45.89,0,0,1,8-.16c.5,0,1,.08,1.26-.45A1.17,1.17,0,0,1,246.18,76.16Z"/>
  <path class="cls-5" d="M163.17,13.73c12.73,6.76,18.36,9.94,21,11.53,1.82,1.11,8.57,4.91,9.45,5.49.49.33,1.23.42,1.18,1.28a1.36,1.36,0,0,1-.52.33,4.58,4.58,0,0,1-2.87-1c-6.46-3.91-13.07-7.54-19.62-11.27-3.48-2-7-3.83-10.51-5.83-2.63-1.52-5.4-2.78-8-4.29a7,7,0,0,0-2.33-1.14c-1.7-.24-2.91-1.54-4.43-2.16a3.86,3.86,0,0,0-1.3-1c-.34-.15-.65-.33-1-.49-1-.36-1.94-.65-2.88-1.08a2,2,0,0,1-1.16-.93,1.13,1.13,0,0,1,0-.63.74.74,0,0,1,.27-.26,1,1,0,0,1,.84.07,42.08,42.08,0,0,1,6,3c1.41.74,3.58,1.87,6.3,3.25l2.56,1.28C157.84,10.77,160.24,12,163.17,13.73Z"/>
  <path class="cls-2" d="M152.31,35.46C147.16,35.13,142,35,137.08,33a17.49,17.49,0,0,1-3.94-2.27c-1.78-1.32-2.79-3.09-1.91-5.47a8.33,8.33,0,0,1,2.52-2.17,16.06,16.06,0,0,1,3.22-.82,28.42,28.42,0,0,1,6,0l.45.05s.46.05.95.15a52.31,52.31,0,0,1,5.84,2c-1.35,1.17-2.73.8-4.25.28-4.17-1.42-8.36-1.69-12.4.49-1.52.82-1.68,1.87-.67,3.27A8.06,8.06,0,0,0,137,31.38c3.12,1,6.24,2.35,9.62,2.16a29.25,29.25,0,0,1,8.18.94c.56.13,1.47,0,1.11,1.14A11.27,11.27,0,0,1,152.31,35.46Z"/>
  <path class="cls-5" d="M196.06,33.32c-4.08-3-8.59-5.19-12.94-7.7-4.57-2.64-9.27-5-13.66-8,2.23.14,3.91,1.62,5.74,2.62,5.85,3.17,11.67,6.42,17.34,9.91a124.11,124.11,0,0,1,11.26,7.2,2.07,2.07,0,0,1,.88,1.13c-.92.52-1.47-.33-2.18-.59-1.9-1.09-3.52-2.65-5.55-3.53A1.32,1.32,0,0,1,196.06,33.32Z"/>
  <path class="cls-5" d="M110.29,8.46l-.93,0a3.74,3.74,0,0,1-3.24-.1c-4.55-1.77-9.4-2.62-14.05-4.06A12.16,12.16,0,0,0,82.86,5c-.93.47-1.74,1.12-2.71,1.51a2.5,2.5,0,0,0-.84,3.58,2.41,2.41,0,0,1,.37,1.67c-2.46-2.9-1.48-6,2.58-8.06,2.21-1.41,10.24-.84,11-.41,1.55.38,16.45,4.25,16.94,4.68A.48.48,0,0,1,110.29,8.46Z"/>
  <path class="cls-9" d="M208.38,15.45a2.81,2.81,0,0,0,0-.41h0a2.53,2.53,0,0,1,1.41-.18h35.4a2.57,2.57,0,0,1,1.42.18,3.1,3.1,0,0,1,1,3.16,16.55,16.55,0,0,0,.06,5.83,2.63,2.63,0,0,1-1,2.93c-2.14,0-4.27,0-6.4,0-.66,0-1.4.23-1.94-.42,1.72-1.15,3.63-.48,5.45-.57,2.53-.13,2.66-.18,2.68-2.8q0-2.12,0-4.23c0-2.43-.39-2.82-2.78-2.82-10.15,0-20.3,0-30.45,0C211.59,16.06,209.86,16.61,208.38,15.45Z"/>
  <path class="cls-5" d="M127.86,10c-3.22-2.78-3.64-6.13-.93-8.06a9.67,9.67,0,0,1,9-1.08c1.17.39,2.33.81,3.52,1.11.34.27.77.52.32,1a4.15,4.15,0,0,1-3.61-.12,10.82,10.82,0,0,0-8.25.17,6.51,6.51,0,0,0-1,.64c-1.35,1.45.12,2.71.25,4.05l.26.49C127.75,8.74,128.39,9.21,127.86,10Z"/>
  <path class="cls-10" d="M127.86,10c.1-.75-.63-1.07-.81-1.67.73-.48,1.17,0,1.56.52,3,3.68,7.17,5.51,11.19,7.68,2,1.08,4.26,1,6.1,2.26.28.48.55,1,.2,1.52a46.6,46.6,0,0,1-8.55-2.68c-.92-.41-1.69-1.09-2.62-1.48a27.89,27.89,0,0,1-6.23-4.86Z"/>
  <path class="cls-6" d="M246.62,15.05H208.39c.55-.62,1.28-.4,1.94-.4q17.17,0,34.34,0C245.33,14.65,246.07,14.44,246.62,15.05Z"/>
  <path class="cls-5" d="M188.88,38c2.89-.52,5.52.72,8.24,1.28,2-.08,3.87.83,5.82,1.19a3.68,3.68,0,0,1,.54.16,2.69,2.69,0,0,0,2,.06,6.48,6.48,0,0,0,.81-.56c.52.17.88.5.65,1.07s-.73.57-1.22.62a15.72,15.72,0,0,1-5.83-1C196.26,39.81,192.56,39,188.88,38Z"/>
  <path class="cls-6" d="M215.42,29.89q0,11.47,0,23c-.47-.44-.37-1-.37-1.58q0-9.9,0-19.8C215.06,30.92,215,30.34,215.42,29.89Z"/>
  <path class="cls-11" d="M247.88,79.53H233.69c2.05-.78,4.19-.33,6.27-.32C242.6,79.24,245.27,78.76,247.88,79.53Z"/>
  <path class="cls-5" d="M139.35,2.63l-.51-.71a10.4,10.4,0,0,1,7.84,3.47c-2.27-1.09-4.48-2.34-7-2.7C139.51,2.89,139.41,2.86,139.35,2.63Z"/>
  <path class="cls-6" d="M227.94,54.46l-11.24.07c-.14-.14-.28-.28-.43-.41,3.31,0,6.61,0,9.91,0C226.78,54.1,227.43,54,227.94,54.46Z"/>
  <path class="cls-11" d="M251.2,113.53a3.31,3.31,0,0,1-.89,2.94c-2.36-1.33-1.05-3.3-.85-5.08v3.92C250.66,115.1,250.36,113.79,251.2,113.53Z"/>
  <path class="cls-5" d="M206.3,40.13a.86.86,0,0,1-.39.82.36.36,0,0,1-.5.06c-.8-2-3.2-2.37-4.18-4.2a.66.66,0,0,1,.12-.55l2,.93C204.2,38.33,205.71,38.75,206.3,40.13Z"/>
  <path class="cls-7" d="M199.27,77.86c2.31-.87,4.71-.21,7.06-.42C204,78.35,201.62,77.65,199.27,77.86Z"/>
  <path class="cls-7" d="M196.78,56.65c0,.71,0,1.41,0,2.12A1.48,1.48,0,0,1,196.78,56.65Z"/>
  <path class="cls-12" d="M247,73.29a2,2,0,0,0-.32-.18,1.75,1.75,0,0,1-.6-1.36c.09-3.55-.32-7.12.33-10.67a4.46,4.46,0,0,0-.2-2.67c-.18-.22-.38-.51-.64-.47-3.35.51-6.65-.55-10-.29-.63,0-1.23.07-1.52.78-.3,4.84,0,9.68-.13,14.51,0,1,.14,2-.59,2.8-.21,1.13-1.06.88-1.79.88-6.71,0-13.42-.05-20.12,0-3.87,0-7.73.17-11.6.37-1.77.09-2.24-.61-2.21-2.36.1-5.29.11-10.59,0-15.89,0-1.88.58-2.47,2.39-2.45,11.74.11,23.47.61,35.22.4q9.83-.16,19.64-.39c2.2,0,2.52.27,2.24,2.53l-.27-.07c-.56-.76-1.19-1.39-2.26-1a8.25,8.25,0,0,1-4.27.16c-1.56-.44-2.26.23-2.19,1.76.16,3.65-.42,7.27-.46,10.91C247.61,71.49,247.79,72.53,247,73.29Z"/>
  <path class="cls-13" d="M247,73.29c-.05-4.84.72-9.66.44-14.5-.08-1.47.6-2,1.82-1.67a14.42,14.42,0,0,0,6.1,0,8.8,8.8,0,0,1,1.44,4.19c.49,3.86-.08,7.72,0,11.57,0,.68-.24,1.41.24,2v0c.32,1.63-.54,2.06-1.91,1.93a4.77,4.77,0,0,1-1.73-.42c-.62-1.13.55-1.91.57-3a47.56,47.56,0,0,0,.1-6.09,26.59,26.59,0,0,1,.09-6.11c.21-1.67-.47-2.59-1.82-2.69-1.8-.14-2.68.54-2.64,2.31.09,3.57-.07,7.13-.08,10.7,0,1.59.5,3.22,2.41,3.77.45.13,1.51.31.46,1.18a35.5,35.5,0,0,1-5.46-.31Z"/>
  <path class="cls-14" d="M244.52,60h-.74a28.09,28.09,0,0,0-8.39,0,1.25,1.25,0,0,0-.42,1.13c.28,4.51-.58,9.06.48,13.56.29,1.23-.76,1.42-1.71,1.41,0-.13,0-.27,0-.4-.44-3.14-.13-6.3-.18-9.44,0-2.88-.06-5.76,0-8.64,2-.75,4.12,0,6.18-.08,1.27,0,2.57.1,3.86.13,1.19.22,1.3,1.2,1.45,2.15C244.93,60.12,244.76,60.18,244.52,60Z"/>
  <path class="cls-15" d="M244.52,60h.41a1.18,1.18,0,0,1,1.57.72c-.17,3.05-.13,6.1-.11,9.15,0,.67-.24,1.39.25,2v1.19c-.2,1,.12,2.1-.46,3h-1.67a2.67,2.67,0,0,1-.26-2C245.52,69.48,245,64.76,244.52,60Z"/>
  <path class="cls-12" d="M257,74.88c-.73-.6-.43-1.44-.43-2.17,0-4.09,0-8.18,0-12.26-.18-.64-.6-1.32.33-1.73l.19.11C257.31,64.18,257.22,69.53,257,74.88Z"/>
  <path class="cls-7" d="M233.75,57.57l0,18.17h-.42l.06-18.24C233.52,57.32,233.65,57.34,233.75,57.57Z"/>
  <path class="cls-12" d="M247,76.17h5.82c.15-.18.29-.18.43,0,1.38,0,3.32,1.57,3.76-1.31.53,1.54,0,2.28-1.59,2.18C252.59,76.85,249.73,77.08,247,76.17Z"/>
  <path class="cls-16" d="M206.3,82.1c-.45-1.44.32-1.72,1.5-1.72,12,0,24.07,0,36.11,0,4.78,0,4.78.06,4.78,4.88q0,13.89,0,27.78a.41.41,0,0,1-.59-.09c-.5-.92-.23-2.08-1.62-2.75-1.2-.59-1.3-2.34-1.28-3.81.05-5.35-.19-10.71.42-16,.24-2.12-.49-4.17-.21-6.32a2,2,0,0,0-2.17-2.29c-.23,0-.44-.1-.66-.16-1.6-.41-3.21-.12-4.82-.19-1.33,0-2.65,0-4,0-1.6-.1-3.13.6-4.74.44-6.67.06-13.33.09-20,0a4.5,4.5,0,0,0-2,.32A.72.72,0,0,1,206.3,82.1Z"/>
  <path class="cls-17" d="M206.3,82.1h.44a1.69,1.69,0,0,1,.53,1.09c.14,6.62,0,13.24.07,19.87a24,24,0,0,1,0,3.79,16.47,16.47,0,0,0,1.17,7.16,8.79,8.79,0,0,1-1.79,4.19c-.7-.84-.68-2-1.15-2.92a2.38,2.38,0,0,0,1-2C205.88,102.91,206.54,92.5,206.3,82.1Z"/>
  <path class="cls-18" d="M248.28,113.1l.4,0c.42,1.32-1,3.2,1.14,4-.28.58-.49,1.22-1.13,1.53-2-1.22-1.77-2.91-.94-4.73A1.39,1.39,0,0,1,248.28,113.1Z"/>
  <path class="cls-19" d="M228.75,41.16c0,3.32-.06,6.65,0,10,0,1.51-.36,2.21-2,2.16-3-.1-6-.07-8.92,0-1.47,0-1.8-.52-1.77-2q.22-9.53.11-19.07c0-3,.27-3.62,3.33-3.34a27.2,27.2,0,0,0,7.21-.1c1.58-.28,2.06.57,2,2.06,0,3.47,0,6.93,0,10.39Z"/>
  <path class="cls-20" d="M235,50.24l-.11.48c-2.22-.43-3.76.93-5.36,2.13-1.11-1.84-.12-3.8-.22-5.7-.28-5.36-.13-10.73-.13-16.1,0-.67-.27-1.42.38-2,.37.59.52,1.22,1.54,1.25a3.3,3.3,0,0,1,2.72,1.23c.46.78,1.5-.68,1.54.62.28,5.36.15,10.71.16,16.07A2.73,2.73,0,0,1,235,50.24Z"/>
  <path class="cls-21" d="M235.4,52.8c0-.83,0-1.67,0-2.51a19,19,0,0,1-.17-4.4c-.11-5,.17-10-.21-15a1.85,1.85,0,0,1,1.88-2.25,1.87,1.87,0,0,1,2.22,1.91c.11,1.06-.22,2.09-.18,3.16.18,5.82-.07,11.65.2,17.47C239.2,53.52,238.2,53.93,235.4,52.8Z"/>
  <path class="cls-22" d="M235.4,52.8c3.3.35,3.29.35,3.29-3,0-6.14,0-12.27,0-18.41,0-1.08.12-2.18-1.45-2.27s-1.81.94-1.82,2.18q0,9.53-.08,19a1.27,1.27,0,0,1-.34,0q0-9.32-.08-18.62A4.51,4.51,0,0,0,232.5,29c-.4-.55-1.11-.29-1.6-.83h7.4a4.8,4.8,0,0,1,1,4.08,28,28,0,0,0-.1,6.53c.46,4.25-.49,8.52.25,12.75a2.58,2.58,0,0,1-.81,2.08C237.6,53.32,236.13,54.56,235.4,52.8Z"/>
  <path class="cls-23" d="M229.55,52.85c.65-2,3.74-3.25,5.36-2.13.37,2-.51,2.82-2.45,2.53C231.5,53.11,230.44,53.63,229.55,52.85Z"/>
  <path class="cls-24" d="M232.5,29c1.75-.06,3,.35,2.44,2.59-.47,0-.38,1.21-.78.72-1-1.26-2.53-1.33-3.78-1.77-1.08-.38-.68-.93-.8-1.49Z"/>
  <path class="cls-9" d="M233.31,27.79a3.11,3.11,0,0,1,3.32,0Z"/>
  <path class="cls-25" d="M248.28,113.1l0,.82A3,3,0,0,0,247,117c.07.32,0,.72.42.81,1.63.35,1,1.49.83,2.46-.56,2.12-1.12,4.25-1.67,6.37a.42.42,0,0,1-.54,0c-.92-1.66-.17-3.64-1-5.33a4.71,4.71,0,0,1-.19-.64c-.12-.82-.09-1.65-.17-2.48-.05-8.34.12-16.67,0-25-.05-3,.36-5.92-.12-8.85a2,2,0,0,0-1.4-1.27c-.51-.41-1.23-.44-1.65-1,.09-.88.76-.75,1.33-.8,2.69,0,3.32.95,3,3.79-.13,1.29.36,2.64.28,4-.33,5.47-.41,10.93-.42,16.41,0,1.93.08,3.71,1.58,5.1.31-.51-.13-1.28.67-1.82C248.57,110.16,248.08,111.67,248.28,113.1Z"/>
  <path class="cls-16" d="M248.26,120.28c-.07-1.21.39-3.07-2.09-1.51,1.28-1.5-1.39-4.43,2.07-4.85a4,4,0,0,0,.45,4.68C248.63,119.19,248.84,119.84,248.26,120.28Z"/>
  <path class="cls-5" d="M80.11,6.16C81.56,3.83,83.87,3,86.34,2.84A15.83,15.83,0,0,1,94.2,4.07a38,38,0,0,0,6.29,1.8c2.8.67,5.36,2.2,8.27,2.41a6,6,0,0,0,2.75,1.31,62.2,62.2,0,0,1,8.85,3,55.72,55.72,0,0,0,5.37,2c2,.62,3.55,2.07,5.57,2.54a1.05,1.05,0,0,1,.83,1.28c-.15.57-.75.52-1.23.52-8.35.05-16.78.61-25-.64-5.27-.8-10.59-.41-15.76-1.54-2.68-.58-5.52-.83-7.79-2.87C79.77,11.5,79.07,9.49,80.11,6.16Z"/>
  <path class="cls-26" d="M208.38,15.45h36c2.59,0,2.66.08,2.65,2.74,0,2.12,0,4.23,0,6.34,0,1.42-.48,2.08-1.93,2-2.27-.08-4.55,0-6.83-.06h-1.24a15.08,15.08,0,0,1-5.4,0c-6.49,0-13,.07-19.48,0-1.27,0-2.71,1.22-3.86-.33l.24-.3A11.18,11.18,0,0,1,213.4,25c5.19,0,10.38-.1,15.56.07.54,0,1.12.15,1.53-.39.29-2.2,0-4.41.14-6.61,0-1.07-.38-1.45-1.52-1.35-5.66.5-11.33.15-17,.21a13.36,13.36,0,0,1-3.25-.63,1.14,1.14,0,0,1-.55-.49C208.33,15.71,208.35,15.58,208.38,15.45Z"/>
  <path class="cls-26" d="M208.31,26.18a30.17,30.17,0,0,1,0-10.34l.17.15a2.18,2.18,0,0,1,.38.66,48.73,48.73,0,0,1,0,8.71,1.81,1.81,0,0,1-.38.66Z"/>
  <path class="cls-9" d="M231.65,26.53h5.4A7.35,7.35,0,0,1,231.65,26.53Z"/>
  <path class="cls-27" d="M244.11,60c0,4.17,0,8.33,0,12.49A1.09,1.09,0,0,1,243,73.74c-2.39,0-4.8.77-7.18-.12-.45-4.13-.09-8.27-.19-12.4A1.32,1.32,0,0,1,237,59.69c2.38,0,4.8-.49,7.15.35Z"/>
  <path class="cls-28" d="M244.11,60c-2.14,0-4.27.05-6.4,0-1.43,0-2,.57-1.93,2,.06,3.87,0,7.73,0,11.6-.68-.63-.4-1.45-.4-2.19,0-3.8,0-7.59,0-11.39C237.24,58.81,242.64,58.81,244.11,60Z"/>
  <path class="cls-1" d="M244.52,76.16c.38,1-.29.85-.85.85h-9.08c3.2-1.76,6.55-1.49,9.92-.85Z"/>
  <path class="cls-5" d="M145.71,18.89a3.49,3.49,0,0,0-2.19-.42,3.28,3.28,0,0,1-2.78-1c-1.1-1.09-2.73-1.41-4.06-2a34,34,0,0,1-7.85-5.37c-.63-.54-.62-1.79-1.78-1.81h0c-.11-1.66-1.11-3.25-.41-5l.8-.54c4.36-1.8,8.6.12,12.9.43l1.23.45c.63,1.27,1.94.87,2.93,1.24l.8.45c.33.42.86.52,1.25.84,1.7.32,2.71,2.18,4.57,2.13a6.4,6.4,0,0,0,2.07,1.26c2.91,1.5,5.83,3,8.73,4.5,2.53,1.33,5,2.68,7.53,4.08,3.64,2,7.24,4.13,10.86,6.19,3.31,1.89,6.63,3.79,10,5.67,1.3.73,2.39,1.89,4,2.08.94.78,2.24,1,3,2.08a9.34,9.34,0,0,0,1.46,2c.93,1.34.46,2.44-1.07,2.69h0a13,13,0,0,0-4.66-1.66c-.68-1.35-1.83-1.69-3.21-2.2-2.59-1-5.51-.65-7.91-2.45-1.48-1.1-3.46-1.38-5.23-2-2.82-.95-5.48-2.3-8.2-3.5-1.84-.81-3.79-1.27-5.68-2q-6.53-2.37-12.81-5.3C148.56,19.17,147,19.91,145.71,18.89Z"/>
  <path class="cls-5" d="M140.33,3.18c-3,.61-5.77-1-8.74-.9-1.42.05-2.68,1.33-4.16.47a10,10,0,0,1,8.32-.61,7.36,7.36,0,0,0,4.24.49l.31.06Z"/>
  <path class="cls-5" d="M196.79,34.13c-.77-.79-2-.93-2.55-2.06l.54-.06a33.1,33.1,0,0,1,6.57,4.25v.45c-1.23.86-1.79-.37-2.58-.86A5,5,0,0,1,196.79,34.13Z"/>
  <path class="cls-5" d="M144.49,4.87c-1.06-.19-2.57.7-2.93-1.24Z"/>
  <path class="cls-10" d="M153.18,9.55a2,2,0,0,1-2.07-1.26A3.89,3.89,0,0,1,153.18,9.55Z"/>
  <path class="cls-5" d="M146.54,6.16c-.6,0-1.2,0-1.25-.84A1.22,1.22,0,0,1,146.54,6.16Z"/>
  <path class="cls-2" d="M171.89,36.24c-3-.72-6.1-.23-9.15-.4-1.77-.58-3.63.17-5.41-.4l-1.23,0c-2.34-.34-4.56-1.31-7-1.29a26.47,26.47,0,0,1-9.67-1.41c-2.52-.91-4.95-1.63-6.85-3.58-1.7-1.74-1.25-3.15.77-4.38,3.81-2.34,7.88-1.7,11.76-1,2.71.51,4.12.38,5.2.59,8.32,1.57,8.53,5,15.9,6.51,1.15.24,3.72,1.54,9.2,3a3,3,0,0,1,1.09.59c.62.48,1.29,1,.94,1.9-.42,1-1.3.49-2,.31A6.93,6.93,0,0,0,171.89,36.24Z"/>
  <path class="cls-2" d="M150.7,24.44a4.62,4.62,0,0,0,2.42.19,12.44,12.44,0,0,1,1.57-.43,5.22,5.22,0,0,1,2.3.59c1.26.49,1.88.77,2.21.89,4.18,1.42,8.3,3,12.41,4.67,3.37,1.77,7.1,2.64,10.47,4.4,1.6.84,3.46,1.22,4.69,2.71a55.51,55.51,0,0,1-14.88-1.22,4.08,4.08,0,0,1,3.74,0c.48.21,1.09.72,1.46.06s-.32-1.06-.82-1.45a11.21,11.21,0,0,0-5-1.67c-2.52-.45-4.51-2.07-7-2.47-2.68-.43-5.12-1.77-7.56-3a3.18,3.18,0,0,1-1.19-.79,3.18,3.18,0,0,0-3.06-1.35C151.62,25.75,151.11,25.14,150.7,24.44Z"/>
  <path class="cls-5" d="M196.79,34.13c1.73.47,2.73,2.28,4.55,2.58,1,.72,2,1.46,3,2.16.72.5,1.29,1.05,1.09,2.05a2.15,2.15,0,0,1-2,0h0c-1.9-.67-3.85-1.13-5.75-1.76a2.17,2.17,0,0,1-.07-.35c1.23-.83,1.7-1.76.27-2.82A2.41,2.41,0,0,1,196.79,34.13Z"/>
  <path class="cls-5" d="M186.77,37.46l-15.32-6.69a1.48,1.48,0,0,1,1.75-.17c5.29,2.16,10.91,3.44,16,6.26a.46.46,0,0,1,.16.58Z"/>
  <path class="cls-5" d="M186.73,37.44v-.31c1.24-.91,5.9-.79,5.9-.79a14.75,14.75,0,0,1,3.86,1.31c1.89,1.1,2.93,2.67,2.57,2.63C192.63,39.62,187.23,37.42,186.73,37.44Z"/>
  <path class="cls-5" d="M197.67,39.19A11.64,11.64,0,0,1,203.42,41a21.76,21.76,0,0,1-6.29-1.67Z"/>
  <path class="cls-2" d="M157.33,35.44c1.8.21,3.66-.47,5.41.4C160.94,35.66,159.09,36.3,157.33,35.44Z"/>
  <path class="cls-5" d="M126.63,3.29a18.51,18.51,0,0,1,.41,5C126.72,6.63,124.72,5.13,126.63,3.29Z"/>
  <path class="cls-5" d="M193,37.13H189.3c-3-1.1-5.94-2.28-9-3.29s-5.74-2.61-8.9-3.07l-16.9-6.35a3.38,3.38,0,0,1-2.18-.87l-2-1.28c-1.18-1.15-2.79-1.42-4.21-2.07-.14-.43-.27-.87-.41-1.31,3.78-.7,6.77,1.65,10,2.87,4,1.51,8,3.09,12.07,4.43,3.37,1.1,6.48,3,9.87,4.14,2.26.76,4.59,1.36,6.52,2.91.05,0,.14.1.18.08,2.29-1,3.89,1.44,6,1.25C192.23,34.4,193,35.31,193,37.13Z"/>
  <path class="cls-5" d="M203.42,41l2,0,.46,0A1.8,1.8,0,0,1,203.42,41Z"/>
  <path class="cls-29" d="M221.31,76.13l-19.28,0a11.45,11.45,0,0,0-1.86.07c-.66.11-1.34.65-1.88-.15-.4-.61.1-1.23.23-1.81.21-1,1.12-.68,1.74-.63,4.33.37,8.68.41,13,.38,4.74,0,9.48-.24,14.21-.34,1.28,0,1.49-1,1.66-1.93.45-2.65-.15-5.38.28-8,.32-1.89-.41-3.29-.88-4.87-.08-.28-.36-.43-.64-.13a.86.86,0,0,1-1.38.31,1,1,0,0,1-.27-1.58h4.15a3.92,3.92,0,0,1,.64,2.82c-.05,3.88,0,7.77,0,11.65,0,3.24-.71,3.88-3.93,4C225.15,76,223.22,75.72,221.31,76.13Z"/>
  <path class="cls-30" d="M226.26,57.5c0,1.2.45,1.73,1.65,1.27-.21,1.68-1.68,1.6-2.53,1.34a7.46,7.46,0,0,0-5.61.28,4,4,0,0,1-2.05,0,43.92,43.92,0,0,0-10.44-.13,24.73,24.73,0,0,1-8.21-.92c-.92-.23-.82-.92-.87-1.41-.06-.69.59-.87,1.18-.87,4.49,0,9-.34,13.45.1S221.79,57.28,226.26,57.5Z"/>
  <path class="cls-31" d="M221.31,76.13c1.62-.83,3.36-.31,5-.37,3.53-.11,4.06-.58,4.06-4.13q0-7.06,0-14.13h1.66c.63,1.92.25,3.88.21,5.83-.07,3.44,0,6.87,0,10.31,0,1.29-.22,2.41-1.81,2.48Z"/>
  <path class="cls-32" d="M230.45,76.12A2.14,2.14,0,0,0,231.69,74c.09-4.49-.45-9,.36-13.46.18-1-.8-2,0-3,.92.11.78.84.78,1.45,0,5.23,0,10.46,0,15.68C232.9,76.77,231.48,76,230.45,76.12Z"/>
  <path class="cls-28" d="M233.75,57.57l-.4-.07c1.81-1,3.74-.34,5.59-.33,2.12,0,4.24.42,6.37,0a1.07,1.07,0,0,1,1.35.68l-.2.24a1.54,1.54,0,0,1-.58.23,2,2,0,0,1-1.76-.39C240.66,57.87,237.19,58.1,233.75,57.57Z"/>
  <path class="cls-1" d="M246.64,71.92c-.88-1-.4-2.15-.43-3.23-.08-2.74,0-5.49,0-8.23a.79.79,0,0,1-.2-.53,4.25,4.25,0,0,1,.51-1.94l.18-.11C247,62.56,246.65,67.24,246.64,71.92Z"/>
  <path class="cls-33" d="M256.88,58.72c-.45.51-.29,1.14-.33,1.73-.37-1.14-1.77-1.88-1.23-3.37C256.69,56.78,256.73,57.8,256.88,58.72Z"/>
  <path class="cls-34" d="M253.24,76.16h-.43c-3.48-1.29-3.49-2.13-3.64-6.44-.11-3,.35-6.06,0-9.1-.27-2.13.73-2.8,3.22-2.7a2.43,2.43,0,0,1,2.41,3c-.69,3.28.11,6.53-.11,9.78C254.53,72.57,254.9,74.66,253.24,76.16Z"/>
  <path class="cls-35" d="M246.19,60.05c0,.13,0,.27,0,.41L244.93,60c-.35-.66-1-1.2-.81-2.08h2A2.34,2.34,0,0,1,246.19,60.05Z"/>
  <path class="cls-36" d="M206.72,118.2c-.34-1.55,1.19-2.45,1.27-3.86.89-.48,1.16.21,1.26.82.64,4.08,2.67,7.74,3.45,11.74s1.94,8.17,2.56,12.34c.38,2.55,1.09,5,1.29,7.65.24,3.31.28,6.62.33,9.93.05,3,.82,3.85,3.72,4.31,1.43.23,2.9,0,4.33.3a4.68,4.68,0,0,1,1,.32c1.21.57,1.21,1.19.1,1.93-1.63,1.08-3.41,1-5.2.73-.77-.11-1.49-.3-2.15.26a2.23,2.23,0,0,1-1.72,0c-2.63-.57-2.89-2.43-3-4.84a162.37,162.37,0,0,0-3.55-27.06,96.66,96.66,0,0,0-2.43-9.94A13.77,13.77,0,0,1,206.72,118.2Z"/>
  <path class="cls-37" d="M208,122.83c1.45,2.39,1.81,5.14,2.32,7.8,1.53,8,3.16,15.93,3.56,24.09.12,2.58.92,5.11.8,7.73,0,.68.25,1.09,1,1.09a1.47,1.47,0,0,1,1.53.86,1.17,1.17,0,0,1-1.68,0c-1.59.19-2-.75-2-2.15,0-2.73,0-5.46,0-8.19,0-.67.21-1.42-.38-2a147.15,147.15,0,0,0-3.11-20.69C209.27,128.54,208.6,125.69,208,122.83Z"/>
  <path class="cls-12" d="M225,161.86a34.93,34.93,0,0,1-5.77-.35c-1.91-.39-3-1.53-2.89-3.27.15-4.93-.56-9.83-.48-14.75,0-1.35-1.19-2.08-1.22-3.3-.08-2.66-1.26-5.19-1.49-7.67-.5-5.43-2.74-10.21-4.21-15.27-.28-1,.65-2.41-1-2.91-1.81-3.51-1.17-7.31-1.23-11,.44-2.09.06-4.2.2-6.3,0-.68-.32-2.06,1.13-.86,0,0,.12.19,0,0-.4-.89.25-1.65.24-2.48.09-.27-.3-.08,0-.06.06,0,.05.07,0,.21-.14.46-.11,1.06-.76,1.1s-.64-.42-.64-.87c0-3.28,0-6.56,0-9.79,1.26-.22,1,1.57,2.12,1.17-.71-.91-1.55-1.67-2.32-2.52l0-.85c0-.65,0-1.27,1-1.17,7.14.73,14.3.12,21.44.32-1.15,2.34-1.09,4.85-1.1,7.38,0,8.89.13,17.79-.06,26.68-.15,4.69-.51,9.37-.39,14.07.17,6.4,0,12.81,0,19.22,0,2.81.13,5.63-.11,8.44A6,6,0,0,1,225,161.86Z"/>
  <path class="cls-38" d="M227.5,115.62q0-15,0-30.1c0-1.67.16-3.23,1.67-4.27l4.58-.39c0,.94-.88,1.1-1.42,1.55-.82.33-1.78.19-2.51.8-.9.9-.8,2.09-.81,3.19,0,12.64-.35,25.29.08,37.91s.1,25.11-.11,37.66a4.67,4.67,0,0,1-.39,2.27.81.81,0,0,1-1,.31,7.39,7.39,0,0,1-.55-4.46c.53-6.09.36-12.18.34-18.27,0-7.23-.43-14.47.26-21.7A28.28,28.28,0,0,0,227.5,115.62Z"/>
  <path class="cls-39" d="M232.51,82.07c-.08-.92.92-.7,1.23-1.21h4.11c1.64.55,3.37-.17,5,.41h0l-1.26.82a2,2,0,0,1-1.91.58C237.29,82.42,234.89,82.33,232.51,82.07Z"/>
  <path class="cls-29" d="M242.86,81.26c-1.67-.22-3.39.41-5-.41C239.52,81,241.25,80.37,242.86,81.26Z"/>
  <path class="cls-16" d="M206.76,83c.75,1.23,2-.46,2.8.51.29.9-1.23.54-.88,1.36.18.44.74.09,1.17.1-1.28,2-1.28,2-2.53-.37V94.73c1-.56.45-1.41,1.08-2.53a19.83,19.83,0,0,1-.16,6.22c-.85-1,.3-1.94-.9-2.43-.63,2.41.39,5-.58,7.32Z"/>
  <path class="cls-40" d="M228.31,41.33c0,3.17,0,6.34,0,9.51,0,.58.21,1.41-.71,1.48-1.09.09-.91-.82-.92-1.49q0-9.61,0-19.23c0-.68-.11-1.5,1-1.43s.62.93.63,1.44c0,3.24,0,6.48,0,9.72Z"/>
  <path class="cls-29" d="M230.87,164.81H215.48c0-.13,0-.27,0-.4h3.34c1.78-.73,3.61,0,5.42-.19,1.1-.14,2.26-.84,3.3.19h.84a1.72,1.72,0,0,1,1.14-.47,2.45,2.45,0,0,1,.93.15A.68.68,0,0,1,230.87,164.81Z"/>
  <path class="cls-29" d="M243.26,144.43v1.28l-.37,0c-.78-.71-.56-1.68-.61-2.57-.13-2.23.25-4.49-.26-6.71a12.91,12.91,0,0,1-.16-2.41c.6-15.81.38-31.63.4-47.44a5,5,0,0,0-.37-2.89,1.51,1.51,0,0,0-1-.59c-2.86-.06-5.71-.06-8.57,0a1.29,1.29,0,0,0-1,.57,8.18,8.18,0,0,0-.24,3.15q0,32,0,63.9c0,1.11.22,2.27-.41,3.31a.48.48,0,0,1-.72,0c-.94-1.65-.51-3.47-.5-5.19.07-20.85-.13-41.69,0-62.54,0-1.31-.26-2.71.67-3.87.73-.8,1.69-.28,2.53-.47a7.92,7.92,0,0,1,4.81-.2,27.83,27.83,0,0,0,4.27.21c.67.1,1.56-.25,1.71.89.76.81.58,1.83.58,2.8,0,12.62-.06,25.23,0,37.84,0,4.85.41,9.71-.62,14.51C243.27,140.23,243.27,142.33,243.26,144.43Z"/>
  <path class="cls-41" d="M244.52,83.37c1.07.52.82,1.52.82,2.41,0,3.51,0,7,0,10.54v22.27a3.29,3.29,0,0,0,0,2.54h0c0,1.28-.31,2.21-1.85,1.4-.08-10.78.15-21.56.3-32.33C243.83,87.88,243.61,85.58,244.52,83.37Z"/>
  <path class="cls-42" d="M243.69,122.83a2.65,2.65,0,0,0,1.66-1.7c1.3,1.68.53,3.68.83,5.52-1,3.81-1.45,7.78-2.9,11.47q0-7.23,0-14.47C243.57,123.45,243.39,123,243.69,122.83Z"/>
  <path class="cls-43" d="M243.69,122.83a.84.84,0,0,1-.4.82q0-20.34,0-40.68c.57-.4,1-.25,1.22.4a4.1,4.1,0,0,1-.07,2.56c-.79,1.94-.26,4.12-.27,6.16C244.14,102.34,243.4,112.58,243.69,122.83Z"/>
  <path class="cls-42" d="M245.35,121.13a1.94,1.94,0,0,1,0-2.54Z"/>
  <path class="cls-44" d="M208.49,16.36a1.51,1.51,0,0,1,0-.37c6,.56,12.06.23,18.09.3a10.75,10.75,0,0,0,2.66-.21c1.77-.43,2.28.29,1.93,2-.5.12-.74-.57-1.24-.4a9.44,9.44,0,0,0-.11,7c.43.28,1,.29,1.41.57,0,.4-.12.74-.54.71a176.82,176.82,0,0,0-22.2.06,1.45,1.45,0,0,1,0-.36,3.32,3.32,0,0,0,1.43-3.27,27.07,27.07,0,0,1,0-3.37A3.33,3.33,0,0,0,208.49,16.36Z"/>
  <path class="cls-38" d="M241.57,18c0-2.94,2.34-1.63,3.66-1.92s1.5.91,1.37,2c-.3,2.55.49,5.16-.39,7.69-.69.35-1.25,0-1.8-.37-.65-1.7-.36-3.48-.44-5.23a9.18,9.18,0,0,0-.08-1.48c-.08-.42-.22-.89-.72-.88s-.56.54-.58,1a13.15,13.15,0,0,0,.44,4.18c.28.95.64,2.11-.74,2.66-.7-.05-.9-.51-.88-1.14A52.89,52.89,0,0,1,241.57,18Z"/>
  <path class="cls-45" d="M240.84,18.5c0,1.69-.05,3.37-.07,5.05a3.59,3.59,0,0,0-3.5.3c-1.47,1-2.58.5-3.49-.88-1.32-2.15-1.07-3.58.77-5.13a2,2,0,0,1,2.32-.14,6.22,6.22,0,0,0,3,.72,4.58,4.58,0,0,1,.53-.14A.5.5,0,0,1,240.84,18.5Z"/>
  <path class="cls-46" d="M232,25.28c-.8-2.81-.21-5.67-.31-8.5a7.9,7.9,0,0,1,3.34-.14,4,4,0,0,1-1.15,2.25c-1.23,1.28-1.31,2.55,0,3.82.36.87,1.57,1.55.53,2.7A5.61,5.61,0,0,1,232,25.28Z"/>
  <path class="cls-47" d="M233.72,22.71c-1.56-1-1.2-2.29-.42-3.57.43-.69.94-1.33,1.68-2.36h-3.26c2.78-1,5.63-.23,8.45-.35,1,0,.27,1.29,1,1.61.14.07.2.16.18.26s-.06.17-.1.17a2.22,2.22,0,0,0-.37,0l-.48,0c-.37-.42-.34-1.22-1.25-1.22.7.2.94.74,1.25,1.22-.87,1.18-2.07.55-2.8.12-1.48-.87-2.42-1-3.56.58s-.71,2.4.14,3.55C234,22.88,233.86,22.89,233.72,22.71Z"/>
  <path class="cls-48" d="M233.72,22.71h.42c.9,1.32,1.76,1.63,3.2.48,1-.77,2.44-1.26,3.43.36a2.13,2.13,0,0,1-.42,1.69,4.43,4.43,0,0,1-2.9,0h0a2.09,2.09,0,0,0-2.07,0h0a.55.55,0,0,1-.84-.05A4.84,4.84,0,0,0,233.72,22.71Z"/>
  <path class="cls-49" d="M230,16.78c.92-.08.72.9,1.16,1.27l.06,7.2a1.1,1.1,0,0,1-1.24,0A12.72,12.72,0,0,1,230,16.78Z"/>
  <path class="cls-44" d="M241.21,18.47c0-.14-.06-.29-.08-.43l.44-.07c0,2,.06,3.91,0,5.86,0,.92.22,1.51,1.25,1.42a1.67,1.67,0,0,1,1.66,0l1.69.45c-1.29.73-2.68.32-4,.27-.95,0-.9-.87-.91-1.59C241.26,22.41,241.23,20.44,241.21,18.47Z"/>
  <path class="cls-45" d="M234.55,25.21l.84.05a3.41,3.41,0,0,1-3.36,0Z"/>
  <path class="cls-45" d="M237.45,25.26l2.9,0A2.49,2.49,0,0,1,237.45,25.26Z"/>
  <path class="cls-45" d="M235.39,25.26a1.36,1.36,0,0,1,2.07,0Z"/>
  <path class="cls-50" d="M208.49,16.36c1.46,0,2.09.65,2,2.18a49.84,49.84,0,0,0,0,5c.07,1.52-.46,2.28-2,2.08A74,74,0,0,1,208.49,16.36Z"/>
  <path class="cls-15" d="M246.19,60.05c0-.7,0-1.39,0-2.08a.62.62,0,0,1,.33,0C246.53,58.7,246.78,59.43,246.19,60.05Z"/>
  <path class="cls-12" d="M250.66,69.2c0-3,0-6,0-9.05,0-.64-.16-1.7,1.15-1.49,1,.16,1.86.38,1.82,1.75-.09,3.59.4,7.19,0,10.79-.12,1.07-.26,2.23-1.58,2.36s-1.27-1.21-1.51-2.07a17,17,0,0,1-.31-2.27Z"/>
  <path class="cls-37" d="M227.5,164.4h-8.72c-.34-1.51.83-.85,1.23-.74a7.13,7.13,0,0,0,6.42-.88c-.17-.81-1.18-.26-1.42-.92,2-2.66,2.09-5.77,2.08-8.93,0-7.5.16-15-.07-22.52-.15-4.85.48-9.66.21-14.49,0-.1.18-.2.27-.3,1,2.89.09,5.81.09,8.72,0,6.45-.29,12.89.13,19.34.28,4.28,0,8.56-.08,12.84C227.57,159.15,227.55,161.77,227.5,164.4Z"/>
  <path class="cls-51" d="M230,82.54v71.68c1.22,2.46.35,5.08.57,7.62.08,1,.06,2-1,2.56h-1.23c.11-12,.85-23.95.33-35.91-.62-14.19-.1-28.37-.33-42.55C228.32,84.55,228.09,83,230,82.54Z"/>
  <path class="cls-52" d="M230.36,154.22c0-7.56.09-15.11.09-22.67q0-23.64,0-47.28c0-.48-.13-1,.36-1.34a2.53,2.53,0,0,1,.59,2c.07,1.34.09,2.68.09,4q0,26.82,0,53.64c0,6-.07,12,.42,18,.08.21.17.43.27.64a1.25,1.25,0,0,1,.06.61c-.17.59-.89,1.26.21,1.7a5.33,5.33,0,0,0,2.48-.06,34.05,34.05,0,0,1,3.5,0c1,.21,2.09.3,3.14.42a.31.31,0,0,1,0,.53,2.31,2.31,0,0,1,0,.37l-10.7.06-.43-.42A53.17,53.17,0,0,1,230.36,154.22Z"/>
  <path class="cls-53" d="M241.6,164.38l-.06-.45a2.11,2.11,0,0,1-.5-1.47c.11-3.26-.28-6.53.1-9.8.6-2.37.2-4.79.29-7.18a25.16,25.16,0,0,1,.07-3,3.72,3.72,0,0,1,.14-.74,11.94,11.94,0,0,0,.23-3.32c0-.75-.06-1.55.63-2.1.59,3.13.06,6.3.39,9.45-.28,5.48-.55,11-.85,16.44C242,162.94,242.3,163.77,241.6,164.38Z"/>
  <path class="cls-37" d="M230.36,154.22c0,3.39,0,6.78.08,10.17h-.87c.86-2.59.21-5.25.4-7.88.06-.76,0-1.53,0-2.3Z"/>
  <path class="cls-54" d="M232.06,161.43c-.59-.07-1-.21-1-1-.6-25.83-.1-51.66-.27-77.48a44.62,44.62,0,0,1,11.66,0,.37.37,0,0,1,0,.58c-2.93.18-5.85.85-8.81.23-.51-.11-1.38-.24-1.39.44,0,1,.9.57,1.44.53,2-.16,4-.51,5.91.23.43.57,2,.72.72,1.94-.4.23-.75.62-1.28.36a5.33,5.33,0,0,0-1.84-.93c-1.69-.3-2.49.23-2.73,2a19.29,19.29,0,0,0,0,4.23c.7,9.51.2,19,.27,28.55.05,5.49,0,11,0,16.47,0,3.87-.17,7.74-.13,11.6,0,2.89.24,5.77.33,8.66a7,7,0,0,1-.29,2.92,1.59,1.59,0,0,1-.62.76c-1.5.09-.87-1.16-1.17-1.71C232.62,160.21,232.66,161,232.06,161.43Z"/>
  <path class="cls-53" d="M242.43,83.38c0-.16,0-.32,0-.49.57.38.43,1,.43,1.53,0,12.33,0,24.66-.11,37,0,4.3-.21,8.59-.33,12.88a.49.49,0,0,1-.68-.2c-.88-3.06-.46-6.19-.3-9.25.59-11.56.24-23.13.32-34.69,0-1.49-.05-3,0-4.45A3,3,0,0,1,242.43,83.38Z"/>
  <path class="cls-55" d="M242,134.27h.42c0,.67,0,1.35,0,2-.38,1.85.44,3.81-.47,5.61A10.73,10.73,0,0,1,242,134.27Z"/>
  <path class="cls-56" d="M230,16.78c0,2.83,0,5.65,0,8.48-.47-.05-1.14,0-1.16-.61,0-2.57-.48-5.19.62-7.67C229.49,16.85,229.81,16.84,230,16.78Z"/>
  <path class="cls-57" d="M244.52,25.25a1.35,1.35,0,0,1-1.66,0c-.2-2.34-1.13-4.58-.87-7,.09-.83.2-1.34,1.09-1.34s1.4.31,1.41,1.18C244.54,20.47,244.51,22.86,244.52,25.25Z"/>
  <path class="cls-58" d="M238.84,21.66c-1.53.38-3.08,2-4.41.05a1.66,1.66,0,0,1,.89-2.26C237.13,18.8,238.13,19.9,238.84,21.66Z"/>
  <path class="cls-59" d="M240.36,18.46a7.5,7.5,0,0,0-2.66-1.19c2.06-.9,2.42-.72,2.66,1.19Z"/>
  <path class="cls-60" d="M238.7,164h-4.15a3.14,3.14,0,0,1-.94-2,.92.92,0,0,1,.43-.35c1.53-.09,3.13.75,4.57-.38.1-.17.21-.33.3-.51.16-1,.58-1.85.7-2.82a.94.94,0,0,1,1.13-.92c.62.09.66.58.66,1.1,0,1,0,2.08,0,3.12C240.72,162.34,239.37,162.81,238.7,164Z"/>
  <path class="cls-61" d="M238.7,164c0-1.74,1.15-2.23,2.5-2.55.38.36.05.94.37,1.31l0,1.19C240.61,164.75,239.65,164.13,238.7,164Z"/>
  <path class="cls-62" d="M233.72,161.86c.38.66,1,1.22.83,2.11a3.64,3.64,0,0,1-2.48,0c-.89-.71-.88-1.42,0-2.12h0A1.22,1.22,0,0,1,233.72,161.86Z"/>
  <path class="cls-60" d="M233.72,161.86h-1.66v-.43a7.73,7.73,0,0,1,.89-3.65c.81,1.25-.18,2.66.77,3.65.11.1.14.19.11.28s-.07.15-.1.15Z"/>
  <path class="cls-60" d="M232.06,161.86a1.77,1.77,0,0,0,0,2.12C230.74,163.27,230.74,162.57,232.06,161.86Z"/>
  <path class="cls-63" d="M242,134.27c0,2.55,0,5.1,0,7.65v.42c-1.88-.81-1.18-2.61-1.47-4-1.27-7.64-.18-15.29-.09-22.94.1-8.58.44-17.18-.23-25.77-.08-1.08-.93-2.11-.28-3.26.21-.09,0-.48-.41-.86,1-.76,1.9-.44,2.85,0,0,11.23.15,22.46,0,33.68C242.28,124.19,242,129.23,242,134.27Z"/>
  <path class="cls-52" d="M241.2,138.53c0,1.33-.09,2.68.82,3.81v3c-.58,2.37.16,4.83-.4,7.21,0,3.4,0,6.81-.05,10.21a1.53,1.53,0,0,1-.37-1.31c0-1.1,0-2.21,0-3.32,0-.44-.14-.85-.69-.8s-.54.42-.45.76c.35,1.32-.7,2.22-.92,3.36-1.25-1-.57-2.28-.6-3.46a10.11,10.11,0,0,1,.2-2.26c.5-3.23.12-6.48.23-9.72.07-1.9-.12-3.81.13-5.71C239.47,139.3,240,138.42,241.2,138.53Z"/>
  <path class="cls-55" d="M241.62,152.53c.21-2.4-.49-4.85.4-7.21C241.81,147.72,242.49,150.17,241.62,152.53Z"/>
  <path class="cls-64" d="M239.12,155.92c.24,1.84-.47,3.68,0,5.51h0c-1.7.41-3.43,1.12-5-.42.09-3.49-.23-7-.22-10.45,0-2.53-.19-5.11,0-7.68a71.38,71.38,0,0,0,0-7.46c-.11-2.75.2-5.6.21-8.41,0-9.35,0-18.7,0-28.05,0-3.46-.68-6.86-.46-10.32.18-2.88,2.28-4.21,4.82-3,.66.32.43,1.18,1,1.52a4.53,4.53,0,0,1,.62,2.62c0,3.87.25,7.74-.29,11.6-.33,2.39.33,4.76.37,7.15.1,7.61-.32,15.19-.51,22.79-.09,7.78-.64,15.56-.41,23.35A1.93,1.93,0,0,1,239.12,155.92Z"/>
  <path class="cls-65" d="M239.13,131.31c.74-14.7.2-29.41.41-44.12a.9.9,0,0,1,.41-.85c2.13,5.57,1,11.38,1.24,17.08.35,8-.22,15.91-.57,23.84-.16,3.84.37,7.52.58,11.27l-1.66,1.27c-.44-2.07-.08-4.16-.21-6.23C239.28,132.82,239.53,132,239.13,131.31Z"/>
  <path class="cls-66" d="M242.39,85.47c-.95.47-1.9-.21-2.85,0-1.93-.8-3.89-.46-5.85-.17-.81.12-1.68.53-2.29-.26a1.49,1.49,0,0,1,0-1.62c.52-.79,1.42-.53,2.09-.39a14.94,14.94,0,0,0,6.35,0,3.39,3.39,0,0,1,2.61.35C242.42,84.08,242.4,84.77,242.39,85.47Z"/>
  <path class="cls-52" d="M234.14,161c1.6.89,3.33.21,5,.42-1.68,1.71-3.56.68-5.39.43,0-.15,0-.29,0-.43Z"/>
  <path class="cls-55" d="M239.13,131.31c.93,2.79.15,5.67.41,8.49,0,4.64,0,9.29,0,13.93,0,.74.28,1.57-.4,2.19Q239.12,143.62,239.13,131.31Z"/>
  <path class="cls-2" d="M299.62,35.24a1.41,1.41,0,0,0-1.34-.34A23.49,23.49,0,0,1,293,35c-3,.12-6-.35-8.89.4-4.74,1.26-9.59,1.25-14.43,1.34-.82,0-1.63,0-2.45,0-2.69,0-5.41-.24-7.84,1.37a1.51,1.51,0,0,0-.53.44.57.57,0,0,0,.17.63,1.07,1.07,0,0,0,.65.12c2.61-.51,5.12-1.49,7.81-1.52h1.61l7.34,0a27.65,27.65,0,0,0,4.09-.4c9.08-1.15,21.13-1.46,21.12-1.91C301.62,35.43,301.27,35.33,299.62,35.24Z"/>
  <path class="cls-5" d="M374.12,12.72l.48-1.13c.38-1.18,1.21-2.24,1-3.59-.18-.91-.09-2.07-1.5-2-.47,1,.22,1.91,0,2.91a7.47,7.47,0,0,1-5.28,5.82A34.78,34.78,0,0,1,356,16.42a10.41,10.41,0,0,0-2.42.24c-9.32,1.88-18.75,1.39-28.15,1.44a1.45,1.45,0,0,1-1.11-.39,10.07,10.07,0,0,1,3.79-2.11,92.53,92.53,0,0,1,10.65-4c2-.55,3.92-1.53,6-2a1.72,1.72,0,0,0,1.43-1.34.93.93,0,0,0-.83-.49,68.15,68.15,0,0,0-9,2.9h0c-3.41,1.35-7,2.13-10.13,4.31l-1.27.72c-.55.1-1.81,1.41-2.68,2.74.19.79.85,1,1.55,1.12a45.48,45.48,0,0,0,12,.5c2.12-.2,4.26-.37,6.39-.59,5.5.06,11-.58,16.43-1a59.36,59.36,0,0,0,8.56-1.18C369.8,16.66,372.67,15.65,374.12,12.72Z"/>
  <path class="cls-5" d="M292.69,13.56c-12.49,6.76-18,9.93-20.59,11.53-1.79,1.1-8.41,4.9-9.27,5.49-.48.33-1.2.42-1.15,1.27a1.08,1.08,0,0,0,.51.33,4.37,4.37,0,0,0,2.81-1c6.33-3.91,12.81-7.54,19.24-11.28,3.42-2,6.9-3.82,10.31-5.83,2.58-1.51,5.3-2.77,7.89-4.29a6.88,6.88,0,0,1,2.28-1.14c1.67-.23,2.86-1.53,4.35-2.15a3.84,3.84,0,0,1,1.28-1c.32-.14.63-.32.95-.49.94-.36,1.91-.65,2.83-1.08A2,2,0,0,0,315.27,3a1.19,1.19,0,0,0,0-.62.66.66,0,0,0-.27-.26,1,1,0,0,0-.82.07,41.44,41.44,0,0,0-5.94,3c-1.38.75-3.51,1.88-6.18,3.25l-2.51,1.29C297.91,10.59,295.56,11.86,292.69,13.56Z"/>
  <path class="cls-2" d="M303.34,35.29c5.05-.34,10.12-.48,14.93-2.45a17.17,17.17,0,0,0,3.87-2.27c1.75-1.32,2.74-3.1,1.87-5.47a8.13,8.13,0,0,0-2.47-2.17,15.51,15.51,0,0,0-3.16-.83,28.17,28.17,0,0,0-5.92,0l-.44.05s-.45.06-.93.15a52.63,52.63,0,0,0-5.74,2c1.33,1.18,2.69.8,4.18.28,4.09-1.42,8.2-1.68,12.16.5,1.49.82,1.65,1.87.65,3.26a7.91,7.91,0,0,1-4,2.78c-3.07,1-6.12,2.34-9.44,2.16a27.78,27.78,0,0,0-8,.93c-.56.14-1.44,0-1.09,1.14A10.85,10.85,0,0,0,303.34,35.29Z"/>
  <path class="cls-5" d="M260.43,33.15c4-3,8.43-5.2,12.69-7.71,4.48-2.63,9.09-5,13.4-8-2.19.13-3.83,1.62-5.64,2.61-5.73,3.18-11.43,6.43-17,9.91a120.11,120.11,0,0,0-11,7.21,2,2,0,0,0-.86,1.13c.89.51,1.44-.33,2.14-.59,1.86-1.1,3.44-2.65,5.43-3.53A1.31,1.31,0,0,0,260.43,33.15Z"/>
  <path class="cls-5" d="M344.55,8.28l.91.05a3.67,3.67,0,0,0,3.19-.1c4.46-1.77,9.21-2.63,13.77-4.07a11.71,11.71,0,0,1,9,.67c.91.47,1.71,1.12,2.66,1.5a2.53,2.53,0,0,1,.83,3.58,2.5,2.5,0,0,0-.37,1.68C377,8.68,376,5.61,372,3.53c-2.16-1.41-10-.85-10.83-.42-1.51.39-16.13,4.25-16.61,4.69A.49.49,0,0,0,344.55,8.28Z"/>
  <path class="cls-5" d="M327.32,9.77c3.16-2.77,3.57-6.13.91-8A9.28,9.28,0,0,0,319.37.64c-1.15.38-2.28.81-3.45,1.11-.33.27-.76.51-.31,1a4,4,0,0,0,3.54-.12,10.37,10.37,0,0,1,8.09.17,5.45,5.45,0,0,1,.95.64c1.33,1.44-.12,2.71-.24,4.05l-.26.49C327.43,8.57,326.8,9,327.32,9.77Z"/>
  <path class="cls-10" d="M327.32,9.77c-.1-.74.62-1.07.8-1.67-.72-.48-1.15,0-1.54.53-2.95,3.67-7,5.5-11,7.67-2,1.08-4.18,1-6,2.27-.28.47-.54.95-.2,1.51a45.23,45.23,0,0,0,8.39-2.67c.9-.42,1.66-1.09,2.57-1.48a27.45,27.45,0,0,0,6.11-4.87Z"/>
  <path class="cls-5" d="M267.47,37.83c-2.83-.53-5.41.71-8.08,1.27-2-.07-3.8.84-5.7,1.19a4.64,4.64,0,0,0-.53.16,2.52,2.52,0,0,1-2,.06,5.39,5.39,0,0,1-.79-.56c-.51.17-.86.5-.64,1.08s.71.57,1.2.61a15.09,15.09,0,0,0,5.71-.94C260.24,39.64,263.87,38.77,267.47,37.83Z"/>
  <path class="cls-5" d="M316.05,2.45l.5-.7a10.11,10.11,0,0,0-7.69,3.46c2.23-1.09,4.4-2.33,6.89-2.69C315.89,2.72,316,2.69,316.05,2.45Z"/>
  <path class="cls-5" d="M250.39,40a.84.84,0,0,0,.38.83.36.36,0,0,0,.49.06c.79-2,3.14-2.38,4.1-4.21a.68.68,0,0,0-.12-.55l-2,.93C252.45,38.16,251,38.58,250.39,40Z"/>
  <path class="cls-5" d="M374.15,6c-1.43-2.33-3.69-3.12-6.11-3.32a15.31,15.31,0,0,0-7.7,1.23,36.25,36.25,0,0,1-6.17,1.81c-2.75.67-5.26,2.19-8.12,2.41a5.74,5.74,0,0,1-2.7,1.31,59.31,59.31,0,0,0-8.68,3,53.76,53.76,0,0,1-5.26,2c-2,.61-3.49,2.06-5.46,2.53a1.07,1.07,0,0,0-.82,1.29c.14.57.73.52,1.21.52,8.19,0,16.46.61,24.52-.64,5.17-.81,10.39-.42,15.46-1.54,2.63-.59,5.42-.83,7.64-2.87C374.49,11.32,375.17,9.32,374.15,6Z"/>
  <path class="cls-5" d="M309.81,18.71a3.37,3.37,0,0,1,2.15-.42,3.15,3.15,0,0,0,2.72-1c1.08-1.09,2.68-1.41,4-2a33.07,33.07,0,0,0,7.7-5.38c.62-.53.6-1.78,1.75-1.81h0c.1-1.66,1.08-3.24.39-5l-.78-.54c-4.28-1.8-8.44.12-12.65.42l-1.21.46c-.61,1.27-1.9.87-2.87,1.24l-.79.45c-.32.42-.84.52-1.22.84-1.67.32-2.66,2.17-4.49,2.12a6.15,6.15,0,0,1-2,1.27c-2.85,1.5-5.71,3-8.56,4.5-2.47,1.33-4.94,2.68-7.39,4.07-3.56,2-7.09,4.13-10.64,6.2-3.25,1.89-6.5,3.79-9.77,5.66-1.28.74-2.35,1.9-3.9,2.09-.92.78-2.19,1-2.92,2.07a9.9,9.9,0,0,1-1.43,2c-.91,1.33-.46,2.44,1.05,2.68h0A12.56,12.56,0,0,1,263.49,37c.67-1.35,1.8-1.69,3.15-2.2,2.54-1,5.4-.66,7.76-2.45,1.44-1.11,3.39-1.38,5.13-2,2.77-.95,5.37-2.29,8-3.49,1.8-.81,3.72-1.28,5.56-2q6.4-2.38,12.57-5.3C307,19,308.59,19.74,309.81,18.71Z"/>
  <path class="cls-5" d="M315.09,3c2.94.61,5.66-1,8.57-.89,1.39.05,2.63,1.32,4.08.47A9.66,9.66,0,0,0,319.58,2a6.94,6.94,0,0,1-4.16.49l-.3.07Z"/>
  <path class="cls-5" d="M259.72,34c.75-.8,2-.94,2.5-2.06l-.53-.07a33.15,33.15,0,0,0-6.45,4.25v.46c1.2.86,1.76-.37,2.53-.87A4.84,4.84,0,0,0,259.72,34Z"/>
  <path class="cls-5" d="M311,4.7c1-.2,2.52.69,2.87-1.24Z"/>
  <path class="cls-10" d="M302.48,9.38a1.92,1.92,0,0,0,2-1.27A3.91,3.91,0,0,0,302.48,9.38Z"/>
  <path class="cls-5" d="M309,6c.59,0,1.17,0,1.22-.84A1.18,1.18,0,0,0,309,6Z"/>
  <path class="cls-2" d="M284.14,36.07c3-.73,6-.24,9-.4,1.73-.58,3.56.17,5.3-.4l1.21,0c2.3-.34,4.47-1.3,6.85-1.28A25.65,25.65,0,0,0,316,32.55c2.47-.92,4.85-1.63,6.72-3.58,1.67-1.74,1.22-3.15-.76-4.39-3.74-2.33-7.73-1.7-11.53-1-2.66.5-4,.38-5.1.59-8.15,1.57-8.37,5-15.6,6.5-1.13.24-3.65,1.55-9,3a3.31,3.31,0,0,0-1.07.59c-.6.48-1.26,1-.92,1.91.42,1,1.28.49,1.94.31A6.66,6.66,0,0,1,284.14,36.07Z"/>
  <path class="cls-2" d="M304.92,24.27a4.69,4.69,0,0,1-2.38.19c-.73-.14-.86-.38-1.53-.43a5,5,0,0,0-2.26.58c-1.24.5-1.85.78-2.17.89-4.1,1.43-8.14,3-12.17,4.68-3.3,1.77-7,2.64-10.27,4.4-1.56.83-3.39,1.21-4.6,2.7a53.49,53.49,0,0,0,14.6-1.21,3.88,3.88,0,0,0-3.67,0c-.48.2-1.07.71-1.43.05s.3-1.05.8-1.44a10.71,10.71,0,0,1,4.89-1.67c2.47-.45,4.41-2.07,6.86-2.47,2.62-.43,5-1.77,7.42-3a3.17,3.17,0,0,0,1.16-.8,3.14,3.14,0,0,1,3-1.35C304,25.58,304.52,25,304.92,24.27Z"/>
  <path class="cls-5" d="M259.72,34c-1.7.47-2.68,2.28-4.47,2.58-1,.72-2,1.46-3,2.16-.71.5-1.27,1-1.07,2a2,2,0,0,0,2,0h0c1.86-.66,3.78-1.13,5.64-1.75a2.29,2.29,0,0,0,.07-.36c-1.21-.82-1.67-1.76-.26-2.82A2.42,2.42,0,0,0,259.72,34Z"/>
  <path class="cls-5" d="M269.54,37.28l15-6.69a1.44,1.44,0,0,0-1.71-.17c-5.18,2.16-10.7,3.45-15.65,6.27a.47.47,0,0,0-.15.58Z"/>
  <path class="cls-5" d="M269.58,37.27V37c-1.22-.92-5.79-.8-5.79-.8A14.42,14.42,0,0,0,260,37.48c-1.85,1.1-2.88,2.66-2.53,2.63C263.79,39.45,269.09,37.25,269.58,37.27Z"/>
  <path class="cls-5" d="M258.85,39a11.16,11.16,0,0,0-5.64,1.75,20.83,20.83,0,0,0,6.18-1.67Z"/>
  <path class="cls-2" d="M298.41,35.27c-1.76.2-3.59-.47-5.3.4C294.87,35.49,296.69,36.13,298.41,35.27Z"/>
  <path class="cls-5" d="M328.52,3.12a18.45,18.45,0,0,0-.39,5C328.43,6.45,330.4,5,328.52,3.12Z"/>
  <path class="cls-5" d="M263.39,37h3.67c2.92-1.11,5.82-2.28,8.77-3.29s5.64-2.62,8.73-3.08l16.58-6.35a3.18,3.18,0,0,0,2.14-.87l2-1.27c1.16-1.16,2.73-1.42,4.13-2.07.13-.44.27-.88.4-1.32-3.7-.69-6.64,1.66-9.81,2.87-3.93,1.52-7.83,3.1-11.84,4.44-3.3,1.1-6.34,3-9.67,4.14-2.22.75-4.51,1.36-6.4,2.9,0,0-.14.11-.18.09-2.24-1-3.81,1.44-5.87,1.25C264.19,34.23,263.42,35.14,263.39,37Z"/>
  <path class="cls-5" d="M253.21,40.77l-2,0-.45,0A1.74,1.74,0,0,0,253.21,40.77Z"/>
  <path class="cls-67" d="M154.66,57.91a2.43,2.43,0,0,1,.72-.16,9.1,9.1,0,0,1,1.46.34,31.53,31.53,0,0,1,5.41,2.41c3,1.69,5.92,3.39,8.81,5.21a83.56,83.56,0,0,1,16.18,13.57,81,81,0,0,1,10.7,14.24l1.95,3.29a74.87,74.87,0,0,1,4.61,9.7c.7,1.65,1.42,3.3,2.2,4.92a28.69,28.69,0,0,1,1.68,4.29,143.26,143.26,0,0,1,4,17.6c.64,3.79,1.27,7.6,1.58,11.44.17,2.18.21,4.36.3,6.54,0,.73.34,5.44.85,6s19.93,0,25.08,0c.62,0,.86-1.93.83-2.43-.19-3.48,2.17-12.07,3-19.26a109.14,109.14,0,0,1,3.28-16.28,47.4,47.4,0,0,1,2.67-7.19c.57-1.19,1-2.46,1.48-3.68.66-1.62,1.26-3.27,2-4.85a102.06,102.06,0,0,1,11.81-19.37A80,80,0,0,1,279.65,70.1a120.7,120.7,0,0,1,13.77-9,42.21,42.21,0,0,1,6.41-3,12.36,12.36,0,0,1,1.82-.43.46.46,0,0,1,.4.22.47.47,0,0,1-.09.45c-.55.58-1.11,1.17-1.71,1.7-2.29,2-4.63,4-6.89,6a116.15,116.15,0,0,0-19.31,22.23,106.92,106.92,0,0,0-10.11,19.35c-1.35,3.36-2.52,6.8-3.56,10.29s-1.84,6.85-2.56,10.33c-.61,2.91-1.08,5.86-1.48,8.81-.33,2.51-.61,5-.74,7.55-.07,1.55-.31,3.09-.43,4.63-.08,1.09-.13,2.19-.18,3.28a6.72,6.72,0,0,0,0,1,3.83,3.83,0,0,0,2.82,3.5,10.23,10.23,0,0,0,5.7,0,3.59,3.59,0,0,0,2.6-2.39,11.76,11.76,0,0,0,.53-2.24c.48-3.73.92-7.46,1.39-11.18a15.79,15.79,0,0,1,.3-1.67c.72-3,1.39-6,2.21-9a65.27,65.27,0,0,1,3.27-8.89,73.16,73.16,0,0,1,8.67-14.87A75.09,75.09,0,0,1,299,91a84.42,84.42,0,0,1,25.82-12.25c.42-.12.85-.21,1.28-.3a4.35,4.35,0,0,1,2.18,0c-.06.22-.05.47-.17.58a15.44,15.44,0,0,1-1.63,1.4c-2.07,1.46-4.17,2.87-6.24,4.33a132.58,132.58,0,0,0-10.89,8.49,114.89,114.89,0,0,0-10.19,9.92,77.94,77.94,0,0,0-15.29,25.16,88,88,0,0,0-3.59,12.84c-.25,1.25-.43,2.51-.57,3.78-.27,2.47-.51,4.94-.68,7.43a9.42,9.42,0,0,0,.11,1.91,3.64,3.64,0,0,0,2.85,3,6.48,6.48,0,0,0,1.74.25c.69,0,1.37,0,2.06,0H390c1.46,0,2.93,0,4.4,0a7.42,7.42,0,0,1,1.48.2,1.77,1.77,0,0,1,1.44,1.6,17.36,17.36,0,0,1,0,4.61,1.81,1.81,0,0,1-1.56,1.63,12,12,0,0,1-2,.21c-.92,0-1.84,0-2.77,0H82.28q-9,0-18.09,0c-1,0-1.93-.06-2.89-.14a2.18,2.18,0,0,1-2.2-2.32,33.47,33.47,0,0,1,0-3.47A2,2,0,0,1,61,157.71a9.39,9.39,0,0,1,1.5-.13h101c2.73,0,5.45,0,8.17,0a11.36,11.36,0,0,0,2.18-.23,4.27,4.27,0,0,0,3.33-3.87,14,14,0,0,0,0-2.05c-.11-1.49-.29-3-.39-4.48a59.11,59.11,0,0,0-1.89-10.73,77.77,77.77,0,0,0-9.61-22.37,76.7,76.7,0,0,0-8-10.53,126,126,0,0,0-14.19-13.44c-3.73-3-7.59-5.77-11.56-8.41-.7-.47-1.38-1-2-1.5a3.75,3.75,0,0,1-.68-.75.47.47,0,0,1,.27-.71,2.84,2.84,0,0,1,.87,0,14.23,14.23,0,0,1,1.6.35,84.12,84.12,0,0,1,24.72,11.48,73.56,73.56,0,0,1,26.53,32.32,86.63,86.63,0,0,1,4.84,15.75,59,59,0,0,1,1,6.21c.15,1.33.39,2.64.54,4,.18,1.53.3,3.07.46,4.6a8.22,8.22,0,0,0,.31,1.39,3.83,3.83,0,0,0,2.52,2.55,11.73,11.73,0,0,0,6.3.11,4,4,0,0,0,2.84-2.82,7.32,7.32,0,0,0,.26-1.74c0-1.15,0-2.31-.07-3.46-.09-1.67-.29-3.33-.36-5-.12-2.36-.59-4.67-.88-7-.41-3.36-1-6.68-1.7-10-.37-1.89-.88-3.75-1.35-5.61a107.77,107.77,0,0,0-8.62-22.84,110.56,110.56,0,0,0-15.58-22.8,147.22,147.22,0,0,0-16.05-15.24c-.38-.32-.74-.66-1.11-1A5.17,5.17,0,0,1,154.66,57.91Z"/>
  <path class="cls-68" d="M70.37,269.61c-1.25,0-2.51-.06-3.76-.11a8.73,8.73,0,0,1-3.73-1,2.28,2.28,0,0,1-1.36-2.94,8,8,0,0,1,.66-1.79,13,13,0,0,0,1.43-6.19c0-.89.1-1.79.16-2.69a10.94,10.94,0,0,0-.26-3.95,9.26,9.26,0,0,0-.8-2,2.72,2.72,0,0,0-4.41-.62,4.58,4.58,0,0,0-1.53,2.87,26.87,26.87,0,0,0-.24,2.69c0,1.58,0,3.16,0,4.75a10.82,10.82,0,0,0,.68,3.64c.27.72.46,1.46.67,2.2a4,4,0,0,1,.13.76,2.74,2.74,0,0,1-1.61,3A10.63,10.63,0,0,1,53,269.3a16.81,16.81,0,0,1-1.88.15c-1.21,0-2.43,0-3.64,0a13,13,0,0,1-5.13-1.1l-.23-.1c-1.73-.81-2.18-2.15-1.29-3.89a10.31,10.31,0,0,1,1-1.5,8.8,8.8,0,0,0,1.84-5.23c.07-2.44,0-4.88,0-7.32a4.54,4.54,0,0,0-1.23-3.15c-.23-.25-.46-.5-.67-.77a2.06,2.06,0,0,1,.35-3.23,6.08,6.08,0,0,1,1.61-1,37.12,37.12,0,0,1,5.34-1.87c1.18-.28,2.34-.65,3.51-1a7,7,0,0,1,2.22-.35,2.07,2.07,0,0,1,2.07,1.55c.14.41.22.83.37,1.23a1.66,1.66,0,0,0,2.6,1,11.52,11.52,0,0,0,1.23-.88c.61-.45,1.2-.93,1.83-1.35a12.22,12.22,0,0,1,8.45-1.75A7.68,7.68,0,0,1,76,241.26c.36.36.67.77,1,1.12a1.9,1.9,0,0,0,2.53.32,5.91,5.91,0,0,0,1.12-.81A13.14,13.14,0,0,1,86.26,239a11,11,0,0,1,6.56.23A7.58,7.58,0,0,1,98,245.49a17.94,17.94,0,0,1,.13,4.74c-.26,2.74-.17,5.48-.18,8.22a6.69,6.69,0,0,0,1.34,4.07c.1.13.19.28.3.41a3.34,3.34,0,0,1,.69,2.76,3.51,3.51,0,0,1-1.9,2.85,7.68,7.68,0,0,1-3.48,1c-2.3,0-4.6,0-6.91,0a8.54,8.54,0,0,1-4-1.25,4.29,4.29,0,0,1-1.06-.89,2.41,2.41,0,0,1-.56-2.27,10.73,10.73,0,0,1,.53-1.57,18.61,18.61,0,0,0,1.55-8,25.83,25.83,0,0,0-.23-4.48,6.78,6.78,0,0,0-.79-2.15,2.74,2.74,0,0,0-4.86,0,6.24,6.24,0,0,0-.65,1.65,5.49,5.49,0,0,0-.18,1.4,59.47,59.47,0,0,0,.16,7.19,12.88,12.88,0,0,0,.9,3.46c.24.6.49,1.18.68,1.8a3.21,3.21,0,0,1-1.9,4.29,9.48,9.48,0,0,1-3.89.91H70.37Z"/>
  <path class="cls-69" d="M69.51,173.62c1.51,0,3,0,4.53,0a4.78,4.78,0,0,1,1.71.34,2.77,2.77,0,0,1,.7,4.78c-.23.18-.46.37-.71.53a5.66,5.66,0,0,0-2.63,4,25.59,25.59,0,0,0-.41,4.86c0,6,0,12.08,0,18.12a28.34,28.34,0,0,1-.37,5.12,9.89,9.89,0,0,1-.59,2.08,2,2,0,0,1-2.2,1.34,4.52,4.52,0,0,1-1.9-.61A19,19,0,0,1,64.69,212l-6.3-5.52c-3.12-2.73-6.23-5.46-9.37-8.17-.83-.72-1.7-1.4-2.57-2.06a7.07,7.07,0,0,0-1.3-.77,2.52,2.52,0,0,0-3.35,1.15,5.55,5.55,0,0,0-.59,1.67,19.79,19.79,0,0,0,0,6.78,6.42,6.42,0,0,0,2.42,4.08,8.11,8.11,0,0,1,.77.66,2.82,2.82,0,0,1,.82,1.69,2.26,2.26,0,0,1-1.6,2.7,10.5,10.5,0,0,1-3.92.78c-1.67,0-3.35,0-5,0a9.33,9.33,0,0,1-3.79-.75,4.87,4.87,0,0,1-1-.55,2.19,2.19,0,0,1-.52-3.06,5.31,5.31,0,0,1,1.21-1.29,6.5,6.5,0,0,0,2.52-5c.14-1.49.18-3,.27-4.48l.15-2.69a30.46,30.46,0,0,0-.06-5.65,13.25,13.25,0,0,1-.08-1.67,28.82,28.82,0,0,0-.55-6,10.17,10.17,0,0,0-.51-1.85A5.31,5.31,0,0,0,30,179.29a9.35,9.35,0,0,1-.86-.52,5.85,5.85,0,0,1-1-.82,2,2,0,0,1,.39-3.21,6.13,6.13,0,0,1,2.66-1.07,17,17,0,0,1,2.13-.18c2,0,3.94,0,5.91,0,.37,0,.75,0,1.13,0a4,4,0,0,1,2.42.94c2.17,1.81,4.49,3.44,6.56,5.39,1.66,1.56,3.47,2.95,5.21,4.43l5.1,4.38a7.51,7.51,0,0,0,1.1.85,7.1,7.1,0,0,0,1.48.68,2.18,2.18,0,0,0,2.39-.71,3.19,3.19,0,0,0,.86-2,14.43,14.43,0,0,0-.22-4.59,5.69,5.69,0,0,0-2.28-3.57,11.35,11.35,0,0,1-1.31-1.19,2.63,2.63,0,0,1,.72-3.87,5.33,5.33,0,0,1,2.52-.7h4.52Z"/>
  <path class="cls-68" d="M18.18,269.45c-.71,0-1.43,0-2.14,0a12.12,12.12,0,0,1-2.48-.32,33.46,33.46,0,0,0-3.93-.82,18,18,0,0,1-4.89-1.59,5.09,5.09,0,0,1-2-1.7c-.15-.21-.3-.41-.43-.63A16.68,16.68,0,0,1,0,255.82a4.89,4.89,0,0,1,.26-1.51,1.88,1.88,0,0,1,3-1,5.45,5.45,0,0,1,1.26,1.23,30,30,0,0,1,1.86,2.74A11.68,11.68,0,0,0,11.5,262a8.76,8.76,0,0,0,2.63.83,15.75,15.75,0,0,0,3.76.06,5,5,0,0,0,2.75-1.14,2.52,2.52,0,0,0,.28-3.91,6.16,6.16,0,0,0-2.64-1.68l-5.37-1.8a19.35,19.35,0,0,1-9.2-6.43,10.74,10.74,0,0,1-2.42-6.08,11.47,11.47,0,0,1,2.55-8.35,15.42,15.42,0,0,1,8-5.29c.84-.24,1.69-.5,2.54-.7a11.19,11.19,0,0,1,2-.32,18.86,18.86,0,0,1,6.6.6c.67.21,1.39.28,2.09.43a14.36,14.36,0,0,0,3.87.23c.34,0,.68,0,1-.07a4.1,4.1,0,0,1,3.54,1.28A12.86,12.86,0,0,1,37,236.31a3.81,3.81,0,0,1-1,3.55,2.81,2.81,0,0,1-3.46.64,8.41,8.41,0,0,1-1.64-1.16c-.68-.58-1.29-1.22-1.93-1.84a17.46,17.46,0,0,0-4.76-3.31,7.38,7.38,0,0,0-3.79-.64,4.08,4.08,0,0,0-1.89.63,3.29,3.29,0,0,0-.82,4.9,6,6,0,0,0,1.21,1.1,11.58,11.58,0,0,0,3.54,1.61,55.55,55.55,0,0,1,8.31,2.88,13.58,13.58,0,0,1,4.8,3.85,9.59,9.59,0,0,1,2,5.16,11.84,11.84,0,0,1-4.24,10.84,16.52,16.52,0,0,1-7.55,3.86,16.6,16.6,0,0,0-2.08.51,12.1,12.1,0,0,1-4,.57H18.18Z"/>
  <path class="cls-69" d="M288.41,185.54c1.21,0,2.43,0,3.64,0a8.65,8.65,0,0,1,3.54.78,2.3,2.3,0,0,1,1.25,3.26c-.18.43-.41.85-.6,1.27a3.86,3.86,0,0,0-.12,3,12.26,12.26,0,0,0,1.87,3.47,2.38,2.38,0,0,0,1.41,1,2.2,2.2,0,0,0,2.1-.58,9.55,9.55,0,0,0,2.51-4,4,4,0,0,0-.1-2.76c-.14-.36-.3-.71-.44-1.07a6,6,0,0,1-.3-.84,2.19,2.19,0,0,1,1.4-2.88,8.11,8.11,0,0,1,3.29-.71c1.43,0,2.85,0,4.28,0a8.8,8.8,0,0,1,2,.25,2.72,2.72,0,0,1,2.11,2.14,1.71,1.71,0,0,1-.6,1.84,9.54,9.54,0,0,1-1.59,1,10.55,10.55,0,0,0-4.86,5c-.88,1.75-1.85,3.45-2.78,5.18s-1.72,3.33-2.66,4.94a67.67,67.67,0,0,1-4.1,6.92,8,8,0,0,1-1.39,1.46,2.58,2.58,0,0,1-3.46-.11,16.42,16.42,0,0,1-3-3.41c-1.4-2.08-2.81-4.16-4.23-6.22a6.41,6.41,0,0,0-1-1.16,2.37,2.37,0,0,0-3.59,0,14.33,14.33,0,0,0-2.53,3.35c-1,1.75-2,3.53-3,5.31a8,8,0,0,1-1.56,2,2.83,2.83,0,0,1-4.25-.11,14.51,14.51,0,0,1-1.38-1.82c-.63-.91-1.21-1.85-1.81-2.78l-2.93-4.64q-3-4.8-6.08-9.59c-.44-.68-.93-1.32-1.41-2a5.36,5.36,0,0,0-2.12-1.77,8.66,8.66,0,0,1-1.43-.79,1.78,1.78,0,0,1-.41-2.77,3.44,3.44,0,0,1,1.15-1,9.36,9.36,0,0,1,2.12-.74,23,23,0,0,1,5.61-.58c1.51.06,3,0,4.53,0a9.76,9.76,0,0,1,4.61,1.07,8.27,8.27,0,0,1,.75.45,2,2,0,0,1,.91,2,10.83,10.83,0,0,1-.33,1.5,4.16,4.16,0,0,0,.27,3,16.93,16.93,0,0,0,2.31,3.65,2.33,2.33,0,0,0,3.8-.06,9.55,9.55,0,0,0,1.06-1.73,3,3,0,0,0-.37-3.37c-.44-.57-1-1.07-1.45-1.6a8.71,8.71,0,0,1-.77-.84,1.68,1.68,0,0,1,.41-2.47,7.8,7.8,0,0,1,2.67-1.09,22.83,22.83,0,0,1,6.11-.51C287.74,185.55,288.07,185.54,288.41,185.54Z"/>
  <path class="cls-69" d="M228.4,180.35c-.07,1.58-.15,3.16-.21,4.75,0,.72,0,1.45,0,2.18a3.6,3.6,0,0,0,.53,1.83,2,2,0,0,0,2.82.77,5.06,5.06,0,0,0,1.5-1.34A8.72,8.72,0,0,1,236.5,186a5.17,5.17,0,0,1,1.57-.43,19.93,19.93,0,0,1,4.88.1,8.53,8.53,0,0,1,4.13,2,6.08,6.08,0,0,1,2,3.62,32.12,32.12,0,0,1,.52,5.36c0,2.61.13,5.22.2,7.83a6.47,6.47,0,0,0,.85,3c.36.63.8,1.21,1.18,1.82a10.86,10.86,0,0,1,.87,1.56,2.26,2.26,0,0,1-1,3,6.28,6.28,0,0,1-1.39.58,13.26,13.26,0,0,1-3.6.5c-2,0-4,0-6,0a10.89,10.89,0,0,1-3.91-.81,2.32,2.32,0,0,1-1.63-2.7,4.87,4.87,0,0,1,.61-2.08,13.16,13.16,0,0,0,1.58-6.66v-3.21a10.44,10.44,0,0,0-.83-3.86,5.49,5.49,0,0,0-1.44-2.08,3.83,3.83,0,0,0-5.89.85,5.86,5.86,0,0,0-1,3.14c0,2.27,0,4.54,0,6.81a9.78,9.78,0,0,0,1.15,4.3,10,10,0,0,1,1,2.78,2.06,2.06,0,0,1-.77,2.16,5.32,5.32,0,0,1-1.53.84,8.52,8.52,0,0,1-3,.49h-6.53a14.66,14.66,0,0,1-4.3-.85,4.19,4.19,0,0,1-1.22-.64,2,2,0,0,1-.62-2.61,4.26,4.26,0,0,1,.66-.93,11.28,11.28,0,0,0,2.81-7.12c.11-1.49.2-3,.21-4.49,0-4.11,0-8.22,0-12.33,0-.9-.09-1.8-.13-2.69a4.56,4.56,0,0,0-2.15-3.85,5.35,5.35,0,0,1-1-.81,1.74,1.74,0,0,1-.09-2.43,4,4,0,0,1,1-.82,8.66,8.66,0,0,1,1.47-.71,53,53,0,0,1,9.06-2.55,15.57,15.57,0,0,1,3.13-.08c.69,0,1,.34,1,1a10.87,10.87,0,0,1,0,1.28c0,2,0,3.94-.08,5.91Z"/>
  <path class="cls-69" d="M386.84,188.66c0,4.5,0,9,0,13.49a26.45,26.45,0,0,0,.23,2.95,4.94,4.94,0,0,0,1.37,3,13.68,13.68,0,0,1,1,1.13,2,2,0,0,1-.27,3,7.12,7.12,0,0,1-1.9,1.23,16.51,16.51,0,0,1-2.75.85,22.06,22.06,0,0,1-3.21.58c-1.37.12-2.76.11-4.14.1a1.44,1.44,0,0,1-1.44-1c0-.08-.07-.15-.1-.23a2.15,2.15,0,0,0-3.15-1.11,8.05,8.05,0,0,0-1,.57,11.35,11.35,0,0,1-6.54,1.88,11.68,11.68,0,0,1-8.62-3.8,17.28,17.28,0,0,1-3.33-4.64,14.54,14.54,0,0,1-1.32-8.11,13,13,0,0,1,1.44-4.89,14.88,14.88,0,0,1,8.32-7.41,16,16,0,0,1,7.69-.44,10.53,10.53,0,0,1,1.68.53c.36.11.7.28,1.07.36a2.18,2.18,0,0,0,2.73-1.62,4.09,4.09,0,0,0-.67-3.77,7.19,7.19,0,0,0-1.78-1.61,9.33,9.33,0,0,1-.84-.55,1.75,1.75,0,0,1-.49-2.29,3.27,3.27,0,0,1,.8-1,5.39,5.39,0,0,1,1.38-.86,21.75,21.75,0,0,1,4.43-1.41,12.73,12.73,0,0,0,2.17-.61,13.49,13.49,0,0,1,5.29-.89c.25,0,.5,0,.75.07a1.12,1.12,0,0,1,1,1,11.38,11.38,0,0,1,.13,1.66c0,2.57,0,5.14,0,7.71,0,2.05,0,4.11,0,6.16Zm-21.6,12.26h-.13c.11,1.1.18,2.21.34,3.31a6.67,6.67,0,0,0,2.32,4,3.73,3.73,0,0,0,5.86-1.19,9.23,9.23,0,0,0,1.1-3.79c0-.51.06-1,.15-1.53a18.44,18.44,0,0,0-.35-6.62,5.36,5.36,0,0,0-1.34-2.57,3.5,3.5,0,0,0-5-.27,7.39,7.39,0,0,0-1.22,1.45,10.2,10.2,0,0,0-1.75,5.41C365.23,199.72,365.24,200.32,365.24,200.92Z"/>
  <path class="cls-68" d="M132.64,252.48c0,1.63,0,3,0,4.37a8.23,8.23,0,0,0,.16,1.4,3.91,3.91,0,0,0,1.48,2.46,12.65,12.65,0,0,1,1,.8,2,2,0,0,1,.52,2.12,6.33,6.33,0,0,1-.52,1.16,10,10,0,0,1-5.64,4.46,8.42,8.42,0,0,1-4.72.07,5,5,0,0,1-1.79-.91c-.37-.28-.73-.57-1.11-.83a2.76,2.76,0,0,0-3-.2l-1.11.61a10.91,10.91,0,0,1-6.12,1.6,6.46,6.46,0,0,0-.88,0,9.61,9.61,0,0,1-5.27-1.42,5.82,5.82,0,0,1-1.86-1.52c-.52-.66-1-1.36-1.51-2a3.63,3.63,0,0,1-.6-2.43,8.6,8.6,0,0,1,3.69-7,11.33,11.33,0,0,1,3-1.61l2-.68a13.86,13.86,0,0,1,4.33-.69,17.18,17.18,0,0,0,2.38-.13,2.45,2.45,0,0,0,2.36-2.65,6.27,6.27,0,0,0-.92-3.56,2.61,2.61,0,0,0-3.9-.89,8.51,8.51,0,0,0-1.25,1.07c-.55.53-1.06,1.1-1.6,1.64a10.08,10.08,0,0,1-2.52,1.89,4.46,4.46,0,0,1-2.93.46,3,3,0,0,1-2.43-3.59,4.73,4.73,0,0,1,.87-2,9.5,9.5,0,0,1,3.13-2.72,31.52,31.52,0,0,1,6-2.35,22.23,22.23,0,0,1,8.47-.62,14,14,0,0,1,5.59,1.84,9.26,9.26,0,0,1,2.85,2.48,7.32,7.32,0,0,1,1.68,4.22C132.55,249.14,132.59,250.94,132.64,252.48Zm-13,6.63c0-.15,0-.37,0-.58a2.28,2.28,0,0,0-3.55-1.64,3.46,3.46,0,0,0-1.53,2.12,2.7,2.7,0,0,0,.73,2.7,2.26,2.26,0,0,0,3.18.17A3.45,3.45,0,0,0,119.66,259.11Z"/>
  <path class="cls-68" d="M177.92,254.36c0-1.79,0-3.59,0-5.39a6,6,0,0,0-.23-1.64,1.64,1.64,0,0,0-1.69-1.25,11,11,0,0,1-1.62-.15,2.42,2.42,0,0,1-1.93-2.6,3.14,3.14,0,0,1,1-2.25,9.79,9.79,0,0,1,1.17-1l10.16-6.89c.66-.45,1.35-.85,2-1.25a5.33,5.33,0,0,1,3.8-.37,1.87,1.87,0,0,1,1.55,1.79c.07.59,0,1.19.08,1.79a13.37,13.37,0,0,0,.18,1.66,2.2,2.2,0,0,0,1.87,1.83,12.54,12.54,0,0,0,1.62.18c.83,0,1.67.06,2.51.1a8.54,8.54,0,0,1,1.12.13,1.81,1.81,0,0,1,1.55,1.62,8.56,8.56,0,0,1-.07,3.19,1.87,1.87,0,0,1-1.37,1.52,5.21,5.21,0,0,1-1.23.22c-.8.05-1.59,0-2.39.07a12.63,12.63,0,0,0-1.5.12,2.3,2.3,0,0,0-2.13,2.16,9.09,9.09,0,0,0-.12,1.28c0,2.31,0,4.63,0,6.94a9.22,9.22,0,0,0,.23,2,3.75,3.75,0,0,0,4.94,2.83c.44-.15.86-.35,1.29-.51a1.68,1.68,0,0,1,2.37,1.74,3.46,3.46,0,0,1-.59,1.93,10.16,10.16,0,0,1-3.75,3.53,13.14,13.14,0,0,1-5.9,1.59c-1.5,0-3,0-4.52-.05a8.57,8.57,0,0,1-5.17-2.08,8,8,0,0,1-2.9-4.66,16.35,16.35,0,0,1-.38-3.19c0-1.67,0-3.34,0-5Z"/>
  <path class="cls-68" d="M149.65,269.58h-4.39a13.29,13.29,0,0,1-4-.64,6.2,6.2,0,0,1-1.59-.73,2.79,2.79,0,0,1-.88-3.92,9.11,9.11,0,0,1,.83-1.13c.29-.36.61-.7.92-1.05a5.32,5.32,0,0,0,1.4-3.48q.12-3.47.22-6.93a9.29,9.29,0,0,0-.06-1.29,4,4,0,0,0-1.69-3,6.39,6.39,0,0,1-1.14-1,2,2,0,0,1-.3-2.48,5.46,5.46,0,0,1,1.12-1.36,5.28,5.28,0,0,1,1.39-.86,44.56,44.56,0,0,1,9.36-2.85,9.55,9.55,0,0,1,2-.09,2.57,2.57,0,0,1,2.57,1.88,7.93,7.93,0,0,0,.37,1c.6,1.26,1.55,1.47,2.64.57.32-.26.59-.61.91-.88.6-.53,1.21-1.06,1.84-1.54a6.24,6.24,0,0,1,7.77.74,6.84,6.84,0,0,1,2.07,5.67,7.84,7.84,0,0,1-3.88,6.23c-1.47,1-4.73,1.18-6.45-.18-.46-.37-.92-.74-1.4-1.08a6.54,6.54,0,0,0-1.18-.72,1.49,1.49,0,0,0-2,.64,4,4,0,0,0-.58,1.94,15.92,15.92,0,0,0-.06,2.18c.06,1.33.15,2.65.28,4a4,4,0,0,0,2.28,3.45,7.43,7.43,0,0,1,1.29.79,3.15,3.15,0,0,1,1.29,2.12,2.58,2.58,0,0,1-1,2.61,5.13,5.13,0,0,1-1.56.8,12.6,12.6,0,0,1-4,.67Z"/>
  <path class="cls-69" d="M345.86,197.88c0,1.28-.06,2.57,0,3.85a22.4,22.4,0,0,0,.45,3.17,4.06,4.06,0,0,0,1.77,2.56l.32.2c1,.61,1.26.93.63,2.35a8,8,0,0,1-3.23,3.65A9.42,9.42,0,0,1,340,215a4.55,4.55,0,0,1-3.07-1.26,8.71,8.71,0,0,0-.85-.76,2.79,2.79,0,0,0-3.3-.17c-.26.14-.48.34-.73.5a9.68,9.68,0,0,1-5.32,1.7c-1,0-2,.06-3,0a8,8,0,0,1-6.54-3.74,6.78,6.78,0,0,1-.74-5.32,5.91,5.91,0,0,1,1.41-2.67,12.78,12.78,0,0,1,7.07-3.89,18.89,18.89,0,0,1,3.75-.34,19.11,19.11,0,0,0,2.62-.17,2.9,2.9,0,0,0,2.67-3,7.54,7.54,0,0,0-1.2-4.51,3,3,0,0,0-4.67-.75c-.74.62-1.38,1.37-2.08,2s-1.26,1.26-1.94,1.82a4.77,4.77,0,0,1-3.65,1,2.3,2.3,0,0,1-2.16-3,4.75,4.75,0,0,1,.64-1.39,8.37,8.37,0,0,1,3-2.68,11.75,11.75,0,0,1,1.48-.7,36.14,36.14,0,0,1,6-1.9,4.36,4.36,0,0,1,.87-.13c2.18,0,4.36-.13,6.53,0a11.93,11.93,0,0,1,4.44,1.32,9.13,9.13,0,0,1,3.28,2.74,5.3,5.3,0,0,1,1.08,2.43,17.7,17.7,0,0,1,.21,2.17c0,1.2,0,2.4,0,3.6ZM334.21,205a10.31,10.31,0,0,0-.24-1.22A2.5,2.5,0,0,0,332,202a2.91,2.91,0,0,0-2.79.74,6.4,6.4,0,0,0-.94,1.19,3.23,3.23,0,0,0,.31,4.11,2.88,2.88,0,0,0,4.41.15A4.68,4.68,0,0,0,334.21,205Z"/>
  <path class="cls-69" d="M109.74,197.44c.1,1.92.17,3.84.3,5.76a10.05,10.05,0,0,0,.4,1.87,4.08,4.08,0,0,0,1.77,2.41,4.94,4.94,0,0,0,.42.27,2,2,0,0,1,.83,2.56,2.09,2.09,0,0,1-.58.82c-.5.51-1,1-1.57,1.47a9,9,0,0,1-5.93,2.41c-.63,0-1.26,0-1.88-.07a3.74,3.74,0,0,1-2.26-1l-.75-.69a2.89,2.89,0,0,0-3.9-.22,11.45,11.45,0,0,1-2.54,1.4,7.1,7.1,0,0,1-2.68.59c-1.21,0-2.43,0-3.64,0a5.34,5.34,0,0,1-2.08-.43c-.42-.19-.86-.35-1.27-.55a6.57,6.57,0,0,1-3.82-4.64,6.5,6.5,0,0,1,1.74-6.47,12,12,0,0,1,5.13-3.09,18.28,18.28,0,0,1,5.44-.8,14.92,14.92,0,0,0,2.5-.15,2.91,2.91,0,0,0,2.69-3.15,7.92,7.92,0,0,0-1-4.17,3.15,3.15,0,0,0-5.12-.79c-.68.69-1.33,1.41-2,2.1s-1.15,1.12-1.77,1.63a4.91,4.91,0,0,1-3.8,1,2.18,2.18,0,0,1-2-2.47,3.56,3.56,0,0,1,.55-1.69,7.54,7.54,0,0,1,3.22-3A31.64,31.64,0,0,1,89.33,187a18,18,0,0,1,3.73-1.13c.37,0,.73-.16,1.11-.2a35.93,35.93,0,0,1,6.64-.08,12.92,12.92,0,0,1,4.56,1.36,9,9,0,0,1,3.18,2.66,5.78,5.78,0,0,1,1.24,3.44c0,1.45,0,2.91,0,4.36Zm-11.49,7.5a5.61,5.61,0,0,0-.17-1,2.6,2.6,0,0,0-2.45-2,3,3,0,0,0-2.48,1,6.84,6.84,0,0,0-.76,1,3.22,3.22,0,0,0,.28,4.11,2.87,2.87,0,0,0,4.49.09A4.42,4.42,0,0,0,98.25,204.94Z"/>
  <path class="cls-69" d="M126.14,215c-1.43,0-2.85,0-4.27,0a15.66,15.66,0,0,1-4.09-.58,5.44,5.44,0,0,1-.83-.3,2.56,2.56,0,0,1-1.06-4,3.84,3.84,0,0,1,.82-.79,5.74,5.74,0,0,0,2.32-3.83,16.73,16.73,0,0,0,.28-2.54c.06-1.89.07-3.77.06-5.65a8.83,8.83,0,0,0-.2-1.78,3.77,3.77,0,0,0-1.8-2.52,7.45,7.45,0,0,1-1-.63,1.76,1.76,0,0,1-.4-2.4,3.15,3.15,0,0,1,1.17-1.15,11,11,0,0,1,1.92-.93c2.11-.7,4.24-1.34,6.36-2a12.91,12.91,0,0,1,4.24-.4,4.2,4.2,0,0,1,.62.08,1.29,1.29,0,0,1,1.08.95c.1.33.16.67.28,1a6.18,6.18,0,0,0,.55,1.29,1.63,1.63,0,0,0,2.51.43,6,6,0,0,0,1.06-1.08,8.69,8.69,0,0,1,2.1-1.82,4.84,4.84,0,0,1,2.48-.81,12.91,12.91,0,0,1,1.76,0,4.52,4.52,0,0,1,3.81,2.34,7.72,7.72,0,0,1,1,2.34,7.11,7.11,0,0,1-3.83,7.88,3,3,0,0,1-.71.25,8.85,8.85,0,0,1-3.12.13,3.7,3.7,0,0,1-1.75-.65c-.48-.35-.94-.73-1.4-1.09a11.7,11.7,0,0,0-1.21-.92,1.84,1.84,0,0,0-2.85.82,4.66,4.66,0,0,0-.44,1.32,16.41,16.41,0,0,0-.14,4.48c.07.64.07,1.28.13,1.92a14.94,14.94,0,0,0,.24,1.78,4,4,0,0,0,2.36,3,8.28,8.28,0,0,1,1.44.77,2.47,2.47,0,0,1,1.11,2.54,2,2,0,0,1-1,1.54,4.15,4.15,0,0,1-1,.45,16.12,16.12,0,0,1-4.09.61c-1.51,0-3,0-4.52,0Z"/>
  <path class="cls-69" d="M170.7,200c-1.72,0-3.43,0-5.15,0a15.35,15.35,0,0,0-2.25.1,2,2,0,0,0-1.81,2.21,5.07,5.07,0,0,0,1,2.87,10.62,10.62,0,0,0,3.87,3.4,6,6,0,0,0,5.22.34c1.31-.55,2.61-1.15,3.92-1.72a6.88,6.88,0,0,1,1.27-.51,1.34,1.34,0,0,1,1.68,1,2.57,2.57,0,0,1-.17,2.1,4.26,4.26,0,0,1-1.31,1.54A17.57,17.57,0,0,1,165.55,215c-.37,0-.75,0-1.13,0a13.83,13.83,0,0,1-5.18-.75,13.45,13.45,0,0,1-4.78-2.75l-.64-.61c-3.2-3-4.42-6.76-4.4-11a13.14,13.14,0,0,1,3.69-9,15.81,15.81,0,0,1,10-5.19,19.35,19.35,0,0,1,7.61.36,13.68,13.68,0,0,1,5.52,3,12.82,12.82,0,0,1,3.66,5.59,5.59,5.59,0,0,1,.11,3.29,6.94,6.94,0,0,1-.41,1.07A1.7,1.7,0,0,1,178.1,200c-.54,0-1.08.1-1.63.11-1.92,0-3.85,0-5.77,0Zm-5.3-4.27v0c.59,0,1.17,0,1.75-.09a3.2,3.2,0,0,0,.61-.15,2.23,2.23,0,0,0,1.52-3.2,3.75,3.75,0,0,0-2.5-2.34,4.09,4.09,0,0,0-4.67,1.58,3.07,3.07,0,0,0-.58,2.29,1.91,1.91,0,0,0,1.16,1.56,4.21,4.21,0,0,0,1.21.3C164.4,195.79,164.9,195.75,165.4,195.75Z"/>
  <path class="cls-69" d="M194,215h-5.27c-.42,0-.84,0-1.26,0a2.18,2.18,0,0,1-1.6-.9,12.93,12.93,0,0,1-2.54-6.6,3.9,3.9,0,0,1,0-1,1.55,1.55,0,0,1,2.24-1.27,4.07,4.07,0,0,1,1,.72c.58.55,1.13,1.14,1.68,1.73a15.11,15.11,0,0,0,2.82,2.35,4,4,0,0,0,2.49.7,2.61,2.61,0,0,0,2.4-1.77,2.41,2.41,0,0,0-.59-2.71,8,8,0,0,0-1.49-1.15c-.83-.5-1.7-.92-2.54-1.39a24.8,24.8,0,0,1-4.11-2.94c-2.79-2.44-3.23-5.9-2.27-9.13a5.17,5.17,0,0,1,.71-1.5,9.44,9.44,0,0,1,8.11-4.57,25.26,25.26,0,0,1,5.62.41,7,7,0,0,0,3-.07c.54-.11,1.07-.22,1.61-.28a2.81,2.81,0,0,1,2.58,1,11.45,11.45,0,0,1,2.55,5.23,6.71,6.71,0,0,1,.08,1.79,1.89,1.89,0,0,1-1.85,1.89,2.6,2.6,0,0,1-2.3-.76c-.5-.52-1-1-1.51-1.54-.8-.81-1.61-1.62-2.43-2.41a2.89,2.89,0,0,0-1.42-.78,2.47,2.47,0,0,0-2.69.93,2.65,2.65,0,0,0-.12,2.91,4.43,4.43,0,0,0,1.94,1.77l2.8,1.44a34.51,34.51,0,0,1,5.06,3.33,7.81,7.81,0,0,1,.94,11,10.67,10.67,0,0,1-6.06,3.38,11.11,11.11,0,0,1-2,.21c-1.89,0-3.77,0-5.66,0Z"/>
  <path d="M318.26,280c-.8,0-1.59-.06-2.39-.13a7.34,7.34,0,0,1-1.47-.28c-1.2-.39-2.39-.81-3.58-1.23a5.43,5.43,0,0,1-2-1.28,3.79,3.79,0,0,1-1-4,6.38,6.38,0,0,1,.67-1.51,2.38,2.38,0,0,0,.14-2.21c-.19-.48-.39-.95-.61-1.41a3.66,3.66,0,0,1,.43-4c.33-.44.68-.87,1.05-1.28a2.49,2.49,0,0,0,.31-3.08c-.33-.6-.66-1.2-1-1.79-1.75-3-.95-5.75,1.32-8a8.4,8.4,0,0,1,3.42-2.09c.28-.09.56-.18.83-.29a11.88,11.88,0,0,1,5.68-.78,11.24,11.24,0,0,1,2.21.44,12,12,0,0,0,2.71.5,7.42,7.42,0,0,0,3.79-.72c.42-.2.84-.38,1.28-.54a2.75,2.75,0,0,1,.85-.18,1.11,1.11,0,0,1,1.17,1,2.69,2.69,0,0,1,0,1.13,8.25,8.25,0,0,1-.71,1.91,8.5,8.5,0,0,0-1.05,3.53,7.72,7.72,0,0,1-1.24,3.6,7.88,7.88,0,0,1-4.11,3.22,32.73,32.73,0,0,1-3.38,1,20.57,20.57,0,0,1-2.36.3c-.83.09-1.67.16-2.5.28a3.62,3.62,0,0,0-.95.3,1.41,1.41,0,0,0-.81,1.9,2,2,0,0,0,1.41,1.34,7.25,7.25,0,0,0,1.73.27,13.64,13.64,0,0,0,5.54-.92,7,7,0,0,1,4.08-.42,5.92,5.92,0,0,1,4.92,4.54,4.45,4.45,0,0,1,0,2.29,9.88,9.88,0,0,1-7.49,7.32,7.77,7.77,0,0,0-1.57.43A13,13,0,0,1,318.26,280Zm4-25.39c0-.62-.05-1.22-.12-1.81a5.56,5.56,0,0,0-1.62-3.39,2.28,2.28,0,0,0-3.45.06,4.58,4.58,0,0,0-1.23,2.34,11.28,11.28,0,0,0,.17,4.7,5.44,5.44,0,0,0,1.45,2.51,2.28,2.28,0,0,0,3.45,0,4.33,4.33,0,0,0,1.24-2.6C322.25,255.79,322.26,255.19,322.29,254.61ZM318.41,271h0c-.79,0-1.59,0-2.38,0a9.08,9.08,0,0,0-1.48.19c-1.43.31-1.57,1.4-1.15,2.43a2.73,2.73,0,0,0,.3.56,4.91,4.91,0,0,0,3.07,2,11.88,11.88,0,0,0,4.12,0A3.61,3.61,0,0,0,323,275a2.72,2.72,0,0,0,.68-2.13,1.73,1.73,0,0,0-1.33-1.66A6.91,6.91,0,0,0,321,271C320.16,271,319.29,271,318.41,271Z"/>
  <path d="M450.76,269.55c-1-.07-2-.12-3-.22a4.7,4.7,0,0,1-2.3-.94,2.51,2.51,0,0,1-1-2.7,6.21,6.21,0,0,1,.42-1.21,16.15,16.15,0,0,0,1.16-5.74,9.6,9.6,0,0,0-.57-3.4,3.05,3.05,0,0,0-2.92-2.23,3,3,0,0,0-3.12,1.92,5.18,5.18,0,0,0-.45,1.85c-.07,1.37-.06,2.74,0,4.11a7.14,7.14,0,0,0,.67,2.59,9.64,9.64,0,0,1,.61,1.81,2.75,2.75,0,0,1-1.36,3.16,4.92,4.92,0,0,1-2.11.78,19.23,19.23,0,0,1-5.14,0,5.66,5.66,0,0,1-2.54-1,2.39,2.39,0,0,1-1-2.67,4.2,4.2,0,0,1,.43-1.2,9.14,9.14,0,0,0,1.13-4.42c.06-1.41,0-2.83,0-4.24a5.59,5.59,0,0,0-.83-2.92,6,6,0,0,1-.52-1.16,1.7,1.7,0,0,1,.58-1.95,4.23,4.23,0,0,1,1.07-.66c1-.4,1.95-.79,2.94-1.12s1.85-.56,2.77-.82a6.34,6.34,0,0,1,.86-.21,2,2,0,0,1,2,1c.25.4.43.83.66,1.24a1.48,1.48,0,0,0,2.12.73,6.88,6.88,0,0,0,1.24-.86c.6-.46,1.17-1,1.78-1.42a6,6,0,0,1,5.51-.81,7.39,7.39,0,0,1,2.95,1.66A5.86,5.86,0,0,1,454.7,252a26.41,26.41,0,0,1,.22,2.68c.08,1.84.13,3.68.2,5.52a7.27,7.27,0,0,0,.74,3c.27.58.55,1.16.78,1.75a5.89,5.89,0,0,1,.33,1.23,2.2,2.2,0,0,1-.68,2,4.08,4.08,0,0,1-2.43,1.24C452.82,269.44,451.78,269.48,450.76,269.55Z"/>
  <path class="cls-69" d="M410.17,196v7.32c0,.47,0,.94,0,1.41a5.85,5.85,0,0,0,1.59,3.81c.44.46.88.93,1.28,1.42a3,3,0,0,1,.7,2,1.85,1.85,0,0,1-.85,1.62,4.73,4.73,0,0,1-1.12.57,14.3,14.3,0,0,1-4.3.81c-2.51,0-5,0-7.54,0a13.53,13.53,0,0,1-4.31-.76,2.37,2.37,0,0,1-1.49-1.28,2.26,2.26,0,0,1,0-2.1,7.75,7.75,0,0,1,.87-1.25c.29-.37.63-.69.95-1a4.86,4.86,0,0,0,1.31-2.45,22.82,22.82,0,0,0,.51-3.67c.05-1.84-.07-3.68-.13-5.52a4.56,4.56,0,0,0-2.3-4,4.3,4.3,0,0,1-.62-.43,1.8,1.8,0,0,1-.07-3,5.17,5.17,0,0,1,1.38-.89,27.69,27.69,0,0,1,4.88-1.63,14.32,14.32,0,0,0,1.81-.51,18.59,18.59,0,0,1,5.15-1,4.85,4.85,0,0,1,1,0,1.18,1.18,0,0,1,1.2,1.23,8.84,8.84,0,0,1,0,1.15V196Z"/>
  <path d="M399.8,258.6c0-.53.05-1.05.07-1.56a8.63,8.63,0,0,1,2.4-5.64,13.58,13.58,0,0,1,3.54-2.83,14,14,0,0,1,2.09-.84c.67-.25,1.35-.46,2-.7a10.34,10.34,0,0,1,7.13,0c.67.24,1.32.53,2,.8a9.9,9.9,0,0,1,5.23,4.75,11.42,11.42,0,0,1,1.37,5.53,9,9,0,0,1-2.3,5.95,12.78,12.78,0,0,1-6.23,4.13c-.6.17-1.19.4-1.78.61a11,11,0,0,1-7.39.05c-.71-.24-1.43-.48-2.14-.74a9.32,9.32,0,0,1-5.92-7.89C399.83,259.69,399.82,259.14,399.8,258.6Zm16.51,1.86c-.08-.95-.16-1.67-.21-2.39a10.54,10.54,0,0,0-1.52-4.43,4.3,4.3,0,0,0-1.36-1.48,2.54,2.54,0,0,0-3.68.92,4.2,4.2,0,0,0-.53,3c.19,1,.39,2,.58,3a10.85,10.85,0,0,0,1.54,3.62,3.38,3.38,0,0,0,.84.93,2.52,2.52,0,0,0,4.1-1.35A10.41,10.41,0,0,0,416.31,260.46Z"/>
  <path d="M228.24,269.47c-.8,0-1.59,0-2.39,0a9.57,9.57,0,0,1-4.33-1.17A5.79,5.79,0,0,1,221,268a1.87,1.87,0,0,1-.7-2.47,8.77,8.77,0,0,1,1-1.6,5.4,5.4,0,0,0,1.15-3.05,104.23,104.23,0,0,0,.06-13.46,7,7,0,0,0-1.81-4.52,6,6,0,0,1-.94-1.35,2,2,0,0,1,.86-2.84,5.42,5.42,0,0,1,.69-.32,16.74,16.74,0,0,1,4.12-1.05,27.31,27.31,0,0,1,6.39.07,17.33,17.33,0,0,1,2.55.65,4.44,4.44,0,0,1,1.31.73,2,2,0,0,1,.59,2.52,5.15,5.15,0,0,1-.92,1.37,10.2,10.2,0,0,0-2.38,5.55,31.29,31.29,0,0,0-.24,7.55c.08,1.07.12,2.14.21,3.21a15.45,15.45,0,0,0,.25,1.9,6,6,0,0,0,1.77,3.32,5.83,5.83,0,0,1,.85.94,2,2,0,0,1-.67,3.06,9.24,9.24,0,0,1-4.66,1.32c-.75,0-1.51,0-2.26,0Z"/>
  <path d="M335.31,263.85a5.15,5.15,0,0,1,3-5.05,14.53,14.53,0,0,1,6.49-1.78,5.34,5.34,0,0,0,1.49-.18,2.63,2.63,0,0,0,2-3,4.58,4.58,0,0,0-1.41-2.93,2.35,2.35,0,0,0-3-.24c-.62.42-1.16,1-1.75,1.45s-1.17,1-1.79,1.41a3.15,3.15,0,0,1-1,.44,1.82,1.82,0,0,1-2.26-2,3.08,3.08,0,0,1,1-2,7.23,7.23,0,0,1,2.74-1.77c1.42-.5,2.84-1,4.3-1.4a9.33,9.33,0,0,1,6.63.47c.45.22.93.38,1.4.57a6.3,6.3,0,0,1,2.36,1.66,4.65,4.65,0,0,1,1.2,2.5c.1.8.18,1.62.2,2.43,0,1.58,0,3.17,0,4.75a7,7,0,0,0,1.53,4.77,3.46,3.46,0,0,1,.22.31,2.16,2.16,0,0,1-.18,2.82l-.08.1a7.81,7.81,0,0,1-4.46,2.15,4.11,4.11,0,0,1-2.53-.6l-1.41-.85a2.81,2.81,0,0,0-2.65-.22c-.9.36-1.78.77-2.66,1.16a6.92,6.92,0,0,1-3.81.53,8,8,0,0,1-3.95-1.83A4.63,4.63,0,0,1,335.31,263.85Zm8.43-2.32c0,2.1,1.7,3.19,3.23,2.34a2.77,2.77,0,0,0,1.2-3.21,2.09,2.09,0,0,0-3-1.22A2.53,2.53,0,0,0,343.74,261.53Z"/>
  <path d="M364.77,258.92c0-1.25,0-2.49,0-3.73a12,12,0,0,0-.21-1.78,2.14,2.14,0,0,0-1.34-1.59c-.35-.14-.71-.25-1.06-.41a1.87,1.87,0,0,1-.69-3.2,11.84,11.84,0,0,1,1.8-1.59c1.36-1,2.74-2,4.11-3,.65-.47,1.27-1,1.92-1.44a16,16,0,0,1,1.6-1,3.87,3.87,0,0,1,1.19-.39,1.74,1.74,0,0,1,2,1.23,8.56,8.56,0,0,1,.23,1.12c.09.51.15,1,.26,1.52a1.86,1.86,0,0,0,1.42,1.48,16.69,16.69,0,0,0,1.86.28,14.56,14.56,0,0,1,1.74.24,2.28,2.28,0,0,1,1.7,2.27,2.19,2.19,0,0,1-1.56,2.24,11.36,11.36,0,0,1-1.85.32c-.58.09-1.16.13-1.73.24a2,2,0,0,0-1.63,1.74l0,.13a21.13,21.13,0,0,0,.05,6.4,3.19,3.19,0,0,0,3.45,2.7c.5,0,1-.09,1.5-.12a1.46,1.46,0,0,1,1.42,2.17,6.2,6.2,0,0,1-1.06,1.57c-1.44,1.62-5.93,3.65-8.78,3a9.14,9.14,0,0,1-4.83-2.55,4.64,4.64,0,0,1-1.32-3c-.07-1.41-.07-2.83-.11-4.24v-.64Z"/>
  <path d="M247.7,269.46c-.92,0-1.84,0-2.76,0a6.64,6.64,0,0,1-2.8-.62,6.78,6.78,0,0,1-1-.57,2.28,2.28,0,0,1-.8-2.84,6.7,6.7,0,0,1,.77-1.32,8.58,8.58,0,0,0,1.61-4.66c.06-1.11,0-2.22,0-3.33a5.07,5.07,0,0,0-1.08-3.09,7.6,7.6,0,0,1-.65-1,2,2,0,0,1,.58-2.81,7,7,0,0,1,2.58-1.28,19,19,0,0,0,3.59-1.14,3.61,3.61,0,0,1,1.22-.27,2.33,2.33,0,0,1,2.11.91c.21.26.39.55.6.82a1.91,1.91,0,0,0,3,.45c.24-.17.46-.37.7-.54a17.28,17.28,0,0,1,1.82-1.14,3.76,3.76,0,0,1,4.52.76,4,4,0,0,1,1.22,4.29,5.25,5.25,0,0,1-3,3.41,3.6,3.6,0,0,1-3.27-.16c-.56-.28-1.1-.61-1.65-.94-1.9-1.12-3.1.18-3.39,1.62a9.45,9.45,0,0,0-.19,1.91,26.5,26.5,0,0,0,.15,2.82,4.73,4.73,0,0,0,1.85,3.37,7.83,7.83,0,0,1,1.13,1,2,2,0,0,1-.4,3.18,5,5,0,0,1-2.55,1c-1.29.09-2.59.13-3.88.19Z"/>
  <path d="M272.66,269.47c-.88,0-1.76,0-2.64,0a7.35,7.35,0,0,1-2.7-.51,5.61,5.61,0,0,1-1.11-.59,2.33,2.33,0,0,1-.83-3.24,6.79,6.79,0,0,1,.61-1,8.4,8.4,0,0,0,1.65-4.64c.06-1.16,0-2.32,0-3.47a5,5,0,0,0-1-3,13.1,13.1,0,0,1-.8-1.15,1.67,1.67,0,0,1,.45-2.47,15.28,15.28,0,0,1,2.19-1.25,6.42,6.42,0,0,1,1.08-.32l2.88-.89a8.69,8.69,0,0,1,1-.28,2.64,2.64,0,0,1,2.79,1,8,8,0,0,0,.72.89,1.8,1.8,0,0,0,2.41.28c.29-.17.54-.41.82-.6.63-.42,1.24-.87,1.91-1.23a4.07,4.07,0,0,1,5.81,3.27,4.89,4.89,0,0,1-3.21,5.24,3.5,3.5,0,0,1-2.93-.15c-.34-.15-.67-.36-1-.54s-.8-.48-1.22-.67a1.87,1.87,0,0,0-2.65.92,4.45,4.45,0,0,0-.42,1.34,15.16,15.16,0,0,0,.09,4.61,4.59,4.59,0,0,0,1.76,3,8,8,0,0,1,1.21,1.11,2,2,0,0,1-.4,3.09,5,5,0,0,1-2.54,1c-1.29.1-2.59.14-3.89.2Z"/>
  <path d="M395.28,255c0,1.54,0,3.08,0,4.62a7.23,7.23,0,0,0,1.22,4.1c.26.4.53.78.75,1.19a2.41,2.41,0,0,1-1,3.49,6.48,6.48,0,0,1-3.31,1.08c-1.55,0-3.1,0-4.64,0a6.33,6.33,0,0,1-3.09-1,2.5,2.5,0,0,1-1-3.52,9.89,9.89,0,0,1,.6-1,8.43,8.43,0,0,0,1.54-5.31c0-.59,0-1.2-.07-1.79A8,8,0,0,0,385,253a6.5,6.5,0,0,1-.6-1,1.89,1.89,0,0,1,.64-2.59,7.91,7.91,0,0,1,2.94-1.4,33.41,33.41,0,0,0,4.38-1.1,1.81,1.81,0,0,1,.61-.1,1.84,1.84,0,0,1,2.12,1.56,9.68,9.68,0,0,1,.18,1.78c0,1.58,0,3.17,0,4.75Z"/>
  <path d="M302.93,254.73c0,1.41,0,2.83,0,4.24a8.24,8.24,0,0,0,1.62,5.28,5.46,5.46,0,0,1,.53.87,2.09,2.09,0,0,1-.63,2.84,6.2,6.2,0,0,1-2.82,1.34,5.59,5.59,0,0,1-1,.13c-1.54,0-3.09,0-4.64,0a6.24,6.24,0,0,1-3.09-1,2.45,2.45,0,0,1-1-3.4,3.66,3.66,0,0,1,.44-.77c1.75-2.29,2-4.93,1.66-7.68a7.92,7.92,0,0,0-1.36-3.69,4.85,4.85,0,0,1-.52-.88,1.93,1.93,0,0,1,.66-2.59A7.94,7.94,0,0,1,295.8,248a29.63,29.63,0,0,0,4.15-1,3.09,3.09,0,0,1,.86-.13,1.8,1.8,0,0,1,1.94,1.48,8.09,8.09,0,0,1,.18,1.78c0,1.54,0,3.08,0,4.62Z"/>
  <path class="cls-69" d="M404.44,172.12c.71,0,1.42,0,2.13,0a3.67,3.67,0,0,1,2.11.74,2.87,2.87,0,0,1,1.08,3.17,4.53,4.53,0,0,1-2.59,3,14.31,14.31,0,0,1-6,1.55c-1.05,0-2.1,0-3.14,0a3.91,3.91,0,0,1-2.53-1,3,3,0,0,1-.31-4.33,5.59,5.59,0,0,1,2.24-1.62,43.08,43.08,0,0,1,4.3-1.39,14.73,14.73,0,0,1,2.75-.19Z"/>
  <path d="M387.76,244a12.56,12.56,0,0,1-1.25-.15,3.28,3.28,0,0,1-1.06-.38,2.29,2.29,0,0,1-.26-4,2.11,2.11,0,0,1,.31-.21,16.16,16.16,0,0,1,4.84-1.71,5.8,5.8,0,0,1,2.12.12,2.87,2.87,0,0,1,1.59,1,2.24,2.24,0,0,1-.11,3.12,4.41,4.41,0,0,1-1.26.82c-.76.35-1.55.65-2.34.94a5.87,5.87,0,0,1-1.09.3C388.76,243.9,388.26,243.93,387.76,244Z"/>
  <path d="M295.2,244a7.24,7.24,0,0,1-.93-.1,4.22,4.22,0,0,1-.84-.24,2.42,2.42,0,0,1-1.59-2,2.35,2.35,0,0,1,1.17-2.26.23.23,0,0,1,.1-.07,14.09,14.09,0,0,1,5.21-1.78,6.82,6.82,0,0,1,1.74.14,3.06,3.06,0,0,1,1.14.5,2.26,2.26,0,0,1,0,3.93A11.38,11.38,0,0,1,295.2,244Z"/>
</svg>
