<?xml version="1.0" encoding="iso-8859-1"?>
<!-- Generator: Adobe Illustrator 19.0.0, SVG Export Plug-In . SVG Version: 6.00 Build 0)  -->
<svg version="1.1" id="Layer_1" xmlns="http://www.w3.org/2000/svg" xmlns:xlink="http://www.w3.org/1999/xlink" x="0px" y="0px"
	 viewBox="0 0 500 500" style="enable-background:new 0 0 500 500;" xml:space="preserve">
<g>
	<g>
		<path d="M23.365,85.936V495.32c0,2.156,2.632,4.68,4.796,4.68h359.372c2.16,0,3.02-2.524,3.02-4.68V85.936H23.365z
			 M71.557,140.624h273.312c4.32,0,7.812,3.5,7.812,7.812c0,4.316-3.492,7.812-7.812,7.812H71.557c-4.316,0-7.812-3.496-7.812-7.812
			C63.745,144.124,67.241,140.624,71.557,140.624z M71.557,179.688h55.004c4.312,0,7.812,3.5,7.812,7.812
			c0,4.316-3.5,7.812-7.812,7.812H71.557c-4.316,0-7.812-3.496-7.812-7.812C63.745,183.188,67.241,179.688,71.557,179.688z
			 M71.557,218.752h207.264c4.308,0,7.812,3.5,7.812,7.812c0,4.316-3.504,7.812-7.812,7.812H71.557
			c-4.316,0-7.812-3.496-7.812-7.812C63.745,222.248,67.241,218.752,71.557,218.752z M71.557,257.812h273.312
			c4.32,0,7.812,3.5,7.812,7.812c0,4.316-3.492,7.812-7.812,7.812H71.557c-4.316,0-7.812-3.496-7.812-7.812
			C63.745,261.312,67.241,257.812,71.557,257.812z M306.105,226.564c0-4.312,3.496-7.812,7.812-7.812h30.952
			c4.32,0,7.812,3.5,7.812,7.812c0,4.316-3.492,7.812-7.812,7.812h-30.952C309.601,234.376,306.105,230.88,306.105,226.564z
			 M71.557,296.876h55.004c4.312,0,7.812,3.5,7.812,7.812c0,4.316-3.5,7.812-7.812,7.812H71.557c-4.316,0-7.812-3.496-7.812-7.812
			C63.745,300.376,67.241,296.876,71.557,296.876z M71.557,335.936h207.264c4.308,0,7.812,3.5,7.812,7.812
			c0,4.316-3.504,7.812-7.812,7.812H71.557c-4.316,0-7.812-3.496-7.812-7.812C63.745,339.436,67.241,335.936,71.557,335.936z
			 M71.557,375h273.312c4.32,0,7.812,3.5,7.812,7.812c0,4.316-3.492,7.812-7.812,7.812H71.557c-4.316,0-7.812-3.496-7.812-7.812
			C63.745,378.5,67.241,375,71.557,375z M306.105,343.752c0-4.312,3.496-7.812,7.812-7.812h30.952c4.32,0,7.812,3.5,7.812,7.812
			c0,4.316-3.492,7.812-7.812,7.812h-30.952C309.601,351.564,306.105,348.068,306.105,343.752z M126.561,429.688H71.557
			c-4.316,0-7.812-3.496-7.812-7.812c0-4.312,3.496-7.812,7.812-7.812h55.004c4.312,0,7.812,3.5,7.812,7.812
			C134.373,426.192,130.873,429.688,126.561,429.688z M344.869,429.688H161.657c-4.316,0-7.812-3.496-7.812-7.812
			c0-4.312,3.496-7.812,7.812-7.812h183.216c4.32,0,7.812,3.5,7.812,7.812C352.681,426.192,349.189,429.688,344.869,429.688z
			 M344.869,312.5H161.657c-4.316,0-7.812-3.496-7.812-7.812c0-4.312,3.496-7.812,7.812-7.812h183.216c4.32,0,7.812,3.5,7.812,7.812
			C352.681,309.004,349.189,312.5,344.869,312.5z M344.869,195.312H161.657c-4.316,0-7.812-3.496-7.812-7.812
			c0-4.312,3.496-7.812,7.812-7.812h183.216c4.32,0,7.812,3.5,7.812,7.812C352.681,191.816,349.189,195.312,344.869,195.312z"/>
	</g>
</g>
<g>
	<g>
		<path d="M476.497,436.82v-0.276h-0.004V40.404V14.26c0-8.392-6.536-14.26-15.424-14.26h-18.34c-4.236,0-8.688,1.068-11.732,3.884
			c-3.12,2.892-5.284,6.276-5.284,10.38v26.148v1.412v394.708v0.016v0.024v0.248c0,0.456,0.524,0.916,0.684,1.352l21.612,58.008
			c0.572,1.532,2.14,2.556,3.78,2.556c1.632,0,3.152-1.024,3.72-2.556l21.072-58.008C476.741,437.74,476.497,437.276,476.497,436.82
			z"/>
	</g>
</g>
<g>
	<g>
		<path d="M387.533,0H28.165c-2.164,0-4.796,1.116-4.796,3.276V62.5h367.184V3.276C390.553,1.116,389.693,0,387.533,0z"/>
	</g>
</g>
<g>
</g>
<g>
</g>
<g>
</g>
<g>
</g>
<g>
</g>
<g>
</g>
<g>
</g>
<g>
</g>
<g>
</g>
<g>
</g>
<g>
</g>
<g>
</g>
<g>
</g>
<g>
</g>
<g>
</g>
</svg>
