<svg xmlns="http://www.w3.org/2000/svg" width="32" height="32"><path d="M4.45 2a.5.5 0 0 0-.106.016A2.5 2.5 0 0 0 2 4.5v1a.5.5 0 0 0 .5.5H6v19.5c0 1.235.957 2.15 2.137 2.35A.5.5 0 0 0 8.5 28h6.012c.04.314.17.619.404.861l.68.703a1.453 1.453 0 0 0 2.078 0l1.344-1.394.013-.014a.5.5 0 0 0 .004-.004l.147-.152H27.5c1.376 0 2.5-1.124 2.5-2.5v-1a.5.5 0 0 0-.5-.5H26v-2.967a.5.5 0 0 0-.01-.1l1.85-1.92a.49.51 0 0 0 .01-.011.5.5 0 0 0 .004-.004.49.51 0 0 0 .019-.023.5.5 0 0 0 .096-.17l1.017-3.17a.5.5 0 0 0-.484-.653v.002a.5.5 0 0 0-.154.026L26 15.822V4.5C26 3.124 24.876 2 23.5 2h-19a.5.5 0 0 0-.05 0zm.05 1C5.34 3 6 3.66 6 4.5V5H3v-.5C3 3.66 3.66 3 4.5 3zm1.986 0H23.5c.84 0 1.5.66 1.5 1.5v11.797L22.395 19a.5.5 0 0 0-.02 0H19a.5.5 0 0 0-.05 0 .5.5 0 1 0 .05 1h2.43l-3.856 4H10.5a.5.5 0 0 0-.5.5v1c0 .84-.66 1.5-1.5 1.5S7 26.34 7 25.5V5.58a.5.5 0 0 0 0-.164V4.5c0-.564-.196-1.08-.514-1.5zm5.463 2A.5.5 0 1 0 12 6h8a.5.5 0 1 0 0-1h-8a.5.5 0 0 0-.05 0zm-3 3A.5.5 0 1 0 9 9h14a.5.5 0 1 0 0-1H9a.5.5 0 0 0-.05 0zm0 2A.5.5 0 1 0 9 11h14a.5.5 0 1 0 0-1H9a.5.5 0 0 0-.05 0zm0 2A.5.5 0 1 0 9 13h14a.5.5 0 1 0 0-1H9a.5.5 0 0 0-.05 0zm0 2A.5.5 0 1 0 9 15h8.5a.5.5 0 1 0 0-1H9a.5.5 0 0 0-.05 0zm3.365 2.008c-.518 0-.956.26-1.285.588-.327.325-.576.73-.777 1.152-.394.824-.625 1.654-.625 2.443 0 .825.202 1.586.73 2.098.493.478 1.188.705 1.957.705h.002c.77 0 1.464-.227 1.957-.705.53-.512.733-1.273.733-2.098 0-.79-.233-1.62-.627-2.443-.202-.421-.449-.827-.775-1.152-.329-.327-.769-.588-1.288-.588h-.002zm15.415.275-.456 1.422-.912-.947 1.368-.475zm-15.415.725h.002c.183 0 .373.09.58.297.21.208.414.522.583.875.346.724.527 1.422.527 2.011 0 .653-.178 1.137-.428 1.38-.273.264-.683.423-1.262.423h-.002c-.578 0-.989-.16-1.261-.424-.25-.242-.426-.726-.426-1.379 0-.59.181-1.288.527-2.011.169-.353.372-.667.58-.875.208-.207.398-.297.58-.297zm13.143.254 1.342 1.39-6.772 7.028-1.336-1.387a.5.5 0 0 0-.005-.006l6.771-7.025zM25 21.96V24h-1.965L25 21.96zM11 25h5.611l-.306.316a.5.5 0 0 0-.006.006l-.012.014a.5.5 0 0 0-.014.014l-1.357 1.408a1.481 1.481 0 0 0-.19.242h-4.349c.339-.427.623-.916.623-1.5V25zm11.072 0H29v.5c0 .84-.66 1.5-1.5 1.5h-7.355l1.927-2zm-4.08.008 1.336 1.388a.5.5 0 0 0 .006.004l-.664.69-1.342-1.393.664-.69zm-1.357 1.408 1.342 1.395-1.024 1.06c-.19.197-.447.197-.637 0l-.68-.705a.517.517 0 0 1 0-.713l.999-1.037z" color="#000" font-family="sans-serif" font-weight="400" overflow="visible" style="line-height:normal;text-indent:0;text-align:start;text-decoration-line:none;text-decoration-style:solid;text-decoration-color:#000;text-transform:none;block-progression:tb;white-space:normal;isolation:auto;mix-blend-mode:normal;solid-color:#000;solid-opacity:1"/></svg>