<?xml version="1.0" encoding="iso-8859-1"?>
<!-- Generator: Adobe Illustrator 19.0.0, SVG Export Plug-In . SVG Version: 6.00 Build 0)  -->
<svg version="1.1" id="Layer_1" xmlns="http://www.w3.org/2000/svg" xmlns:xlink="http://www.w3.org/1999/xlink" x="0px"
	y="0px" viewBox="0 0 500 500" style="enable-background:new 0 0 500 500;" xml:space="preserve">
	<g>
		<g>
			<path d="M367.124,478.528v-21.472H0.136v21.472C0.136,489.764,10.764,500,22,500h350.132
			C369.088,492.192,367.124,485.848,367.124,478.528z" />
		</g>
	</g>
	<g>
		<g>
			<path d="M88.64,0.276c-11.24,0-22.132,8.86-22.132,20.1v413.248h313.768c7.148,0,14.176,4.692,14.176,11.844v33.056
			c0,11.24,8.28,20.384,19.52,20.384c11.24,0,19.52-9.144,19.524-20.38V20.248c0-0.048,0.252,0.052,0.252,0.008
			c0.044-7.224,2.024-16.072,5.024-19.98H88.64z" />
		</g>
	</g>
	<g>
		<g>
			<path
				d="M480.344,0C469.1,0,460.82,9.136,460.82,20.376v18.94h39.044v-18.94C499.864,9.136,491.584,0,480.344,0z" />
		</g>
	</g>
	<g>
	</g>
	<g>
	</g>
	<g>
	</g>
	<g>
	</g>
	<g>
	</g>
	<g>
	</g>
	<g>
	</g>
	<g>
	</g>
	<g>
	</g>
	<g>
	</g>
	<g>
	</g>
	<g>
	</g>
	<g>
	</g>
	<g>
	</g>
	<g>
	</g>
</svg>